<svg width="176" height="183" viewBox="-63.30127 -20 176.60254 183.30127" xmlns="http://www.w3.org/2000/svg">
    <g>
        <!-- Edges -->
        <g stroke="black" stroke-width="1.0">
            <line x1="68.30127" y1="68.30127" x2="93.30127" y2="25"/>
            <line x1="50" y1="0" x2="25" y2="43.30127"/>
            <line x1="25" y1="43.30127" x2="-18.30127" y2="68.30127"/>
            <line x1="68.30127" y1="68.30127" x2="25" y2="43.30127"/>
            <line x1="93.30127" y1="25" x2="50" y2="0"/>
            <line x1="-18.30127" y1="68.30127" x2="-18.30127" y2="118.30127"/>
            <line x1="25" y1="43.30127" x2="0" y2="0"/>
            <line x1="-18.30127" y1="118.30127" x2="25" y2="143.30127"/>
            <line x1="50" y1="0" x2="0" y2="0"/>
            <line x1="68.30127" y1="118.30127" x2="68.30127" y2="68.30127"/>
            <line x1="-43.30127" y1="25" x2="-18.30127" y2="68.30127"/>
            <line x1="0" y1="0" x2="-43.30127" y2="25"/>
            <line x1="25" y1="143.30127" x2="68.30127" y2="118.30127"/>
        </g>
        <!-- Boundary Highlight -->
        <g stroke="red" stroke-width="3.0" fill="none">
            <polygon
                    points="93.30127,25 68.30127,68.30127 68.30127,118.30127 25,143.30127 -18.30127,118.30127 -18.30127,68.30127 -43.30127,25 0,0 50,0">
            </polygon>
        </g>
        <!-- Inner Face Half-Edge Direction Arrows -->
        <g fill="blue" stroke="blue" stroke-width="0.5">
            <polygon points="11,19.052559 11.46077,22.250635 13.53923,21.050635"/>
            <polygon points="-24.248711,14 -21.050635,13.53923 -22.250635,11.46077"/>
            <polygon points="-29.30127,49.248711 -29.76204,46.050635 -31.840501,47.250635"/>
            <polygon points="5.947441,54.30127 2.749365,54.76204 3.949365,56.840501"/>
            <polygon points="44.052559,54.30127 46.050635,56.840501 47.250635,54.76204"/>
            <polygon points="0.751289,57.30127 3.949365,56.840501 2.749365,54.76204"/>
            <polygon points="-18.30127,96.30127 -17.10127,93.30127 -19.50127,93.30127"/>
            <polygon points="5.947441,132.30127 3.949365,129.76204 2.749365,131.840501"/>
            <polygon points="49.248711,129.30127 46.050635,129.76204 47.250635,131.840501"/>
            <polygon points="68.30127,90.30127 67.10127,93.30127 69.50127,93.30127"/>
            <polygon points="22,-0 25,1.2 25,-1.2"/>
            <polygon points="14,24.248711 13.53923,21.050635 11.46077,22.250635"/>
            <polygon points="39,19.052559 36.46077,21.050635 38.53923,22.250635"/>
            <polygon points="36,24.248711 38.53923,22.250635 36.46077,21.050635"/>
            <polygon points="49.248711,57.30127 47.250635,54.76204 46.050635,56.840501"/>
            <polygon points="82.30127,44.052559 79.76204,46.050635 81.840501,47.250635"/>
            <polygon points="69.052559,11 71.050635,13.53923 72.250635,11.46077"/>
        </g>
        <!-- Outer Face Half-Edge Direction Arrows -->
        <g fill="black" stroke="black" stroke-width="0.5">
            <polygon points="79.30127,49.248711 81.840501,47.250635 79.76204,46.050635"/>
            <polygon points="68.30127,96.30127 69.50127,93.30127 67.10127,93.30127"/>
            <polygon points="44.052559,132.30127 47.250635,131.840501 46.050635,129.76204"/>
            <polygon points="0.751289,129.30127 2.749365,131.840501 3.949365,129.76204"/>
            <polygon points="-18.30127,90.30127 -19.50127,93.30127 -17.10127,93.30127"/>
            <polygon points="-32.30127,44.052559 -31.840501,47.250635 -29.76204,46.050635"/>
            <polygon points="-19.052559,11 -22.250635,11.46077 -21.050635,13.53923"/>
            <polygon points="28,0 25,-1.2 25,1.2"/>
            <polygon points="74.248711,14 72.250635,11.46077 71.050635,13.53923"/>
        </g>
        <!-- Vertices -->
        <g fill="red">
            <circle cx="25" cy="43.30127" r="2.0"/>
            <circle cx="93.30127" cy="25" r="2.0"/>
            <circle cx="-18.30127" cy="68.30127" r="2.0"/>
            <circle cx="68.30127" cy="68.30127" r="2.0"/>
            <circle cx="68.30127" cy="118.30127" r="2.0"/>
            <circle cx="-43.30127" cy="25" r="2.0"/>
            <circle cx="-18.30127" cy="118.30127" r="2.0"/>
            <circle cx="0" cy="0" r="2.0"/>
            <circle cx="25" cy="143.30127" r="2.0"/>
            <circle cx="50" cy="0" r="2.0"/>
        </g>
        <!-- Vertex Labels -->
        <g font-size="8" fill="darkblue">
            <text x="27.5" y="40.80127">V8</text>
            <text x="95.80127" y="22.5">V10</text>
            <text x="-15.80127" y="65.80127">V12</text>
            <text x="70.80127" y="65.80127">V11</text>
            <text x="70.80127" y="115.80127">V14</text>
            <text x="-40.80127" y="22.5">V13</text>
            <text x="-15.80127" y="115.80127">V16</text>
            <text x="2.5" y="-2.5">V1</text>
            <text x="27.5" y="140.80127">V15</text>
            <text x="52.5" y="-2.5">V2</text>
        </g>
        <!-- Face Labels -->
        <g font-size="6" fill="green" text-anchor="middle" dominant-baseline="middle">
            <text x="-9.150635" y="34.150635">F6</text>
            <text x="25" y="93.30127">F7</text>
            <text x="25" y="14.433757">F3</text>
            <text x="59.150635" y="34.150635">F5</text>
        </g>
        <!-- Inner Angle Labels -->
        <g font-size="5" fill="purple" text-anchor="middle" dominant-baseline="middle">
            <text x="17.272593" y="41.230718">90°</text>
            <text x="-2.070552" y="7.727407">90°</text>
            <text x="-35.573864" y="27.070552">90°</text>
            <text x="-16.230718" y="60.573864">90°</text>
            <text x="61.373067" y="72.30127">120°</text>
            <text x="25" y="51.30127">120°</text>
            <text x="-11.373067" y="72.30127">120°</text>
            <text x="-11.373067" y="114.30127">120°</text>
            <text x="25" y="135.30127">120°</text>
            <text x="61.373067" y="114.30127">120°</text>
            <text x="43.071797" y="4">60°</text>
            <text x="6.928203" y="4">60°</text>
            <text x="25" y="35.30127">60°</text>
            <text x="52.070552" y="7.727407">90°</text>
            <text x="32.727407" y="41.230718">90°</text>
            <text x="66.230718" y="60.573864">90°</text>
            <text x="85.573864" y="27.070552">90°</text>
        </g>
        <!-- Outer Angle Labels -->
        <g font-size="5" fill="orange" text-anchor="middle" dominant-baseline="middle">
            <text x="101.26955" y="24.288302">270°</text>
            <text x="75.621287" y="71.528863">150°</text>
            <text x="73.718985" y="124.187557">240°</text>
            <text x="27.388817" y="150.936292">240°</text>
            <text x="-19.166101" y="126.254387">240°</text>
            <text x="-20.371823" y="76.028677">150°</text>
            <text x="-51.028677" y="22.929448">270°</text>
            <text x="2.070552" y="-7.727407">210°</text>
            <text x="56.928203" y="-4">210°</text>
        </g>
    </g>
</svg>