<svg width="165" height="194" viewBox="-70 -106.60254 165 194.903811" xmlns="http://www.w3.org/2000/svg">
    <g>
        <!-- Edges -->
        <g stroke="black" stroke-width="1.0">
            <line x1="50" y1="0" x2="75" y2="-43.30127"/>
            <line x1="0" y1="0" x2="50" y2="0"/>
            <line x1="75" y1="-43.30127" x2="50" y2="-86.60254"/>
            <line x1="25" y1="43.30127" x2="0" y2="0"/>
            <line x1="-25" y1="-43.30127" x2="-50" y2="-0"/>
            <line x1="0" y1="-86.60254" x2="-25" y2="-43.30127"/>
            <line x1="-50" y1="-0" x2="0" y2="0"/>
            <line x1="-18.30127" y1="68.30127" x2="25" y2="43.30127"/>
            <line x1="50" y1="-86.60254" x2="0" y2="-86.60254"/>
            <line x1="-43.30127" y1="25" x2="-18.30127" y2="68.30127"/>
            <line x1="0" y1="0" x2="-43.30127" y2="25"/>
            <line x1="-25" y1="-43.30127" x2="0" y2="0"/>
            <line x1="25" y1="43.30127" x2="50" y2="0"/>
        </g>
        <!-- Boundary Highlight -->
        <g stroke="red" stroke-width="3.0" fill="none">
            <polygon
                    points="75,-43.30127 50,0 25,43.30127 -18.30127,68.30127 -43.30127,25 0,0 -50,-0 -25,-43.30127 0,-86.60254 50,-86.60254">
            </polygon>
        </g>
        <!-- Inner Face Half-Edge Direction Arrows -->
        <g fill="blue" stroke="blue" stroke-width="0.5">
            <polygon points="11,19.052559 11.46077,22.250635 13.53923,21.050635"/>
            <polygon points="-24.248711,14 -21.050635,13.53923 -22.250635,11.46077"/>
            <polygon points="-29.30127,49.248711 -29.76204,46.050635 -31.840501,47.250635"/>
            <polygon points="5.947441,54.30127 2.749365,54.76204 3.949365,56.840501"/>
            <polygon points="28,0 25,-1.2 25,1.2"/>
            <polygon points="64,-24.248711 61.46077,-22.250635 63.53923,-21.050635"/>
            <polygon points="61,-67.549981 61.46077,-64.351905 63.53923,-65.551905"/>
            <polygon points="22,-86.60254 25,-85.40254 25,-87.80254"/>
            <polygon points="-14,-62.353829 -11.46077,-64.351905 -13.53923,-65.551905"/>
            <polygon points="-11,-19.052559 -11.46077,-22.250635 -13.53923,-21.050635"/>
            <polygon points="-14,-24.248711 -13.53923,-21.050635 -11.46077,-22.250635"/>
            <polygon points="-39,-19.052559 -36.46077,-21.050635 -38.53923,-22.250635"/>
            <polygon points="-22,-0 -25,-1.2 -25,1.2"/>
            <polygon points="22,-0 25,1.2 25,-1.2"/>
            <polygon points="14,24.248711 13.53923,21.050635 11.46077,22.250635"/>
            <polygon points="39,19.052559 36.46077,21.050635 38.53923,22.250635"/>
        </g>
        <!-- Outer Face Half-Edge Direction Arrows -->
        <g fill="black" stroke="black" stroke-width="0.5">
            <polygon points="61,-19.052559 63.53923,-21.050635 61.46077,-22.250635"/>
            <polygon points="36,24.248711 38.53923,22.250635 36.46077,21.050635"/>
            <polygon points="0.751289,57.30127 3.949365,56.840501 2.749365,54.76204"/>
            <polygon points="-32.30127,44.052559 -31.840501,47.250635 -29.76204,46.050635"/>
            <polygon points="-19.052559,11 -22.250635,11.46077 -21.050635,13.53923"/>
            <polygon points="-28,-0 -25,1.2 -25,-1.2"/>
            <polygon points="-36,-24.248711 -38.53923,-22.250635 -36.46077,-21.050635"/>
            <polygon points="-11,-67.549981 -13.53923,-65.551905 -11.46077,-64.351905"/>
            <polygon points="28,-86.60254 25,-87.80254 25,-85.40254"/>
            <polygon points="64,-62.353829 63.53923,-65.551905 61.46077,-64.351905"/>
        </g>
        <!-- Vertices -->
        <g fill="red">
            <circle cx="-25" cy="-43.30127" r="2.0"/>
            <circle cx="-50" cy="-0" r="2.0"/>
            <circle cx="25" cy="43.30127" r="2.0"/>
            <circle cx="-18.30127" cy="68.30127" r="2.0"/>
            <circle cx="-43.30127" cy="25" r="2.0"/>
            <circle cx="0" cy="0" r="2.0"/>
            <circle cx="50" cy="0" r="2.0"/>
            <circle cx="75" cy="-43.30127" r="2.0"/>
            <circle cx="50" cy="-86.60254" r="2.0"/>
            <circle cx="0" cy="-86.60254" r="2.0"/>
        </g>
        <!-- Vertex Labels -->
        <g font-size="8" fill="darkblue">
            <text x="-22.5" y="-45.80127">V6</text>
            <text x="-47.5" y="-2.5">V7</text>
            <text x="27.5" y="40.80127">V8</text>
            <text x="-15.80127" y="65.80127">V12</text>
            <text x="-40.80127" y="22.5">V13</text>
            <text x="2.5" y="-2.5">V1</text>
            <text x="52.5" y="-2.5">V2</text>
            <text x="77.5" y="-45.80127">V3</text>
            <text x="52.5" y="-89.10254">V4</text>
            <text x="2.5" y="-89.10254">V5</text>
        </g>
        <!-- Face Labels -->
        <g font-size="6" fill="green" text-anchor="middle" dominant-baseline="middle">
            <text x="-9.150635" y="34.150635">F6</text>
            <text x="25" y="-43.30127">F1</text>
            <text x="-25" y="-14.433757">F2</text>
            <text x="25" y="14.433757">F3</text>
        </g>
        <!-- Inner Angle Labels -->
        <g font-size="5" fill="purple" text-anchor="middle" dominant-baseline="middle">
            <text x="17.272593" y="41.230718">90°</text>
            <text x="-2.070552" y="7.727407">90°</text>
            <text x="-35.573864" y="27.070552">90°</text>
            <text x="-16.230718" y="60.573864">90°</text>
            <text x="4" y="-6.928203">120°</text>
            <text x="46" y="-6.928203">120°</text>
            <text x="67" y="-43.30127">120°</text>
            <text x="46" y="-79.674337">120°</text>
            <text x="4" y="-79.674337">120°</text>
            <text x="-17" y="-43.30127">120°</text>
            <text x="-6.928203" y="-4">60°</text>
            <text x="-25" y="-35.30127">60°</text>
            <text x="-43.071797" y="-4">60°</text>
            <text x="43.071797" y="4">60°</text>
            <text x="6.928203" y="4">60°</text>
            <text x="25" y="35.30127">60°</text>
        </g>
        <!-- Outer Angle Labels -->
        <g font-size="5" fill="orange" text-anchor="middle" dominant-baseline="middle">
            <text x="80.886287" y="-48.718985">240°</text>
            <text x="56.928203" y="-4">180°</text>
            <text x="32.727407" y="45.371823">210°</text>
            <text x="-20.371823" y="76.028677">270°</text>
            <text x="-51.028677" y="22.929448">270°</text>
            <text x="2.070552" y="-7.727407">30°</text>
            <text x="-56.137671" y="-5.131178">300°</text>
            <text x="-26.603843" y="-51.138852">180°</text>
            <text x="0.604504" y="-94.579669">240°</text>
            <text x="53.519238" y="-93.786896">240°</text>
        </g>
    </g>
</svg>
