<svg 
width="201" height="193" viewBox="-75.901699 -173.884177 201.803399 193.884177" xmlns="http://www.w3.org/2000/svg">
  <g>
    <!-- Edges -->
    <g stroke="black" stroke-width="1.0">
      <line x1="0" y1="0" x2="50" y2="0"/>
      <line x1="50" y1="0" x2="4.322727" y2="-20.336832"/>
      <line x1="4.322727" y1="-20.336832" x2="-0.903696" y2="-70.062927"/>
      <line x1="-0.903696" y1="-70.062927" x2="39.547154" y2="-99.45219"/>
      <line x1="39.547154" y1="-99.45219" x2="85.224427" y2="-79.115357"/>
      <line x1="85.224427" y1="-79.115357" x2="90.45085" y2="-29.389263"/>
      <line x1="90.45085" y1="-29.389263" x2="105.901699" y2="-76.942088"/>
      <line x1="105.901699" y1="-76.942088" x2="90.45085" y2="-124.494914"/>
      <line x1="90.45085" y1="-124.494914" x2="50" y2="-153.884177"/>
      <line x1="50" y1="-153.884177" x2="-0" y2="-153.884177"/>
      <line x1="-0" y1="-153.884177" x2="-40.45085" y2="-124.494914"/>
      <line x1="-40.45085" y1="-124.494914" x2="-55.901699" y2="-76.942088"/>
      <line x1="-55.901699" y1="-76.942088" x2="-40.45085" y2="-29.389263"/>
      <line x1="-40.45085" y1="-29.389263" x2="0" y2="0"/>
    </g>
    <!-- Boundary Highlight -->
    <g stroke="red" stroke-width="3.0" fill="none">
      <polygon 
      points="0,0 -40.45085,-29.389263 -55.901699,-76.942088 -40.45085,-124.494914 -0,-153.884177 50,-153.884177 90.45085,-124.494914 105.901699,-76.942088 90.45085,-29.389263 85.224427,-79.115357 39.547154,-99.45219 -0.903696,-70.062927 4.322727,-20.336832 50,0">
</polygon>
    </g>
    <!-- Inner Face Half-Edge Direction Arrows -->
    <g fill="blue" stroke="blue" stroke-width="0.5">
      <polygon points="28,0 25,-1.2 25,1.2"/>
      <polygon points="24.420727,-11.388626 26.67328,-9.072162 27.649448,-11.264671"/>
      <polygon points="1.39593,-48.183445 0.516089,-45.074445 2.902942,-45.325314"/>
      <polygon points="21.74878,-86.520914 18.616387,-85.728379 20.027071,-83.786738"/>
      <polygon points="65.126426,-88.063564 62.873874,-90.380028 61.897706,-88.187519"/>
      <polygon points="88.151224,-51.268744 89.031064,-54.377744 86.644212,-54.126876"/>
      <polygon points="99.103326,-56.018845 97.035007,-53.536496 99.317542,-52.794855"/>
      <polygon points="97.249224,-103.571671 97.035007,-100.347681 99.317542,-101.089322"/>
      <polygon points="67.798374,-140.952901 69.520083,-138.218725 70.930767,-140.160366"/>
      <polygon points="22,-153.884177 25,-152.684177 25,-155.084177"/>
      <polygon points="-22.652476,-137.42619 -19.520083,-138.218725 -20.930767,-140.160366"/>
      <polygon points="-49.103326,-97.865332 -47.035007,-100.347681 -49.317542,-101.089322"/>
      <polygon points="-47.249224,-50.312506 -47.035007,-53.536496 -49.317542,-52.794855"/>
      <polygon points="-17.798374,-12.931276 -19.520083,-15.665452 -20.930767,-13.723811"/>
    </g>
    <!-- Outer Face Half-Edge Direction Arrows -->
    <g fill="black" stroke="black" stroke-width="0.5">
      <polygon points="-22.652476,-16.457987 -20.930767,-13.723811 -19.520083,-15.665452"/>
      <polygon points="-49.103326,-56.018845 -49.317542,-52.794855 -47.035007,-53.536496"/>
      <polygon points="-47.249224,-103.571671 -49.317542,-101.089322 -47.035007,-100.347681"/>
      <polygon points="-17.798374,-140.952901 -20.930767,-140.160366 -19.520083,-138.218725"/>
      <polygon points="28,-153.884177 25,-155.084177 25,-152.684177"/>
      <polygon points="72.652476,-137.42619 70.930767,-140.160366 69.520083,-138.218725"/>
      <polygon points="99.103326,-97.865332 99.317542,-101.089322 97.035007,-100.347681"/>
      <polygon points="97.249224,-50.312506 99.317542,-52.794855 97.035007,-53.536496"/>
      <polygon points="87.524053,-57.235876 86.644212,-54.126876 89.031064,-54.377744"/>
      <polygon points="59.645154,-90.503983 61.897706,-88.187519 62.873874,-90.380028"/>
      <polygon points="16.894678,-82.994202 20.027071,-83.786738 18.616387,-85.728379"/>
      <polygon points="2.023101,-42.216314 2.902942,-45.325314 0.516089,-45.074445"/>
      <polygon points="29.902,-8.948206 27.649448,-11.264671 26.67328,-9.072162"/>
      <polygon points="22,-0 25,1.2 25,-1.2"/>
    </g>
    <!-- Face Ids On Edges Labels -->
    <g font-size="4" text-anchor="middle" alignment-baseline="middle" fill="blue">
      <text x="25" y="-4">F1</text>
      <text x="25.534417" y="-6.514234">F1</text>
      <text x="-2.268572" y="-44.781766">F1</text>
      <text x="16.970588" y="-87.993626">F1</text>
      <text x="64.012737" y="-92.937955">F1</text>
      <text x="91.815726" y="-54.670424">F1</text>
      <text x="94.372049" y="-54.401744">F1</text>
      <text x="94.372049" y="-99.482433">F1</text>
      <text x="67.874284" y="-135.953478">F1</text>
      <text x="25" y="-149.884177">F1</text>
      <text x="-17.874284" y="-135.953478">F1</text>
      <text x="-44.372049" y="-99.482433">F1</text>
      <text x="-44.372049" y="-54.401744">F1</text>
      <text x="-17.874284" y="-17.930699">F1</text>
      <text x="-22.576566" y="-11.458563">F0</text>
      <text x="25" y="4">F0</text>
      <text x="28.788311" y="-13.822598">F0</text>
      <text x="5.687604" y="-45.617994">F0</text>
      <text x="21.67287" y="-81.52149">F0</text>
      <text x="60.758843" y="-85.629591">F0</text>
      <text x="83.85955" y="-53.834196">F0</text>
      <text x="101.980501" y="-51.929608">F0</text>
      <text x="101.980501" y="-101.954569">F0</text>
      <text x="72.576566" y="-142.425614">F0</text>
      <text x="25" y="-157.884177">F0</text>
      <text x="-22.576566" y="-142.425614">F0</text>
      <text x="-51.980501" y="-101.954569">F0</text>
      <text x="-51.980501" y="-51.929608">F0</text>
    </g>
    <!-- Vertices -->
    <g fill="red">
      <circle cx="0" cy="0" r="2.0"/>
      <circle cx="50" cy="0" r="2.0"/>
      <circle cx="4.322727" cy="-20.336832" r="2.0"/>
      <circle cx="-0.903696" cy="-70.062927" r="2.0"/>
      <circle cx="39.547154" cy="-99.45219" r="2.0"/>
      <circle cx="85.224427" cy="-79.115357" r="2.0"/>
      <circle cx="90.45085" cy="-29.389263" r="2.0"/>
      <circle cx="105.901699" cy="-76.942088" r="2.0"/>
      <circle cx="90.45085" cy="-124.494914" r="2.0"/>
      <circle cx="50" cy="-153.884177" r="2.0"/>
      <circle cx="-0" cy="-153.884177" r="2.0"/>
      <circle cx="-40.45085" cy="-124.494914" r="2.0"/>
      <circle cx="-55.901699" cy="-76.942088" r="2.0"/>
      <circle cx="-40.45085" cy="-29.389263" r="2.0"/>
    </g>
    <!-- Vertex Labels -->
    <g font-size="8" fill="darkblue">
      <text x="2.5" y="-2.5">V1</text>
      <text x="52.5" y="-2.5">V2</text>
      <text x="6.822727" y="-22.836832">V3</text>
      <text x="1.596304" y="-72.562927">V4</text>
      <text x="42.047154" y="-101.95219">V5</text>
      <text x="87.724427" y="-81.615357">V6</text>
      <text x="92.95085" y="-31.889263">V7</text>
      <text x="108.401699" y="-79.442088">V8</text>
      <text x="92.95085" y="-126.994914">V9</text>
      <text x="52.5" y="-156.384177">V10</text>
      <text x="2.5" y="-156.384177">V11</text>
      <text x="-37.95085" y="-126.994914">V12</text>
      <text x="-53.401699" y="-79.442088">V13</text>
      <text x="-37.95085" y="-31.889263">V14</text>
    </g>
    <!-- Face Labels -->
    <g font-size="6" fill="green" text-anchor="middle" dominant-baseline="middle">
      <text x="27.013615" y="-74.170585">F1</text>
    </g>
    <!-- Inner Angle Labels -->
    <g font-size="5" fill="purple" text-anchor="middle" dominant-baseline="middle">
      <text x="2.737748" y="-7.516963">144°</text>
      <text x="47.63182" y="-7.641448">24°</text>
      <text x="7.42998" y="-27.708737">240°</text>
      <text x="7.011088" y="-71.227481">240°</text>
      <text x="35.993794" y="-92.284649">240°</text>
      <text x="77.253135" y="-78.438228">240°</text>
      <text x="83.915209" y="-34.002872">24°</text>
      <text x="97.906632" y="-76.661205">144°</text>
      <text x="84.183447" y="-119.523026">144°</text>
      <text x="47.78342" y="-146.197385">144°</text>
      <text x="2.567637" y="-146.30742">144°</text>
      <text x="-34.03837" y="-119.7116">144°</text>
      <text x="-47.906165" y="-76.674832">144°</text>
      <text x="-33.78557" y="-33.813519">144°</text>
    </g>
    <!-- Outer Angle Labels -->
    <g font-size="5" fill="orange" text-anchor="middle" dominant-baseline="middle">
      <text x="-2.737748" y="7.516963">216°</text>
      <text x="-47.11613" y="-24.965007">216°</text>
      <text x="-63.897234" y="-77.209345">216°</text>
      <text x="-46.86333" y="-129.278229">216°</text>
      <text x="-2.567637" y="-161.460933">216°</text>
      <text x="52.21658" y="-161.570969">216°</text>
      <text x="96.718252" y="-129.466802">216°</text>
      <text x="113.896767" y="-77.222972">216°</text>
      <text x="96.986491" y="-24.775653">336°</text>
      <text x="93.195719" y="-79.792486">120°</text>
      <text x="43.100514" y="-106.61973">120°</text>
      <text x="-8.818481" y="-68.898372">120°</text>
      <text x="1.215475" y="-12.964927">120°</text>
      <text x="52.36818" y="7.641448">336°</text>
    </g>
  </g>
</svg>
