<svg width="158" height="108" viewBox="-88.30127 -88.30127 158.30127 108.30127" xmlns="http://www.w3.org/2000/svg">
    <g>
        <!-- Edges -->
        <g stroke-width="1.0" stroke="black">
            <line x1="0" y1="0" x2="50" y2="0"/>
            <line x1="50" y1="0" x2="25" y2="-43.30127"/>
            <line x1="25" y1="-43.30127" x2="0" y2="0"/>
            <line x1="0" y1="0" x2="-43.30127" y2="-25"/>
            <line x1="-43.30127" y1="-25" x2="-18.30127" y2="-68.30127"/>
            <line x1="-18.30127" y1="-68.30127" x2="25" y2="-43.30127"/>
            <line x1="-43.30127" y1="-25" x2="-68.30127" y2="-68.30127"/>
            <line x1="-68.30127" y1="-68.30127" x2="-18.30127" y2="-68.30127"/>
        </g>
        <!-- Boundary Highlight -->
        <g fill="none" stroke-width="3.0" stroke="red">
            <polygon points="0,0 -43.30127,-25 -68.30127,-68.30127 -18.30127,-68.30127 25,-43.30127 50,0"/>
        </g>
        <!-- Inner Face Half-Edge Direction Arrows -->
        <g stroke-width="0.5" stroke="blue" fill="blue">
            <polygon points="28,0 25,-1.2 25,1.2"/>
            <polygon points="36,-24.248711 36.46077,-21.050635 38.53923,-22.250635"/>
            <polygon points="11,-19.052559 13.53923,-21.050635 11.46077,-22.250635"/>
            <polygon points="14,-24.248711 11.46077,-22.250635 13.53923,-21.050635"/>
            <polygon points="0.751289,-57.30127 2.749365,-54.76204 3.949365,-56.840501"/>
            <polygon points="-32.30127,-44.052559 -29.76204,-46.050635 -31.840501,-47.250635"/>
            <polygon points="-19.052559,-11 -21.050635,-13.53923 -22.250635,-11.46077"/>
            <polygon points="-29.30127,-49.248711 -31.840501,-47.250635 -29.76204,-46.050635"/>
            <polygon points="-46.30127,-68.30127 -43.30127,-67.10127 -43.30127,-69.50127"/>
            <polygon points="-54.30127,-44.052559 -54.76204,-47.250635 -56.840501,-46.050635"/>
        </g>
        <!-- Outer Face Half-Edge Direction Arrows -->
        <g stroke-width="0.5" stroke="black" fill="black">
            <polygon points="-24.248711,-14 -22.250635,-11.46077 -21.050635,-13.53923"/>
            <polygon points="-57.30127,-49.248711 -56.840501,-46.050635 -54.76204,-47.250635"/>
            <polygon points="-40.30127,-68.30127 -43.30127,-69.50127 -43.30127,-67.10127"/>
            <polygon points="5.947441,-54.30127 3.949365,-56.840501 2.749365,-54.76204"/>
            <polygon points="39,-19.052559 38.53923,-22.250635 36.46077,-21.050635"/>
            <polygon points="22,-0 25,1.2 25,-1.2"/>
        </g>
        <!-- Vertices -->
        <g fill="red">
            <circle cx="0" cy="0" r="2.0"/>
            <circle cx="50" cy="0" r="2.0"/>
            <circle cx="25" cy="-43.30127" r="2.0"/>
            <circle cx="-43.30127" cy="-25" r="2.0"/>
            <circle cx="-18.30127" cy="-68.30127" r="2.0"/>
            <circle cx="-68.30127" cy="-68.30127" r="2.0"/>
        </g>
        <!-- Vertex Labels -->
        <g fill="darkblue" font-size="8">
            <text x="2.5" y="-2.5">V1</text>
            <text x="52.5" y="-2.5">V2</text>
            <text x="27.5" y="-45.80127">V3</text>
            <text x="-40.80127" y="-27.5">V4</text>
            <text x="-15.80127" y="-70.80127">V5</text>
            <text x="-65.80127" y="-70.80127">V6</text>
        </g>
        <!-- Face Labels -->
        <g dominant-baseline="middle" text-anchor="middle" fill="green" font-size="6">
            <text x="25" y="-14.433757">F1</text>
            <text x="-9.150635" y="-34.150635">F2</text>
            <text x="-43.30127" y="-53.867513">F3</text>
        </g>
        <!-- Inner Angle Labels -->
        <g dominant-baseline="middle" text-anchor="middle" fill="purple" font-size="5">
            <text x="6.928203" y="-4">60°</text>
            <text x="43.071797" y="-4">60°</text>
            <text x="25" y="-35.30127">60°</text>
            <text x="-2.070552" y="-7.727407">90°</text>
            <text x="17.272593" y="-41.230718">90°</text>
            <text x="-16.230718" y="-60.573864">90°</text>
            <text x="-35.573864" y="-27.070552">90°</text>
            <text x="-43.30127" y="-33">60°</text>
            <text x="-25.229473" y="-64.30127">60°</text>
            <text x="-61.373067" y="-64.30127">60°</text>
        </g>
        <!-- Outer Angle Labels -->
        <g dominant-baseline="middle" text-anchor="middle" fill="orange" font-size="5">
            <text x="-6.928203" y="4">210°</text>
            <text x="-51.207226" y="-26.223056">210°</text>
            <text x="-75.229473" y="-72.30127">300°</text>
            <text x="-23.313445" y="-74.536501">210°</text>
            <text x="25" y="-51.30127">210°</text>
            <text x="56.928203" y="4">300°</text>
        </g>
    </g>
</svg>
