<svg width="139" height="126" viewBox="-20 -63.30127 140 126.60254" xmlns="http://www.w3.org/2000/svg">
    <g>
        <!-- Edges -->
        <g stroke="black" stroke-width="1.0">
            <line x1="0" y1="0" x2="50" y2="0"/>
            <line x1="50" y1="0" x2="25" y2="-43.30127"/>
            <line x1="25" y1="-43.30127" x2="0" y2="0"/>
            <line x1="25" y1="-43.30127" x2="75" y2="-43.30127"/>
            <line x1="75" y1="-43.30127" x2="50" y2="0"/>
            <line x1="75" y1="-43.30127" x2="100" y2="0"/>
            <line x1="100" y1="0" x2="50" y2="0"/>
            <line x1="100" y1="0" x2="75" y2="43.30127"/>
            <line x1="75" y1="43.30127" x2="50" y2="0"/>
            <line x1="75" y1="43.30127" x2="25" y2="43.30127"/>
            <line x1="25" y1="43.30127" x2="50" y2="0"/>
            <line x1="25" y1="43.30127" x2="0" y2="0"/>
        </g>
        <!-- Boundary Highlight -->
        <g stroke="red" stroke-width="3.0" fill="none">
            <polygon points="0,0 25,-43.30127 75,-43.30127 100,0 75,43.30127 25,43.30127"/>
        </g>
        <!-- Inner Face Half-Edge Direction Arrows -->
        <g fill="blue" stroke="blue" stroke-width="0.5">
            <polygon points="28,0 25,-1.2 25,1.2"/>
            <polygon points="36,-24.248711 36.46077,-21.050635 38.53923,-22.250635"/>
            <polygon points="11,-19.052559 13.53923,-21.050635 11.46077,-22.250635"/>
            <polygon points="39,-19.052559 38.53923,-22.250635 36.46077,-21.050635"/>
            <polygon points="64,-24.248711 61.46077,-22.250635 63.53923,-21.050635"/>
            <polygon points="47,-43.30127 50,-42.10127 50,-44.50127"/>
            <polygon points="61,-19.052559 63.53923,-21.050635 61.46077,-22.250635"/>
            <polygon points="78,0 75,-1.2 75,1.2"/>
            <polygon points="86,-24.248711 86.46077,-21.050635 88.53923,-22.250635"/>
            <polygon points="72,0 75,1.2 75,-1.2"/>
            <polygon points="64,24.248711 63.53923,21.050635 61.46077,22.250635"/>
            <polygon points="89,19.052559 86.46077,21.050635 88.53923,22.250635"/>
            <polygon points="61,19.052559 61.46077,22.250635 63.53923,21.050635"/>
            <polygon points="36,24.248711 38.53923,22.250635 36.46077,21.050635"/>
            <polygon points="53,43.30127 50,42.10127 50,44.50127"/>
            <polygon points="39,19.052559 36.46077,21.050635 38.53923,22.250635"/>
            <polygon points="22,-0 25,1.2 25,-1.2"/>
            <polygon points="14,24.248711 13.53923,21.050635 11.46077,22.250635"/>
        </g>
        <!-- Outer Face Half-Edge Direction Arrows -->
        <g fill="black" stroke="black" stroke-width="0.5">
            <polygon points="14,-24.248711 11.46077,-22.250635 13.53923,-21.050635"/>
            <polygon points="53,-43.30127 50,-44.50127 50,-42.10127"/>
            <polygon points="89,-19.052559 88.53923,-22.250635 86.46077,-21.050635"/>
            <polygon points="86,24.248711 88.53923,22.250635 86.46077,21.050635"/>
            <polygon points="47,43.30127 50,44.50127 50,42.10127"/>
            <polygon points="11,19.052559 11.46077,22.250635 13.53923,21.050635"/>
        </g>
        <!-- Vertices -->
        <g fill="red">
            <circle cx="0" cy="0" r="2.0"/>
            <circle cx="50" cy="0" r="2.0"/>
            <circle cx="25" cy="-43.30127" r="2.0"/>
            <circle cx="75" cy="-43.30127" r="2.0"/>
            <circle cx="100" cy="0" r="2.0"/>
            <circle cx="75" cy="43.30127" r="2.0"/>
            <circle cx="25" cy="43.30127" r="2.0"/>
        </g>
        <!-- Vertex Labels -->
        <g font-size="8" fill="darkblue">
            <text x="2.5" y="-2.5">V1</text>
            <text x="52.5" y="-2.5">V2</text>
            <text x="27.5" y="-45.80127">V3</text>
            <text x="77.5" y="-45.80127">V4</text>
            <text x="102.5" y="-2.5">V5</text>
            <text x="77.5" y="40.80127">V6</text>
            <text x="27.5" y="40.80127">V7</text>
        </g>
        <!-- Face Labels -->
        <g font-size="6" fill="green" text-anchor="middle" dominant-baseline="middle">
            <text x="25" y="-14.433757">F1</text>
            <text x="50" y="-28.867513">F2</text>
            <text x="75" y="-14.433757">F3</text>
            <text x="75" y="14.433757">F4</text>
            <text x="50" y="28.867513">F5</text>
            <text x="25" y="14.433757">F6</text>
        </g>
        <!-- Inner Angle Labels -->
        <g font-size="5" fill="purple" text-anchor="middle" dominant-baseline="middle">
            <text x="6.928203" y="-4">60°</text>
            <text x="43.071797" y="-4">60°</text>
            <text x="25" y="-35.30127">60°</text>
            <text x="31.928203" y="-39.30127">60°</text>
            <text x="50" y="-8">60°</text>
            <text x="68.071797" y="-39.30127">60°</text>
            <text x="75" y="-35.30127">60°</text>
            <text x="56.928203" y="-4">60°</text>
            <text x="93.071797" y="-4">60°</text>
            <text x="93.071797" y="4">60°</text>
            <text x="56.928203" y="4">60°</text>
            <text x="75" y="35.30127">60°</text>
            <text x="68.071797" y="39.30127">60°</text>
            <text x="50" y="8">60°</text>
            <text x="31.928203" y="39.30127">60°</text>
            <text x="25" y="35.30127">60°</text>
            <text x="43.071797" y="4">60°</text>
            <text x="6.928203" y="4">60°</text>
        </g>
        <!-- Outer Angle Labels -->
        <g font-size="5" fill="orange" text-anchor="middle" dominant-baseline="middle">
            <text x="-6.928203" y="4">240°</text>
            <text x="25" y="-51.30127">240°</text>
            <text x="81.928203" y="-47.30127">240°</text>
            <text x="107.855844" y="1.511858">240°</text>
            <text x="80.237229" y="49.348702">240°</text>
            <text x="25" y="51.30127">240°</text>
        </g>
    </g>
</svg>
