<svg
        width="452" height="452" viewBox="-55.355339 -346.776695 452.132034 452.132034" xmlns="http://www.w3.org/2000/svg">
    <g>
        <!-- Edges -->
        <g stroke="black" stroke-width="1.0">
            <line x1="0" y1="0" x2="50" y2="0"/>
            <line x1="50" y1="0" x2="85.355339" y2="-35.355339"/>
            <line x1="85.355339" y1="-35.355339" x2="85.355339" y2="-85.355339"/>
            <line x1="85.355339" y1="-85.355339" x2="50" y2="-120.710678"/>
            <line x1="50" y1="-120.710678" x2="0" y2="-120.710678"/>
            <line x1="0" y1="-120.710678" x2="-35.355339" y2="-85.355339"/>
            <line x1="-35.355339" y1="-85.355339" x2="-35.355339" y2="-35.355339"/>
            <line x1="-35.355339" y1="-35.355339" x2="0" y2="0"/>
            <line x1="0" y1="-120.710678" x2="-35.355339" y2="-156.066017"/>
            <line x1="-35.355339" y1="-156.066017" x2="-35.355339" y2="-206.066017"/>
            <line x1="-35.355339" y1="-206.066017" x2="0" y2="-241.421356"/>
            <line x1="0" y1="-241.421356" x2="50" y2="-241.421356"/>
            <line x1="50" y1="-241.421356" x2="85.355339" y2="-206.066017"/>
            <line x1="85.355339" y1="-206.066017" x2="85.355339" y2="-156.066017"/>
            <line x1="85.355339" y1="-156.066017" x2="50" y2="-120.710678"/>
            <line x1="50" y1="-241.421356" x2="50" y2="-291.421356"/>
            <line x1="50" y1="-291.421356" x2="85.355339" y2="-326.776695"/>
            <line x1="85.355339" y1="-326.776695" x2="135.355339" y2="-326.776695"/>
            <line x1="135.355339" y1="-326.776695" x2="170.710678" y2="-291.421356"/>
            <line x1="170.710678" y1="-291.421356" x2="170.710678" y2="-241.421356"/>
            <line x1="170.710678" y1="-241.421356" x2="135.355339" y2="-206.066017"/>
            <line x1="135.355339" y1="-206.066017" x2="85.355339" y2="-206.066017"/>
            <line x1="170.710678" y1="-291.421356" x2="206.066017" y2="-326.776695"/>
            <line x1="206.066017" y1="-326.776695" x2="256.066017" y2="-326.776695"/>
            <line x1="256.066017" y1="-326.776695" x2="291.421356" y2="-291.421356"/>
            <line x1="291.421356" y1="-291.421356" x2="291.421356" y2="-241.421356"/>
            <line x1="291.421356" y1="-241.421356" x2="256.066017" y2="-206.066017"/>
            <line x1="256.066017" y1="-206.066017" x2="206.066017" y2="-206.066017"/>
            <line x1="206.066017" y1="-206.066017" x2="170.710678" y2="-241.421356"/>
            <line x1="291.421356" y1="-241.421356" x2="341.421356" y2="-241.421356"/>
            <line x1="341.421356" y1="-241.421356" x2="376.776695" y2="-206.066017"/>
            <line x1="376.776695" y1="-206.066017" x2="376.776695" y2="-156.066017"/>
            <line x1="376.776695" y1="-156.066017" x2="341.421356" y2="-120.710678"/>
            <line x1="341.421356" y1="-120.710678" x2="291.421356" y2="-120.710678"/>
            <line x1="291.421356" y1="-120.710678" x2="256.066017" y2="-156.066017"/>
            <line x1="256.066017" y1="-156.066017" x2="256.066017" y2="-206.066017"/>
            <line x1="341.421356" y1="-120.710678" x2="376.776695" y2="-85.355339"/>
            <line x1="376.776695" y1="-85.355339" x2="376.776695" y2="-35.355339"/>
            <line x1="376.776695" y1="-35.355339" x2="341.421356" y2="0"/>
            <line x1="341.421356" y1="0" x2="291.421356" y2="0"/>
            <line x1="291.421356" y1="0" x2="256.066017" y2="-35.355339"/>
            <line x1="256.066017" y1="-35.355339" x2="256.066017" y2="-85.355339"/>
            <line x1="256.066017" y1="-85.355339" x2="291.421356" y2="-120.710678"/>
            <line x1="291.421356" y1="0" x2="291.421356" y2="50"/>
            <line x1="291.421356" y1="50" x2="256.066017" y2="85.355339"/>
            <line x1="256.066017" y1="85.355339" x2="206.066017" y2="85.355339"/>
            <line x1="206.066017" y1="85.355339" x2="170.710678" y2="50"/>
            <line x1="170.710678" y1="50" x2="170.710678" y2="-0"/>
            <line x1="170.710678" y1="-0" x2="206.066017" y2="-35.355339"/>
            <line x1="206.066017" y1="-35.355339" x2="256.066017" y2="-35.355339"/>
            <line x1="170.710678" y1="-0" x2="135.355339" y2="-35.355339"/>
            <line x1="135.355339" y1="-35.355339" x2="85.355339" y2="-35.355339"/>
            <line x1="170.710678" y1="50" x2="135.355339" y2="85.355339"/>
            <line x1="135.355339" y1="85.355339" x2="85.355339" y2="85.355339"/>
            <line x1="85.355339" y1="85.355339" x2="50" y2="50"/>
            <line x1="50" y1="50" x2="50" y2="0"/>
        </g>
        <!-- Boundary Highlight -->
        <g stroke="red" stroke-width="3.0" fill="none">
            <polygon
                    points="0,0 -35.355339,-35.355339 -35.355339,-85.355339 0,-120.710678 -35.355339,-156.066017 -35.355339,-206.066017 0,-241.421356 50,-241.421356 50,-291.421356 85.355339,-326.776695 135.355339,-326.776695 170.710678,-291.421356 206.066017,-326.776695 256.066017,-326.776695 291.421356,-291.421356 291.421356,-241.421356 341.421356,-241.421356 376.776695,-206.066017 376.776695,-156.066017 341.421356,-120.710678 376.776695,-85.355339 376.776695,-35.355339 341.421356,0 291.421356,0 291.421356,50 256.066017,85.355339 206.066017,85.355339 170.710678,50 135.355339,85.355339 85.355339,85.355339 50,50 50,0">
            </polygon>
        </g>
        <!-- Inner Face Half-Edge Direction Arrows -->
        <g fill="blue" stroke="blue" stroke-width="0.5">
            <polygon points="28,0 25,-1.2 25,1.2"/>
            <polygon points="69.79899,-19.79899 66.829141,-18.526198 68.526198,-16.829141"/>
            <polygon points="85.355339,-63.355339 84.155339,-60.355339 86.555339,-60.355339"/>
            <polygon points="65.556349,-105.154329 66.829141,-102.18448 68.526198,-103.881537"/>
            <polygon points="22,-120.710678 25,-119.510678 25,-121.910678"/>
            <polygon points="-19.79899,-100.911688 -16.829141,-102.18448 -18.526198,-103.881537"/>
            <polygon points="-35.355339,-57.355339 -34.155339,-60.355339 -36.555339,-60.355339"/>
            <polygon points="-15.556349,-15.556349 -16.829141,-18.526198 -18.526198,-16.829141"/>
            <polygon points="28,-120.710678 25,-121.910678 25,-119.510678"/>
            <polygon points="69.79899,-140.509668 66.829141,-139.236876 68.526198,-137.53982"/>
            <polygon points="85.355339,-184.066017 84.155339,-181.066017 86.555339,-181.066017"/>
            <polygon points="65.556349,-225.865007 66.829141,-222.895159 68.526198,-224.592215"/>
            <polygon points="22,-241.421356 25,-240.221356 25,-242.621356"/>
            <polygon points="-19.79899,-221.622366 -16.829141,-222.895159 -18.526198,-224.592215"/>
            <polygon points="-35.355339,-178.066017 -34.155339,-181.066017 -36.555339,-181.066017"/>
            <polygon points="-15.556349,-136.267027 -16.829141,-139.236876 -18.526198,-137.53982"/>
            <polygon points="69.79899,-221.622366 68.526198,-224.592215 66.829141,-222.895159"/>
            <polygon points="113.355339,-206.066017 110.355339,-207.266017 110.355339,-204.866017"/>
            <polygon points="155.154329,-225.865007 152.18448,-224.592215 153.881537,-222.895159"/>
            <polygon points="170.710678,-269.421356 169.510678,-266.421356 171.910678,-266.421356"/>
            <polygon points="150.911688,-311.220346 152.18448,-308.250498 153.881537,-309.947554"/>
            <polygon points="107.355339,-326.776695 110.355339,-325.576695 110.355339,-327.976695"/>
            <polygon points="65.556349,-306.977705 68.526198,-308.250498 66.829141,-309.947554"/>
            <polygon points="50,-263.421356 51.2,-266.421356 48.8,-266.421356"/>
            <polygon points="170.710678,-263.421356 171.910678,-266.421356 169.510678,-266.421356"/>
            <polygon points="190.509668,-221.622366 189.236876,-224.592215 187.53982,-222.895159"/>
            <polygon points="234.066017,-206.066017 231.066017,-207.266017 231.066017,-204.866017"/>
            <polygon points="275.865007,-225.865007 272.895159,-224.592215 274.592215,-222.895159"/>
            <polygon points="291.421356,-269.421356 290.221356,-266.421356 292.621356,-266.421356"/>
            <polygon points="271.622366,-311.220346 272.895159,-308.250498 274.592215,-309.947554"/>
            <polygon points="228.066017,-326.776695 231.066017,-325.576695 231.066017,-327.976695"/>
            <polygon points="186.267027,-306.977705 189.236876,-308.250498 187.53982,-309.947554"/>
            <polygon points="271.622366,-221.622366 274.592215,-222.895159 272.895159,-224.592215"/>
            <polygon points="256.066017,-178.066017 257.266017,-181.066017 254.866017,-181.066017"/>
            <polygon points="275.865007,-136.267027 274.592215,-139.236876 272.895159,-137.53982"/>
            <polygon points="319.421356,-120.710678 316.421356,-121.910678 316.421356,-119.510678"/>
            <polygon points="361.220346,-140.509668 358.250498,-139.236876 359.947554,-137.53982"/>
            <polygon points="376.776695,-184.066017 375.576695,-181.066017 377.976695,-181.066017"/>
            <polygon points="356.977705,-225.865007 358.250498,-222.895159 359.947554,-224.592215"/>
            <polygon points="313.421356,-241.421356 316.421356,-240.221356 316.421356,-242.621356"/>
            <polygon points="313.421356,-120.710678 316.421356,-119.510678 316.421356,-121.910678"/>
            <polygon points="271.622366,-100.911688 274.592215,-102.18448 272.895159,-103.881537"/>
            <polygon points="256.066017,-57.355339 257.266017,-60.355339 254.866017,-60.355339"/>
            <polygon points="275.865007,-15.556349 274.592215,-18.526198 272.895159,-16.829141"/>
            <polygon points="319.421356,0 316.421356,-1.2 316.421356,1.2"/>
            <polygon points="361.220346,-19.79899 358.250498,-18.526198 359.947554,-16.829141"/>
            <polygon points="376.776695,-63.355339 375.576695,-60.355339 377.976695,-60.355339"/>
            <polygon points="356.977705,-105.154329 358.250498,-102.18448 359.947554,-103.881537"/>
            <polygon points="271.622366,-19.79899 272.895159,-16.829141 274.592215,-18.526198"/>
            <polygon points="228.066017,-35.355339 231.066017,-34.155339 231.066017,-36.555339"/>
            <polygon points="186.267027,-15.556349 189.236876,-16.829141 187.53982,-18.526198"/>
            <polygon points="170.710678,28 171.910678,25 169.510678,25"/>
            <polygon points="190.509668,69.79899 189.236876,66.829141 187.53982,68.526198"/>
            <polygon points="234.066017,85.355339 231.066017,84.155339 231.066017,86.555339"/>
            <polygon points="275.865007,65.556349 272.895159,66.829141 274.592215,68.526198"/>
            <polygon points="291.421356,22 290.221356,25 292.621356,25"/>
            <polygon points="85.355339,-57.355339 86.555339,-60.355339 84.155339,-60.355339"/>
            <polygon points="113.355339,-35.355339 110.355339,-36.555339 110.355339,-34.155339"/>
            <polygon points="155.154329,-15.556349 153.881537,-18.526198 152.18448,-16.829141"/>
            <polygon points="190.509668,-19.79899 187.53982,-18.526198 189.236876,-16.829141"/>
            <polygon points="234.066017,-35.355339 231.066017,-36.555339 231.066017,-34.155339"/>
            <polygon points="256.066017,-63.355339 254.866017,-60.355339 257.266017,-60.355339"/>
            <polygon points="275.865007,-105.154329 272.895159,-103.881537 274.592215,-102.18448"/>
            <polygon points="271.622366,-140.509668 272.895159,-137.53982 274.592215,-139.236876"/>
            <polygon points="256.066017,-184.066017 254.866017,-181.066017 257.266017,-181.066017"/>
            <polygon points="228.066017,-206.066017 231.066017,-204.866017 231.066017,-207.266017"/>
            <polygon points="186.267027,-225.865007 187.53982,-222.895159 189.236876,-224.592215"/>
            <polygon points="150.911688,-221.622366 153.881537,-222.895159 152.18448,-224.592215"/>
            <polygon points="107.355339,-206.066017 110.355339,-204.866017 110.355339,-207.266017"/>
            <polygon points="85.355339,-178.066017 86.555339,-181.066017 84.155339,-181.066017"/>
            <polygon points="65.556349,-136.267027 68.526198,-137.53982 66.829141,-139.236876"/>
            <polygon points="69.79899,-100.911688 68.526198,-103.881537 66.829141,-102.18448"/>
            <polygon points="170.710678,22 169.510678,25 171.910678,25"/>
            <polygon points="150.911688,-19.79899 152.18448,-16.829141 153.881537,-18.526198"/>
            <polygon points="107.355339,-35.355339 110.355339,-34.155339 110.355339,-36.555339"/>
            <polygon points="65.556349,-15.556349 68.526198,-16.829141 66.829141,-18.526198"/>
            <polygon points="50,28 51.2,25 48.8,25"/>
            <polygon points="69.79899,69.79899 68.526198,66.829141 66.829141,68.526198"/>
            <polygon points="113.355339,85.355339 110.355339,84.155339 110.355339,86.555339"/>
            <polygon points="155.154329,65.556349 152.18448,66.829141 153.881537,68.526198"/>
        </g>
        <!-- Outer Face Half-Edge Direction Arrows -->
        <g fill="black" stroke="black" stroke-width="0.5">
            <polygon points="-19.79899,-19.79899 -18.526198,-16.829141 -16.829141,-18.526198"/>
            <polygon points="-35.355339,-63.355339 -36.555339,-60.355339 -34.155339,-60.355339"/>
            <polygon points="-15.556349,-105.154329 -18.526198,-103.881537 -16.829141,-102.18448"/>
            <polygon points="-19.79899,-140.509668 -18.526198,-137.53982 -16.829141,-139.236876"/>
            <polygon points="-35.355339,-184.066017 -36.555339,-181.066017 -34.155339,-181.066017"/>
            <polygon points="-15.556349,-225.865007 -18.526198,-224.592215 -16.829141,-222.895159"/>
            <polygon points="28,-241.421356 25,-242.621356 25,-240.221356"/>
            <polygon points="50,-269.421356 48.8,-266.421356 51.2,-266.421356"/>
            <polygon points="69.79899,-311.220346 66.829141,-309.947554 68.526198,-308.250498"/>
            <polygon points="113.355339,-326.776695 110.355339,-327.976695 110.355339,-325.576695"/>
            <polygon points="155.154329,-306.977705 153.881537,-309.947554 152.18448,-308.250498"/>
            <polygon points="190.509668,-311.220346 187.53982,-309.947554 189.236876,-308.250498"/>
            <polygon points="234.066017,-326.776695 231.066017,-327.976695 231.066017,-325.576695"/>
            <polygon points="275.865007,-306.977705 274.592215,-309.947554 272.895159,-308.250498"/>
            <polygon points="291.421356,-263.421356 292.621356,-266.421356 290.221356,-266.421356"/>
            <polygon points="319.421356,-241.421356 316.421356,-242.621356 316.421356,-240.221356"/>
            <polygon points="361.220346,-221.622366 359.947554,-224.592215 358.250498,-222.895159"/>
            <polygon points="376.776695,-178.066017 377.976695,-181.066017 375.576695,-181.066017"/>
            <polygon points="356.977705,-136.267027 359.947554,-137.53982 358.250498,-139.236876"/>
            <polygon points="361.220346,-100.911688 359.947554,-103.881537 358.250498,-102.18448"/>
            <polygon points="376.776695,-57.355339 377.976695,-60.355339 375.576695,-60.355339"/>
            <polygon points="356.977705,-15.556349 359.947554,-16.829141 358.250498,-18.526198"/>
            <polygon points="313.421356,0 316.421356,1.2 316.421356,-1.2"/>
            <polygon points="291.421356,28 292.621356,25 290.221356,25"/>
            <polygon points="271.622366,69.79899 274.592215,68.526198 272.895159,66.829141"/>
            <polygon points="228.066017,85.355339 231.066017,86.555339 231.066017,84.155339"/>
            <polygon points="186.267027,65.556349 187.53982,68.526198 189.236876,66.829141"/>
            <polygon points="150.911688,69.79899 153.881537,68.526198 152.18448,66.829141"/>
            <polygon points="107.355339,85.355339 110.355339,86.555339 110.355339,84.155339"/>
            <polygon points="65.556349,65.556349 66.829141,68.526198 68.526198,66.829141"/>
            <polygon points="50,22 48.8,25 51.2,25"/>
            <polygon points="22,-0 25,1.2 25,-1.2"/>
        </g>
        <!-- Vertices -->
        <g fill="red">
            <circle cx="0" cy="0" r="2.0"/>
            <circle cx="50" cy="0" r="2.0"/>
            <circle cx="85.355339" cy="-35.355339" r="2.0"/>
            <circle cx="85.355339" cy="-85.355339" r="2.0"/>
            <circle cx="50" cy="-120.710678" r="2.0"/>
            <circle cx="0" cy="-120.710678" r="2.0"/>
            <circle cx="-35.355339" cy="-85.355339" r="2.0"/>
            <circle cx="-35.355339" cy="-35.355339" r="2.0"/>
            <circle cx="-35.355339" cy="-156.066017" r="2.0"/>
            <circle cx="-35.355339" cy="-206.066017" r="2.0"/>
            <circle cx="0" cy="-241.421356" r="2.0"/>
            <circle cx="50" cy="-241.421356" r="2.0"/>
            <circle cx="85.355339" cy="-206.066017" r="2.0"/>
            <circle cx="85.355339" cy="-156.066017" r="2.0"/>
            <circle cx="50" cy="-291.421356" r="2.0"/>
            <circle cx="85.355339" cy="-326.776695" r="2.0"/>
            <circle cx="135.355339" cy="-326.776695" r="2.0"/>
            <circle cx="170.710678" cy="-291.421356" r="2.0"/>
            <circle cx="170.710678" cy="-241.421356" r="2.0"/>
            <circle cx="135.355339" cy="-206.066017" r="2.0"/>
            <circle cx="206.066017" cy="-326.776695" r="2.0"/>
            <circle cx="256.066017" cy="-326.776695" r="2.0"/>
            <circle cx="291.421356" cy="-291.421356" r="2.0"/>
            <circle cx="291.421356" cy="-241.421356" r="2.0"/>
            <circle cx="256.066017" cy="-206.066017" r="2.0"/>
            <circle cx="206.066017" cy="-206.066017" r="2.0"/>
            <circle cx="341.421356" cy="-241.421356" r="2.0"/>
            <circle cx="376.776695" cy="-206.066017" r="2.0"/>
            <circle cx="376.776695" cy="-156.066017" r="2.0"/>
            <circle cx="341.421356" cy="-120.710678" r="2.0"/>
            <circle cx="291.421356" cy="-120.710678" r="2.0"/>
            <circle cx="256.066017" cy="-156.066017" r="2.0"/>
            <circle cx="376.776695" cy="-85.355339" r="2.0"/>
            <circle cx="376.776695" cy="-35.355339" r="2.0"/>
            <circle cx="341.421356" cy="0" r="2.0"/>
            <circle cx="291.421356" cy="0" r="2.0"/>
            <circle cx="256.066017" cy="-35.355339" r="2.0"/>
            <circle cx="256.066017" cy="-85.355339" r="2.0"/>
            <circle cx="291.421356" cy="50" r="2.0"/>
            <circle cx="256.066017" cy="85.355339" r="2.0"/>
            <circle cx="206.066017" cy="85.355339" r="2.0"/>
            <circle cx="170.710678" cy="50" r="2.0"/>
            <circle cx="170.710678" cy="-0" r="2.0"/>
            <circle cx="206.066017" cy="-35.355339" r="2.0"/>
            <circle cx="135.355339" cy="-35.355339" r="2.0"/>
            <circle cx="135.355339" cy="85.355339" r="2.0"/>
            <circle cx="85.355339" cy="85.355339" r="2.0"/>
            <circle cx="50" cy="50" r="2.0"/>
        </g>
        <!-- Vertex Labels -->
        <g font-size="8" fill="darkblue">
            <text x="2.5" y="-2.5">V1</text>
            <text x="52.5" y="-2.5">V2</text>
            <text x="87.855339" y="-37.855339">V3</text>
            <text x="87.855339" y="-87.855339">V4</text>
            <text x="52.5" y="-123.210678">V5</text>
            <text x="2.5" y="-123.210678">V6</text>
            <text x="-32.855339" y="-87.855339">V7</text>
            <text x="-32.855339" y="-37.855339">V8</text>
            <text x="-32.855339" y="-158.566017">V9</text>
            <text x="-32.855339" y="-208.566017">V10</text>
            <text x="2.5" y="-243.921356">V11</text>
            <text x="52.5" y="-243.921356">V12</text>
            <text x="87.855339" y="-208.566017">V13</text>
            <text x="87.855339" y="-158.566017">V14</text>
            <text x="52.5" y="-293.921356">V15</text>
            <text x="87.855339" y="-329.276695">V16</text>
            <text x="137.855339" y="-329.276695">V17</text>
            <text x="173.210678" y="-293.921356">V18</text>
            <text x="173.210678" y="-243.921356">V19</text>
            <text x="137.855339" y="-208.566017">V20</text>
            <text x="208.566017" y="-329.276695">V21</text>
            <text x="258.566017" y="-329.276695">V22</text>
            <text x="293.921356" y="-293.921356">V23</text>
            <text x="293.921356" y="-243.921356">V24</text>
            <text x="258.566017" y="-208.566017">V25</text>
            <text x="208.566017" y="-208.566017">V26</text>
            <text x="343.921356" y="-243.921356">V27</text>
            <text x="379.276695" y="-208.566017">V28</text>
            <text x="379.276695" y="-158.566017">V29</text>
            <text x="343.921356" y="-123.210678">V30</text>
            <text x="293.921356" y="-123.210678">V31</text>
            <text x="258.566017" y="-158.566017">V32</text>
            <text x="379.276695" y="-87.855339">V33</text>
            <text x="379.276695" y="-37.855339">V34</text>
            <text x="343.921356" y="-2.5">V35</text>
            <text x="293.921356" y="-2.5">V36</text>
            <text x="258.566017" y="-37.855339">V37</text>
            <text x="258.566017" y="-87.855339">V38</text>
            <text x="293.921356" y="47.5">V39</text>
            <text x="258.566017" y="82.855339">V40</text>
            <text x="208.566017" y="82.855339">V41</text>
            <text x="173.210678" y="47.5">V42</text>
            <text x="173.210678" y="-2.5">V43</text>
            <text x="208.566017" y="-37.855339">V44</text>
            <text x="137.855339" y="-37.855339">V45</text>
            <text x="137.855339" y="82.855339">V46</text>
            <text x="87.855339" y="82.855339">V47</text>
            <text x="52.5" y="47.5">V48</text>
        </g>
        <!-- Face Labels -->
        <g font-size="6" fill="green" text-anchor="middle" dominant-baseline="middle">
            <text x="25" y="-60.355339">F1</text>
            <text x="25" y="-181.066017">F2</text>
            <text x="110.355339" y="-266.421356">F3</text>
            <text x="231.066017" y="-266.421356">F4</text>
            <text x="316.421356" y="-181.066017">F5</text>
            <text x="316.421356" y="-60.355339">F6</text>
            <text x="231.066017" y="25">F7</text>
            <text x="170.710678" y="-120.710678">F8</text>
            <text x="110.355339" y="25">F9</text>
        </g>
        <!-- Inner Angle Labels -->
        <g font-size="5" fill="purple" text-anchor="middle" dominant-baseline="middle">
            <text x="3.061467" y="-7.391036">135°</text>
            <text x="46.938533" y="-7.391036">135°</text>
            <text x="77.964303" y="-38.416807">135°</text>
            <text x="77.964303" y="-82.293872">135°</text>
            <text x="46.938533" y="-113.319642">135°</text>
            <text x="3.061467" y="-113.319642">135°</text>
            <text x="-27.964303" y="-82.293872">135°</text>
            <text x="-27.964303" y="-38.416807">135°</text>
            <text x="3.061467" y="-128.101714">135°</text>
            <text x="46.938533" y="-128.101714">135°</text>
            <text x="77.964303" y="-159.127485">135°</text>
            <text x="77.964303" y="-203.00455">135°</text>
            <text x="46.938533" y="-234.03032">135°</text>
            <text x="3.061467" y="-234.03032">135°</text>
            <text x="-27.964303" y="-203.00455">135°</text>
            <text x="-27.964303" y="-159.127485">135°</text>
            <text x="57.391036" y="-244.482824">135°</text>
            <text x="88.416807" y="-213.457053">135°</text>
            <text x="132.293872" y="-213.457053">135°</text>
            <text x="163.319642" y="-244.482824">135°</text>
            <text x="163.319642" y="-288.359889">135°</text>
            <text x="132.293872" y="-319.385659">135°</text>
            <text x="88.416807" y="-319.385659">135°</text>
            <text x="57.391036" y="-288.359889">135°</text>
            <text x="178.101714" y="-288.359889">135°</text>
            <text x="178.101714" y="-244.482824">135°</text>
            <text x="209.127485" y="-213.457053">135°</text>
            <text x="253.00455" y="-213.457053">135°</text>
            <text x="284.03032" y="-244.482824">135°</text>
            <text x="284.03032" y="-288.359889">135°</text>
            <text x="253.00455" y="-319.385659">135°</text>
            <text x="209.127485" y="-319.385659">135°</text>
            <text x="294.482824" y="-234.03032">135°</text>
            <text x="263.457053" y="-203.00455">135°</text>
            <text x="263.457053" y="-159.127485">135°</text>
            <text x="294.482824" y="-128.101714">135°</text>
            <text x="338.359889" y="-128.101714">135°</text>
            <text x="369.385659" y="-159.127485">135°</text>
            <text x="369.385659" y="-203.00455">135°</text>
            <text x="338.359889" y="-234.03032">135°</text>
            <text x="338.359889" y="-113.319642">135°</text>
            <text x="294.482824" y="-113.319642">135°</text>
            <text x="263.457053" y="-82.293872">135°</text>
            <text x="263.457053" y="-38.416807">135°</text>
            <text x="294.482824" y="-7.391036">135°</text>
            <text x="338.359889" y="-7.391036">135°</text>
            <text x="369.385659" y="-38.416807">135°</text>
            <text x="369.385659" y="-82.293872">135°</text>
            <text x="284.03032" y="3.061467">135°</text>
            <text x="253.00455" y="-27.964303">135°</text>
            <text x="209.127485" y="-27.964303">135°</text>
            <text x="178.101714" y="3.061467">135°</text>
            <text x="178.101714" y="46.938533">135°</text>
            <text x="209.127485" y="77.964303">135°</text>
            <text x="253.00455" y="77.964303">135°</text>
            <text x="284.03032" y="46.938533">135°</text>
            <text x="92.746375" y="-88.416807">225°</text>
            <text x="91.012193" y="-41.012193">90°</text>
            <text x="138.416807" y="-42.746375">225°</text>
            <text x="170.710678" y="-8">90°</text>
            <text x="203.00455" y="-42.746375">225°</text>
            <text x="250.409163" y="-41.012193">90°</text>
            <text x="248.674981" y="-88.416807">225°</text>
            <text x="283.421356" y="-120.710678">90°</text>
            <text x="248.674981" y="-153.00455">225°</text>
            <text x="250.409163" y="-200.409163">90°</text>
            <text x="203.00455" y="-198.674981">225°</text>
            <text x="170.710678" y="-233.421356">90°</text>
            <text x="138.416807" y="-198.674981">225°</text>
            <text x="91.012193" y="-200.409163">90°</text>
            <text x="92.746375" y="-153.00455">225°</text>
            <text x="58" y="-120.710678">90°</text>
            <text x="163.319642" y="46.938533">135°</text>
            <text x="163.319642" y="3.061467">135°</text>
            <text x="132.293872" y="-27.964303">135°</text>
            <text x="88.416807" y="-27.964303">135°</text>
            <text x="57.391036" y="3.061467">135°</text>
            <text x="57.391036" y="46.938533">135°</text>
            <text x="88.416807" y="77.964303">135°</text>
            <text x="132.293872" y="77.964303">135°</text>
        </g>
        <!-- Outer Angle Labels -->
        <g font-size="5" fill="orange" text-anchor="middle" dominant-baseline="middle">
            <text x="-3.061467" y="7.391036">225°</text>
            <text x="-42.746375" y="-32.293872">225°</text>
            <text x="-42.746375" y="-88.416807">225°</text>
            <text x="-3.061467" y="-128.101714">90°</text>
            <text x="-39.622556" y="-162.832912">225°</text>
            <text x="-38.416807" y="-213.457053">225°</text>
            <text x="-1.094189" y="-249.346175">225°</text>
            <text x="51.094189" y="-249.346175">90°</text>
            <text x="50.860531" y="-299.374939">225°</text>
            <text x="87.122878" y="-334.57899">225°</text>
            <text x="138.416807" y="-334.167732">225°</text>
            <text x="174.977895" y="-298.188251">90°</text>
            <text x="210.56279" y="-333.393268">225°</text>
            <text x="261.307631" y="-332.820327">225°</text>
            <text x="297.464988" y="-296.66297">225°</text>
            <text x="298.037929" y="-245.918129">90°</text>
            <text x="348.364901" y="-245.394666">225°</text>
            <text x="384.167732" y="-209.127485">225°</text>
            <text x="384.496077" y="-158.166291">225°</text>
            <text x="349.279678" y="-122.209603">90°</text>
            <text x="384.756569" y="-85.922451">225°</text>
            <text x="384.756569" y="-34.788227">225°</text>
            <text x="349.279678" y="1.498924">225°</text>
            <text x="299.223651" y="1.767539">90°</text>
            <text x="298.812392" y="53.061467">225°</text>
            <text x="262.832912" y="89.622556">225°</text>
            <text x="212.298537" y="90.370884">225°</text>
            <text x="177.08808" y="54.829984">90°</text>
            <text x="140.185324" y="91.732741">225°</text>
            <text x="88.416807" y="92.746375">225°</text>
            <text x="51.767539" y="57.802295">225°</text>
            <text x="53.061467" y="7.391036">90°</text>
        </g>
    </g>
</svg>