<svg
        width="963" height="977" viewBox="-66.984631 -488.647407 963.055199 977.294813" xmlns="http://www.w3.org/2000/svg">
    <g>
        <!-- Edges -->
        <g stroke="black" stroke-width="1.0">
            <line x1="0" y1="0" x2="50" y2="0"/>
            <line x1="50" y1="0" x2="88.302222" y2="-32.13938"/>
            <line x1="88.302222" y1="-32.13938" x2="96.984631" y2="-81.379768"/>
            <line x1="96.984631" y1="-81.379768" x2="71.984631" y2="-124.681038"/>
            <line x1="71.984631" y1="-124.681038" x2="25" y2="-141.782045"/>
            <line x1="25" y1="-141.782045" x2="-21.984631" y2="-124.681038"/>
            <line x1="-21.984631" y1="-124.681038" x2="-46.984631" y2="-81.379768"/>
            <line x1="-46.984631" y1="-81.379768" x2="-38.302222" y2="-32.13938"/>
            <line x1="-38.302222" y1="-32.13938" x2="0" y2="0"/>
            <line x1="25" y1="-141.782045" x2="0" y2="-185.083316"/>
            <line x1="0" y1="-185.083316" x2="8.682409" y2="-234.323703"/>
            <line x1="8.682409" y1="-234.323703" x2="46.984631" y2="-266.463084"/>
            <line x1="46.984631" y1="-266.463084" x2="96.984631" y2="-266.463084"/>
            <line x1="96.984631" y1="-266.463084" x2="135.286853" y2="-234.323703"/>
            <line x1="135.286853" y1="-234.323703" x2="143.969262" y2="-185.083316"/>
            <line x1="143.969262" y1="-185.083316" x2="118.969262" y2="-141.782045"/>
            <line x1="118.969262" y1="-141.782045" x2="71.984631" y2="-124.681038"/>
            <line x1="96.984631" y1="-266.463084" x2="88.302222" y2="-315.703471"/>
            <line x1="88.302222" y1="-315.703471" x2="113.302222" y2="-359.004742"/>
            <line x1="113.302222" y1="-359.004742" x2="160.286853" y2="-376.105749"/>
            <line x1="160.286853" y1="-376.105749" x2="207.271484" y2="-359.004742"/>
            <line x1="207.271484" y1="-359.004742" x2="232.271484" y2="-315.703471"/>
            <line x1="232.271484" y1="-315.703471" x2="223.589075" y2="-266.463084"/>
            <line x1="223.589075" y1="-266.463084" x2="185.286853" y2="-234.323703"/>
            <line x1="185.286853" y1="-234.323703" x2="135.286853" y2="-234.323703"/>
            <line x1="207.271484" y1="-359.004742" x2="215.953893" y2="-408.245129"/>
            <line x1="215.953893" y1="-408.245129" x2="254.256115" y2="-440.38451"/>
            <line x1="254.256115" y1="-440.38451" x2="304.256115" y2="-440.38451"/>
            <line x1="304.256115" y1="-440.38451" x2="342.558337" y2="-408.245129"/>
            <line x1="342.558337" y1="-408.245129" x2="351.240746" y2="-359.004742"/>
            <line x1="351.240746" y1="-359.004742" x2="326.240746" y2="-315.703471"/>
            <line x1="326.240746" y1="-315.703471" x2="279.256115" y2="-298.602464"/>
            <line x1="279.256115" y1="-298.602464" x2="232.271484" y2="-315.703471"/>
            <line x1="342.558337" y1="-408.245129" x2="367.558337" y2="-451.546399"/>
            <line x1="367.558337" y1="-451.546399" x2="414.542968" y2="-468.647407"/>
            <line x1="414.542968" y1="-468.647407" x2="461.5276" y2="-451.546399"/>
            <line x1="461.5276" y1="-451.546399" x2="486.5276" y2="-408.245129"/>
            <line x1="486.5276" y1="-408.245129" x2="477.845191" y2="-359.004742"/>
            <line x1="477.845191" y1="-359.004742" x2="439.542968" y2="-326.865361"/>
            <line x1="439.542968" y1="-326.865361" x2="389.542968" y2="-326.865361"/>
            <line x1="389.542968" y1="-326.865361" x2="351.240746" y2="-359.004742"/>
            <line x1="486.5276" y1="-408.245129" x2="524.829822" y2="-440.38451"/>
            <line x1="524.829822" y1="-440.38451" x2="574.829822" y2="-440.38451"/>
            <line x1="574.829822" y1="-440.38451" x2="613.132044" y2="-408.245129"/>
            <line x1="613.132044" y1="-408.245129" x2="621.814453" y2="-359.004742"/>
            <line x1="621.814453" y1="-359.004742" x2="596.814453" y2="-315.703471"/>
            <line x1="596.814453" y1="-315.703471" x2="549.829822" y2="-298.602464"/>
            <line x1="549.829822" y1="-298.602464" x2="502.845191" y2="-315.703471"/>
            <line x1="502.845191" y1="-315.703471" x2="477.845191" y2="-359.004742"/>
            <line x1="621.814453" y1="-359.004742" x2="668.799084" y2="-376.105749"/>
            <line x1="668.799084" y1="-376.105749" x2="715.783715" y2="-359.004742"/>
            <line x1="715.783715" y1="-359.004742" x2="740.783715" y2="-315.703471"/>
            <line x1="740.783715" y1="-315.703471" x2="732.101306" y2="-266.463084"/>
            <line x1="732.101306" y1="-266.463084" x2="693.799084" y2="-234.323703"/>
            <line x1="693.799084" y1="-234.323703" x2="643.799084" y2="-234.323703"/>
            <line x1="643.799084" y1="-234.323703" x2="605.496862" y2="-266.463084"/>
            <line x1="605.496862" y1="-266.463084" x2="596.814453" y2="-315.703471"/>
            <line x1="732.101306" y1="-266.463084" x2="782.101306" y2="-266.463084"/>
            <line x1="782.101306" y1="-266.463084" x2="820.403528" y2="-234.323703"/>
            <line x1="820.403528" y1="-234.323703" x2="829.085937" y2="-185.083316"/>
            <line x1="829.085937" y1="-185.083316" x2="804.085937" y2="-141.782045"/>
            <line x1="804.085937" y1="-141.782045" x2="757.101306" y2="-124.681038"/>
            <line x1="757.101306" y1="-124.681038" x2="710.116675" y2="-141.782045"/>
            <line x1="710.116675" y1="-141.782045" x2="685.116675" y2="-185.083316"/>
            <line x1="685.116675" y1="-185.083316" x2="693.799084" y2="-234.323703"/>
            <line x1="804.085937" y1="-141.782045" x2="851.070568" y2="-124.681038"/>
            <line x1="851.070568" y1="-124.681038" x2="876.070568" y2="-81.379768"/>
            <line x1="876.070568" y1="-81.379768" x2="867.388159" y2="-32.13938"/>
            <line x1="867.388159" y1="-32.13938" x2="829.085937" y2="0"/>
            <line x1="829.085937" y1="0" x2="779.085937" y2="0"/>
            <line x1="779.085937" y1="0" x2="740.783715" y2="-32.13938"/>
            <line x1="740.783715" y1="-32.13938" x2="732.101306" y2="-81.379768"/>
            <line x1="732.101306" y1="-81.379768" x2="757.101306" y2="-124.681038"/>
            <line x1="829.085937" y1="0" x2="867.388159" y2="32.13938"/>
            <line x1="867.388159" y1="32.13938" x2="876.070568" y2="81.379768"/>
            <line x1="876.070568" y1="81.379768" x2="851.070568" y2="124.681038"/>
            <line x1="851.070568" y1="124.681038" x2="804.085937" y2="141.782045"/>
            <line x1="804.085937" y1="141.782045" x2="757.101306" y2="124.681038"/>
            <line x1="757.101306" y1="124.681038" x2="732.101306" y2="81.379768"/>
            <line x1="732.101306" y1="81.379768" x2="740.783715" y2="32.13938"/>
            <line x1="740.783715" y1="32.13938" x2="779.085937" y2="0"/>
            <line x1="804.085937" y1="141.782045" x2="829.085937" y2="185.083316"/>
            <line x1="829.085937" y1="185.083316" x2="820.403528" y2="234.323703"/>
            <line x1="820.403528" y1="234.323703" x2="782.101306" y2="266.463084"/>
            <line x1="782.101306" y1="266.463084" x2="732.101306" y2="266.463084"/>
            <line x1="732.101306" y1="266.463084" x2="693.799084" y2="234.323703"/>
            <line x1="693.799084" y1="234.323703" x2="685.116675" y2="185.083316"/>
            <line x1="685.116675" y1="185.083316" x2="710.116675" y2="141.782045"/>
            <line x1="710.116675" y1="141.782045" x2="757.101306" y2="124.681038"/>
            <line x1="732.101306" y1="266.463084" x2="740.783715" y2="315.703471"/>
            <line x1="740.783715" y1="315.703471" x2="715.783715" y2="359.004742"/>
            <line x1="715.783715" y1="359.004742" x2="668.799084" y2="376.105749"/>
            <line x1="668.799084" y1="376.105749" x2="621.814453" y2="359.004742"/>
            <line x1="621.814453" y1="359.004742" x2="596.814453" y2="315.703471"/>
            <line x1="596.814453" y1="315.703471" x2="605.496862" y2="266.463084"/>
            <line x1="605.496862" y1="266.463084" x2="643.799084" y2="234.323703"/>
            <line x1="643.799084" y1="234.323703" x2="693.799084" y2="234.323703"/>
            <line x1="621.814453" y1="359.004742" x2="613.132044" y2="408.245129"/>
            <line x1="613.132044" y1="408.245129" x2="574.829822" y2="440.38451"/>
            <line x1="574.829822" y1="440.38451" x2="524.829822" y2="440.38451"/>
            <line x1="524.829822" y1="440.38451" x2="486.5276" y2="408.245129"/>
            <line x1="486.5276" y1="408.245129" x2="477.845191" y2="359.004742"/>
            <line x1="477.845191" y1="359.004742" x2="502.845191" y2="315.703471"/>
            <line x1="502.845191" y1="315.703471" x2="549.829822" y2="298.602464"/>
            <line x1="549.829822" y1="298.602464" x2="596.814453" y2="315.703471"/>
            <line x1="486.5276" y1="408.245129" x2="461.5276" y2="451.546399"/>
            <line x1="461.5276" y1="451.546399" x2="414.542968" y2="468.647407"/>
            <line x1="414.542968" y1="468.647407" x2="367.558337" y2="451.546399"/>
            <line x1="367.558337" y1="451.546399" x2="342.558337" y2="408.245129"/>
            <line x1="342.558337" y1="408.245129" x2="351.240746" y2="359.004742"/>
            <line x1="351.240746" y1="359.004742" x2="389.542968" y2="326.865361"/>
            <line x1="389.542968" y1="326.865361" x2="439.542968" y2="326.865361"/>
            <line x1="439.542968" y1="326.865361" x2="477.845191" y2="359.004742"/>
            <line x1="342.558337" y1="408.245129" x2="304.256115" y2="440.38451"/>
            <line x1="304.256115" y1="440.38451" x2="254.256115" y2="440.38451"/>
            <line x1="254.256115" y1="440.38451" x2="215.953893" y2="408.245129"/>
            <line x1="215.953893" y1="408.245129" x2="207.271484" y2="359.004742"/>
            <line x1="207.271484" y1="359.004742" x2="232.271484" y2="315.703471"/>
            <line x1="232.271484" y1="315.703471" x2="279.256115" y2="298.602464"/>
            <line x1="279.256115" y1="298.602464" x2="326.240746" y2="315.703471"/>
            <line x1="326.240746" y1="315.703471" x2="351.240746" y2="359.004742"/>
            <line x1="207.271484" y1="359.004742" x2="160.286853" y2="376.105749"/>
            <line x1="160.286853" y1="376.105749" x2="113.302222" y2="359.004742"/>
            <line x1="113.302222" y1="359.004742" x2="88.302222" y2="315.703471"/>
            <line x1="88.302222" y1="315.703471" x2="96.984631" y2="266.463084"/>
            <line x1="96.984631" y1="266.463084" x2="135.286853" y2="234.323703"/>
            <line x1="135.286853" y1="234.323703" x2="185.286853" y2="234.323703"/>
            <line x1="185.286853" y1="234.323703" x2="223.589075" y2="266.463084"/>
            <line x1="223.589075" y1="266.463084" x2="232.271484" y2="315.703471"/>
            <line x1="96.984631" y1="266.463084" x2="46.984631" y2="266.463084"/>
            <line x1="46.984631" y1="266.463084" x2="8.682409" y2="234.323703"/>
            <line x1="8.682409" y1="234.323703" x2="-0" y2="185.083316"/>
            <line x1="-0" y1="185.083316" x2="25" y2="141.782045"/>
            <line x1="25" y1="141.782045" x2="71.984631" y2="124.681038"/>
            <line x1="71.984631" y1="124.681038" x2="118.969262" y2="141.782045"/>
            <line x1="118.969262" y1="141.782045" x2="143.969262" y2="185.083316"/>
            <line x1="143.969262" y1="185.083316" x2="135.286853" y2="234.323703"/>
            <line x1="71.984631" y1="124.681038" x2="96.984631" y2="81.379768"/>
            <line x1="96.984631" y1="81.379768" x2="88.302222" y2="32.13938"/>
            <line x1="88.302222" y1="32.13938" x2="50" y2="0"/>
            <line x1="25" y1="141.782045" x2="-21.984631" y2="124.681038"/>
            <line x1="-21.984631" y1="124.681038" x2="-46.984631" y2="81.379768"/>
            <line x1="-46.984631" y1="81.379768" x2="-38.302222" y2="32.13938"/>
            <line x1="-38.302222" y1="32.13938" x2="0" y2="0"/>
        </g>
        <!-- Boundary Highlight -->
        <g stroke="red" stroke-width="3.0" fill="none">
            <polygon
                    points="0,0 -38.302222,-32.13938 -46.984631,-81.379768 -21.984631,-124.681038 25,-141.782045 0,-185.083316 8.682409,-234.323703 46.984631,-266.463084 96.984631,-266.463084 88.302222,-315.703471 113.302222,-359.004742 160.286853,-376.105749 207.271484,-359.004742 215.953893,-408.245129 254.256115,-440.38451 304.256115,-440.38451 342.558337,-408.245129 367.558337,-451.546399 414.542968,-468.647407 461.5276,-451.546399 486.5276,-408.245129 524.829822,-440.38451 574.829822,-440.38451 613.132044,-408.245129 621.814453,-359.004742 668.799084,-376.105749 715.783715,-359.004742 740.783715,-315.703471 732.101306,-266.463084 782.101306,-266.463084 820.403528,-234.323703 829.085937,-185.083316 804.085937,-141.782045 851.070568,-124.681038 876.070568,-81.379768 867.388159,-32.13938 829.085937,0 867.388159,32.13938 876.070568,81.379768 851.070568,124.681038 804.085937,141.782045 829.085937,185.083316 820.403528,234.323703 782.101306,266.463084 732.101306,266.463084 740.783715,315.703471 715.783715,359.004742 668.799084,376.105749 621.814453,359.004742 613.132044,408.245129 574.829822,440.38451 524.829822,440.38451 486.5276,408.245129 461.5276,451.546399 414.542968,468.647407 367.558337,451.546399 342.558337,408.245129 304.256115,440.38451 254.256115,440.38451 215.953893,408.245129 207.271484,359.004742 160.286853,376.105749 113.302222,359.004742 88.302222,315.703471 96.984631,266.463084 46.984631,266.463084 8.682409,234.323703 -0,185.083316 25,141.782045 -21.984631,124.681038 -46.984631,81.379768 -38.302222,32.13938">
            </polygon>
        </g>
        <!-- Inner Face Half-Edge Direction Arrows -->
        <g fill="blue" stroke="blue" stroke-width="0.5">
            <polygon points="28,0 25,-1.2 25,1.2"/>
            <polygon points="71.449244,-17.998053 68.379766,-16.988944 69.922456,-15.150437"/>
            <polygon points="93.164371,-59.713998 91.461657,-56.967952 93.825196,-56.551196"/>
            <polygon points="82.984631,-105.628479 83.445401,-102.430403 85.523862,-103.630403"/>
            <polygon points="45.673238,-134.257602 48.081891,-132.103911 48.90274,-134.359173"/>
            <polygon points="-1.311393,-132.205481 1.918109,-132.103911 1.09726,-134.359173"/>
            <polygon points="-35.984631,-100.432327 -33.445401,-102.430403 -35.523862,-103.630403"/>
            <polygon points="-42.122482,-53.805151 -41.461657,-56.967952 -43.825196,-56.551196"/>
            <polygon points="-16.852978,-14.141327 -18.379766,-16.988944 -19.922456,-15.150437"/>
            <polygon points="51.311393,-132.205481 48.90274,-134.359173 48.081891,-132.103911"/>
            <polygon points="98.296024,-134.257602 95.066522,-134.359173 95.887371,-132.103911"/>
            <polygon points="132.969262,-166.030757 130.430032,-164.032681 132.508493,-162.832681"/>
            <polygon points="139.107113,-212.657933 138.446288,-209.495132 140.809827,-209.911887"/>
            <polygon points="113.837609,-252.321756 115.364397,-249.47414 116.907087,-251.312647"/>
            <polygon points="68.984631,-266.463084 71.984631,-265.263084 71.984631,-267.663084"/>
            <polygon points="25.535387,-248.465031 28.604865,-249.47414 27.062175,-251.312647"/>
            <polygon points="3.82026,-206.749086 5.522974,-209.495132 3.159435,-209.911887"/>
            <polygon points="14,-160.834604 13.53923,-164.032681 11.46077,-162.832681"/>
            <polygon points="118.433875,-248.465031 116.907087,-251.312647 115.364397,-249.47414"/>
            <polygon points="163.286853,-234.323703 160.286853,-235.523703 160.286853,-233.123703"/>
            <polygon points="206.736098,-252.321756 203.666619,-251.312647 205.209309,-249.47414"/>
            <polygon points="228.451224,-294.037701 226.74851,-291.291655 229.112049,-290.8749"/>
            <polygon points="218.271484,-339.952183 218.732254,-336.754107 220.810715,-337.954107"/>
            <polygon points="180.960091,-368.581306 183.368745,-366.427614 184.189593,-368.682876"/>
            <polygon points="133.97546,-366.529185 137.204962,-366.427614 136.384114,-368.682876"/>
            <polygon points="99.302222,-334.75603 101.841453,-336.754107 99.762992,-337.954107"/>
            <polygon points="93.164371,-288.128854 93.825196,-291.291655 91.461657,-290.8749"/>
            <polygon points="221.271484,-334.75603 220.810715,-337.954107 218.732254,-336.754107"/>
            <polygon points="258.582878,-306.126907 256.174224,-308.280599 255.353376,-306.025337"/>
            <polygon points="305.567509,-308.179028 302.338007,-308.280599 303.158855,-306.025337"/>
            <polygon points="340.240746,-339.952183 337.701516,-337.954107 339.779977,-336.754107"/>
            <polygon points="346.378597,-386.579359 345.717773,-383.416558 348.081311,-383.833313"/>
            <polygon points="321.109093,-426.243182 322.635881,-423.395566 324.178571,-425.234073"/>
            <polygon points="276.256115,-440.38451 279.256115,-439.18451 279.256115,-441.58451"/>
            <polygon points="232.806871,-422.386457 235.876349,-423.395566 234.333659,-425.234073"/>
            <polygon points="211.091744,-380.670512 212.794458,-383.416558 210.430919,-383.833313"/>
            <polygon points="347.420486,-380.670512 348.081311,-383.833313 345.717773,-383.416558"/>
            <polygon points="372.689991,-341.006689 371.163203,-343.854305 369.620512,-342.015798"/>
            <polygon points="417.542968,-326.865361 414.542968,-328.065361 414.542968,-325.665361"/>
            <polygon points="460.992213,-344.863414 457.922734,-343.854305 459.465425,-342.015798"/>
            <polygon points="482.70734,-386.579359 481.004626,-383.833313 483.368164,-383.416558"/>
            <polygon points="472.5276,-432.493841 472.988369,-429.295764 475.06683,-430.495764"/>
            <polygon points="435.216206,-461.122964 437.62486,-458.969272 438.445708,-461.224534"/>
            <polygon points="388.231575,-459.070843 391.461077,-458.969272 390.640229,-461.224534"/>
            <polygon points="353.558337,-427.297688 356.097568,-429.295764 354.019107,-430.495764"/>
            <polygon points="481.665451,-380.670512 483.368164,-383.416558 481.004626,-383.833313"/>
            <polygon points="491.845191,-334.75603 491.384421,-337.954107 489.30596,-336.754107"/>
            <polygon points="529.156584,-306.126907 526.74793,-308.280599 525.927082,-306.025337"/>
            <polygon points="576.141215,-308.179028 572.911713,-308.280599 573.732561,-306.025337"/>
            <polygon points="610.814453,-339.952183 608.275222,-337.954107 610.353683,-336.754107"/>
            <polygon points="616.952304,-386.579359 616.291479,-383.416558 618.655018,-383.833313"/>
            <polygon points="591.682799,-426.243182 593.209588,-423.395566 594.752278,-425.234073"/>
            <polygon points="546.829822,-440.38451 549.829822,-439.18451 549.829822,-441.58451"/>
            <polygon points="503.380577,-422.386457 506.450056,-423.395566 504.907365,-425.234073"/>
            <polygon points="607.814453,-334.75603 610.353683,-336.754107 608.275222,-337.954107"/>
            <polygon points="601.676602,-288.128854 602.337426,-291.291655 599.973888,-290.8749"/>
            <polygon points="626.946106,-248.465031 625.419318,-251.312647 623.876628,-249.47414"/>
            <polygon points="671.799084,-234.323703 668.799084,-235.523703 668.799084,-233.123703"/>
            <polygon points="715.248328,-252.321756 712.17885,-251.312647 713.72154,-249.47414"/>
            <polygon points="736.963455,-294.037701 735.260741,-291.291655 737.62428,-290.8749"/>
            <polygon points="726.783715,-339.952183 727.244484,-336.754107 729.322945,-337.954107"/>
            <polygon points="689.472321,-368.581306 691.880975,-366.427614 692.701823,-368.682876"/>
            <polygon points="642.48769,-366.529185 645.717192,-366.427614 644.896344,-368.682876"/>
            <polygon points="710.652061,-248.465031 713.72154,-249.47414 712.17885,-251.312647"/>
            <polygon points="688.936935,-206.749086 690.639649,-209.495132 688.27611,-209.911887"/>
            <polygon points="699.116675,-160.834604 698.655905,-164.032681 696.577444,-162.832681"/>
            <polygon points="736.428068,-132.205481 734.019415,-134.359173 733.198566,-132.103911"/>
            <polygon points="783.412699,-134.257602 780.183197,-134.359173 781.004046,-132.103911"/>
            <polygon points="818.085937,-166.030757 815.546706,-164.032681 817.625167,-162.832681"/>
            <polygon points="824.223788,-212.657933 823.562963,-209.495132 825.926502,-209.911887"/>
            <polygon points="798.954284,-252.321756 800.481072,-249.47414 802.023762,-251.312647"/>
            <polygon points="754.101306,-266.463084 757.101306,-265.263084 757.101306,-267.663084"/>
            <polygon points="777.774544,-132.205481 781.004046,-132.103911 780.183197,-134.359173"/>
            <polygon points="743.101306,-100.432327 745.640536,-102.430403 743.562075,-103.630403"/>
            <polygon points="736.963455,-53.805151 737.62428,-56.967952 735.260741,-56.551196"/>
            <polygon points="762.232959,-14.141327 760.706171,-16.988944 759.163481,-15.150437"/>
            <polygon points="807.085937,0 804.085937,-1.2 804.085937,1.2"/>
            <polygon points="850.535181,-17.998053 847.465703,-16.988944 849.008393,-15.150437"/>
            <polygon points="872.250308,-59.713998 870.547594,-56.967952 872.911133,-56.551196"/>
            <polygon points="862.070568,-105.628479 862.531337,-102.430403 864.609798,-103.630403"/>
            <polygon points="824.759175,-134.257602 827.167828,-132.103911 827.988677,-134.359173"/>
            <polygon points="801.085937,0 804.085937,1.2 804.085937,-1.2"/>
            <polygon points="757.636693,17.998053 760.706171,16.988944 759.163481,15.150437"/>
            <polygon points="735.921566,59.713998 737.62428,56.967952 735.260741,56.551196"/>
            <polygon points="746.101306,105.628479 745.640536,102.430403 743.562075,103.630403"/>
            <polygon points="783.412699,134.257602 781.004046,132.103911 780.183197,134.359173"/>
            <polygon points="830.39733,132.205481 827.167828,132.103911 827.988677,134.359173"/>
            <polygon points="865.070568,100.432327 862.531337,102.430403 864.609798,103.630403"/>
            <polygon points="871.208419,53.805151 870.547594,56.967952 872.911133,56.551196"/>
            <polygon points="845.938915,14.141327 847.465703,16.988944 849.008393,15.150437"/>
            <polygon points="777.774544,132.205481 780.183197,134.359173 781.004046,132.103911"/>
            <polygon points="730.789913,134.257602 734.019415,134.359173 733.198566,132.103911"/>
            <polygon points="696.116675,166.030757 698.655905,164.032681 696.577444,162.832681"/>
            <polygon points="689.978824,212.657933 690.639649,209.495132 688.27611,209.911887"/>
            <polygon points="715.248328,252.321756 713.72154,249.47414 712.17885,251.312647"/>
            <polygon points="760.101306,266.463084 757.101306,265.263084 757.101306,267.663084"/>
            <polygon points="803.55055,248.465031 800.481072,249.47414 802.023762,251.312647"/>
            <polygon points="825.265677,206.749086 823.562963,209.495132 825.926502,209.911887"/>
            <polygon points="815.085937,160.834604 815.546706,164.032681 817.625167,162.832681"/>
            <polygon points="710.652061,248.465031 712.17885,251.312647 713.72154,249.47414"/>
            <polygon points="665.799084,234.323703 668.799084,235.523703 668.799084,233.123703"/>
            <polygon points="622.349839,252.321756 625.419318,251.312647 623.876628,249.47414"/>
            <polygon points="600.634713,294.037701 602.337426,291.291655 599.973888,290.8749"/>
            <polygon points="610.814453,339.952183 610.353683,336.754107 608.275222,337.954107"/>
            <polygon points="648.125846,368.581306 645.717192,366.427614 644.896344,368.682876"/>
            <polygon points="695.110477,366.529185 691.880975,366.427614 692.701823,368.682876"/>
            <polygon points="729.783715,334.75603 727.244484,336.754107 729.322945,337.954107"/>
            <polygon points="735.921566,288.128854 735.260741,291.291655 737.62428,290.8749"/>
            <polygon points="607.814453,334.75603 608.275222,337.954107 610.353683,336.754107"/>
            <polygon points="570.503059,306.126907 572.911713,308.280599 573.732561,306.025337"/>
            <polygon points="523.518428,308.179028 526.74793,308.280599 525.927082,306.025337"/>
            <polygon points="488.845191,339.952183 491.384421,337.954107 489.30596,336.754107"/>
            <polygon points="482.70734,386.579359 483.368164,383.416558 481.004626,383.833313"/>
            <polygon points="507.976844,426.243182 506.450056,423.395566 504.907365,425.234073"/>
            <polygon points="552.829822,440.38451 549.829822,439.18451 549.829822,441.58451"/>
            <polygon points="596.279066,422.386457 593.209588,423.395566 594.752278,425.234073"/>
            <polygon points="617.994193,380.670512 616.291479,383.416558 618.655018,383.833313"/>
            <polygon points="481.665451,380.670512 481.004626,383.833313 483.368164,383.416558"/>
            <polygon points="456.395946,341.006689 457.922734,343.854305 459.465425,342.015798"/>
            <polygon points="411.542968,326.865361 414.542968,328.065361 414.542968,325.665361"/>
            <polygon points="368.093724,344.863414 371.163203,343.854305 369.620512,342.015798"/>
            <polygon points="346.378597,386.579359 348.081311,383.833313 345.717773,383.416558"/>
            <polygon points="356.558337,432.493841 356.097568,429.295764 354.019107,430.495764"/>
            <polygon points="393.869731,461.122964 391.461077,458.969272 390.640229,461.224534"/>
            <polygon points="440.854362,459.070843 437.62486,458.969272 438.445708,461.224534"/>
            <polygon points="475.5276,427.297688 472.988369,429.295764 475.06683,430.495764"/>
            <polygon points="347.420486,380.670512 345.717773,383.416558 348.081311,383.833313"/>
            <polygon points="337.240746,334.75603 337.701516,337.954107 339.779977,336.754107"/>
            <polygon points="299.929353,306.126907 302.338007,308.280599 303.158855,306.025337"/>
            <polygon points="252.944722,308.179028 256.174224,308.280599 255.353376,306.025337"/>
            <polygon points="218.271484,339.952183 220.810715,337.954107 218.732254,336.754107"/>
            <polygon points="212.133633,386.579359 212.794458,383.416558 210.430919,383.833313"/>
            <polygon points="237.403138,426.243182 235.876349,423.395566 234.333659,425.234073"/>
            <polygon points="282.256115,440.38451 279.256115,439.18451 279.256115,441.58451"/>
            <polygon points="325.70536,422.386457 322.635881,423.395566 324.178571,425.234073"/>
            <polygon points="221.271484,334.75603 218.732254,336.754107 220.810715,337.954107"/>
            <polygon points="227.409335,288.128854 226.74851,291.291655 229.112049,290.8749"/>
            <polygon points="202.139831,248.465031 203.666619,251.312647 205.209309,249.47414"/>
            <polygon points="157.286853,234.323703 160.286853,235.523703 160.286853,233.123703"/>
            <polygon points="113.837609,252.321756 116.907087,251.312647 115.364397,249.47414"/>
            <polygon points="92.122482,294.037701 93.825196,291.291655 91.461657,290.8749"/>
            <polygon points="102.302222,339.952183 101.841453,336.754107 99.762992,337.954107"/>
            <polygon points="139.613616,368.581306 137.204962,366.427614 136.384114,368.682876"/>
            <polygon points="186.598247,366.529185 183.368745,366.427614 184.189593,368.682876"/>
            <polygon points="118.433875,248.465031 115.364397,249.47414 116.907087,251.312647"/>
            <polygon points="140.149002,206.749086 138.446288,209.495132 140.809827,209.911887"/>
            <polygon points="129.969262,160.834604 130.430032,164.032681 132.508493,162.832681"/>
            <polygon points="92.657869,132.205481 95.066522,134.359173 95.887371,132.103911"/>
            <polygon points="45.673238,134.257602 48.90274,134.359173 48.081891,132.103911"/>
            <polygon points="11,166.030757 13.53923,164.032681 11.46077,162.832681"/>
            <polygon points="4.862149,212.657933 5.522974,209.495132 3.159435,209.911887"/>
            <polygon points="30.131653,252.321756 28.604865,249.47414 27.062175,251.312647"/>
            <polygon points="74.984631,266.463084 71.984631,265.263084 71.984631,267.663084"/>
            <polygon points="66.852978,-14.141327 69.922456,-15.150437 68.379766,-16.988944"/>
            <polygon points="71.449244,17.998053 69.922456,15.150437 68.379766,16.988944"/>
            <polygon points="93.164371,59.713998 93.825196,56.551196 91.461657,56.967952"/>
            <polygon points="82.984631,105.628479 85.523862,103.630403 83.445401,102.430403"/>
            <polygon points="98.296024,134.257602 95.887371,132.103911 95.066522,134.359173"/>
            <polygon points="132.969262,166.030757 132.508493,162.832681 130.430032,164.032681"/>
            <polygon points="139.107113,212.657933 140.809827,209.911887 138.446288,209.495132"/>
            <polygon points="163.286853,234.323703 160.286853,233.123703 160.286853,235.523703"/>
            <polygon points="206.736098,252.321756 205.209309,249.47414 203.666619,251.312647"/>
            <polygon points="228.451224,294.037701 229.112049,290.8749 226.74851,291.291655"/>
            <polygon points="258.582878,306.126907 255.353376,306.025337 256.174224,308.280599"/>
            <polygon points="305.567509,308.179028 303.158855,306.025337 302.338007,308.280599"/>
            <polygon points="340.240746,339.952183 339.779977,336.754107 337.701516,337.954107"/>
            <polygon points="372.689991,341.006689 369.620512,342.015798 371.163203,343.854305"/>
            <polygon points="417.542968,326.865361 414.542968,325.665361 414.542968,328.065361"/>
            <polygon points="460.992213,344.863414 459.465425,342.015798 457.922734,343.854305"/>
            <polygon points="491.845191,334.75603 489.30596,336.754107 491.384421,337.954107"/>
            <polygon points="529.156584,306.126907 525.927082,306.025337 526.74793,308.280599"/>
            <polygon points="576.141215,308.179028 573.732561,306.025337 572.911713,308.280599"/>
            <polygon points="601.676602,288.128854 599.973888,290.8749 602.337426,291.291655"/>
            <polygon points="626.946106,248.465031 623.876628,249.47414 625.419318,251.312647"/>
            <polygon points="671.799084,234.323703 668.799084,233.123703 668.799084,235.523703"/>
            <polygon points="688.936935,206.749086 688.27611,209.911887 690.639649,209.495132"/>
            <polygon points="699.116675,160.834604 696.577444,162.832681 698.655905,164.032681"/>
            <polygon points="736.428068,132.205481 733.198566,132.103911 734.019415,134.359173"/>
            <polygon points="743.101306,100.432327 743.562075,103.630403 745.640536,102.430403"/>
            <polygon points="736.963455,53.805151 735.260741,56.551196 737.62428,56.967952"/>
            <polygon points="762.232959,14.141327 759.163481,15.150437 760.706171,16.988944"/>
            <polygon points="757.636693,-17.998053 759.163481,-15.150437 760.706171,-16.988944"/>
            <polygon points="735.921566,-59.713998 735.260741,-56.551196 737.62428,-56.967952"/>
            <polygon points="746.101306,-105.628479 743.562075,-103.630403 745.640536,-102.430403"/>
            <polygon points="730.789913,-134.257602 733.198566,-132.103911 734.019415,-134.359173"/>
            <polygon points="696.116675,-166.030757 696.577444,-162.832681 698.655905,-164.032681"/>
            <polygon points="689.978824,-212.657933 688.27611,-209.911887 690.639649,-209.495132"/>
            <polygon points="665.799084,-234.323703 668.799084,-233.123703 668.799084,-235.523703"/>
            <polygon points="622.349839,-252.321756 623.876628,-249.47414 625.419318,-251.312647"/>
            <polygon points="600.634713,-294.037701 599.973888,-290.8749 602.337426,-291.291655"/>
            <polygon points="570.503059,-306.126907 573.732561,-306.025337 572.911713,-308.280599"/>
            <polygon points="523.518428,-308.179028 525.927082,-306.025337 526.74793,-308.280599"/>
            <polygon points="488.845191,-339.952183 489.30596,-336.754107 491.384421,-337.954107"/>
            <polygon points="456.395946,-341.006689 459.465425,-342.015798 457.922734,-343.854305"/>
            <polygon points="411.542968,-326.865361 414.542968,-325.665361 414.542968,-328.065361"/>
            <polygon points="368.093724,-344.863414 369.620512,-342.015798 371.163203,-343.854305"/>
            <polygon points="337.240746,-334.75603 339.779977,-336.754107 337.701516,-337.954107"/>
            <polygon points="299.929353,-306.126907 303.158855,-306.025337 302.338007,-308.280599"/>
            <polygon points="252.944722,-308.179028 255.353376,-306.025337 256.174224,-308.280599"/>
            <polygon points="227.409335,-288.128854 229.112049,-290.8749 226.74851,-291.291655"/>
            <polygon points="202.139831,-248.465031 205.209309,-249.47414 203.666619,-251.312647"/>
            <polygon points="157.286853,-234.323703 160.286853,-233.123703 160.286853,-235.523703"/>
            <polygon points="140.149002,-206.749086 140.809827,-209.911887 138.446288,-209.495132"/>
            <polygon points="129.969262,-160.834604 132.508493,-162.832681 130.430032,-164.032681"/>
            <polygon points="92.657869,-132.205481 95.887371,-132.103911 95.066522,-134.359173"/>
            <polygon points="85.984631,-100.432327 85.523862,-103.630403 83.445401,-102.430403"/>
            <polygon points="92.122482,-53.805151 93.825196,-56.551196 91.461657,-56.967952"/>
            <polygon points="51.311393,132.205481 48.081891,132.103911 48.90274,134.359173"/>
            <polygon points="85.984631,100.432327 83.445401,102.430403 85.523862,103.630403"/>
            <polygon points="92.122482,53.805151 91.461657,56.967952 93.825196,56.551196"/>
            <polygon points="66.852978,14.141327 68.379766,16.988944 69.922456,15.150437"/>
            <polygon points="22,-0 25,1.2 25,-1.2"/>
            <polygon points="-21.449244,17.998053 -18.379766,16.988944 -19.922456,15.150437"/>
            <polygon points="-43.164371,59.713998 -41.461657,56.967952 -43.825196,56.551196"/>
            <polygon points="-32.984631,105.628479 -33.445401,102.430403 -35.523862,103.630403"/>
            <polygon points="4.326762,134.257602 1.918109,132.103911 1.09726,134.359173"/>
        </g>
        <!-- Outer Face Half-Edge Direction Arrows -->
        <g fill="black" stroke="black" stroke-width="0.5">
            <polygon points="-21.449244,-17.998053 -19.922456,-15.150437 -18.379766,-16.988944"/>
            <polygon points="-43.164371,-59.713998 -43.825196,-56.551196 -41.461657,-56.967952"/>
            <polygon points="-32.984631,-105.628479 -35.523862,-103.630403 -33.445401,-102.430403"/>
            <polygon points="4.326762,-134.257602 1.09726,-134.359173 1.918109,-132.103911"/>
            <polygon points="11,-166.030757 11.46077,-162.832681 13.53923,-164.032681"/>
            <polygon points="4.862149,-212.657933 3.159435,-209.911887 5.522974,-209.495132"/>
            <polygon points="30.131653,-252.321756 27.062175,-251.312647 28.604865,-249.47414"/>
            <polygon points="74.984631,-266.463084 71.984631,-267.663084 71.984631,-265.263084"/>
            <polygon points="92.122482,-294.037701 91.461657,-290.8749 93.825196,-291.291655"/>
            <polygon points="102.302222,-339.952183 99.762992,-337.954107 101.841453,-336.754107"/>
            <polygon points="139.613616,-368.581306 136.384114,-368.682876 137.204962,-366.427614"/>
            <polygon points="186.598247,-366.529185 184.189593,-368.682876 183.368745,-366.427614"/>
            <polygon points="212.133633,-386.579359 210.430919,-383.833313 212.794458,-383.416558"/>
            <polygon points="237.403138,-426.243182 234.333659,-425.234073 235.876349,-423.395566"/>
            <polygon points="282.256115,-440.38451 279.256115,-441.58451 279.256115,-439.18451"/>
            <polygon points="325.70536,-422.386457 324.178571,-425.234073 322.635881,-423.395566"/>
            <polygon points="356.558337,-432.493841 354.019107,-430.495764 356.097568,-429.295764"/>
            <polygon points="393.869731,-461.122964 390.640229,-461.224534 391.461077,-458.969272"/>
            <polygon points="440.854362,-459.070843 438.445708,-461.224534 437.62486,-458.969272"/>
            <polygon points="475.5276,-427.297688 475.06683,-430.495764 472.988369,-429.295764"/>
            <polygon points="507.976844,-426.243182 504.907365,-425.234073 506.450056,-423.395566"/>
            <polygon points="552.829822,-440.38451 549.829822,-441.58451 549.829822,-439.18451"/>
            <polygon points="596.279066,-422.386457 594.752278,-425.234073 593.209588,-423.395566"/>
            <polygon points="617.994193,-380.670512 618.655018,-383.833313 616.291479,-383.416558"/>
            <polygon points="648.125846,-368.581306 644.896344,-368.682876 645.717192,-366.427614"/>
            <polygon points="695.110477,-366.529185 692.701823,-368.682876 691.880975,-366.427614"/>
            <polygon points="729.783715,-334.75603 729.322945,-337.954107 727.244484,-336.754107"/>
            <polygon points="735.921566,-288.128854 737.62428,-290.8749 735.260741,-291.291655"/>
            <polygon points="760.101306,-266.463084 757.101306,-267.663084 757.101306,-265.263084"/>
            <polygon points="803.55055,-248.465031 802.023762,-251.312647 800.481072,-249.47414"/>
            <polygon points="825.265677,-206.749086 825.926502,-209.911887 823.562963,-209.495132"/>
            <polygon points="815.085937,-160.834604 817.625167,-162.832681 815.546706,-164.032681"/>
            <polygon points="830.39733,-132.205481 827.988677,-134.359173 827.167828,-132.103911"/>
            <polygon points="865.070568,-100.432327 864.609798,-103.630403 862.531337,-102.430403"/>
            <polygon points="871.208419,-53.805151 872.911133,-56.551196 870.547594,-56.967952"/>
            <polygon points="845.938915,-14.141327 849.008393,-15.150437 847.465703,-16.988944"/>
            <polygon points="850.535181,17.998053 849.008393,15.150437 847.465703,16.988944"/>
            <polygon points="872.250308,59.713998 872.911133,56.551196 870.547594,56.967952"/>
            <polygon points="862.070568,105.628479 864.609798,103.630403 862.531337,102.430403"/>
            <polygon points="824.759175,134.257602 827.988677,134.359173 827.167828,132.103911"/>
            <polygon points="818.085937,166.030757 817.625167,162.832681 815.546706,164.032681"/>
            <polygon points="824.223788,212.657933 825.926502,209.911887 823.562963,209.495132"/>
            <polygon points="798.954284,252.321756 802.023762,251.312647 800.481072,249.47414"/>
            <polygon points="754.101306,266.463084 757.101306,267.663084 757.101306,265.263084"/>
            <polygon points="736.963455,294.037701 737.62428,290.8749 735.260741,291.291655"/>
            <polygon points="726.783715,339.952183 729.322945,337.954107 727.244484,336.754107"/>
            <polygon points="689.472321,368.581306 692.701823,368.682876 691.880975,366.427614"/>
            <polygon points="642.48769,366.529185 644.896344,368.682876 645.717192,366.427614"/>
            <polygon points="616.952304,386.579359 618.655018,383.833313 616.291479,383.416558"/>
            <polygon points="591.682799,426.243182 594.752278,425.234073 593.209588,423.395566"/>
            <polygon points="546.829822,440.38451 549.829822,441.58451 549.829822,439.18451"/>
            <polygon points="503.380577,422.386457 504.907365,425.234073 506.450056,423.395566"/>
            <polygon points="472.5276,432.493841 475.06683,430.495764 472.988369,429.295764"/>
            <polygon points="435.216206,461.122964 438.445708,461.224534 437.62486,458.969272"/>
            <polygon points="388.231575,459.070843 390.640229,461.224534 391.461077,458.969272"/>
            <polygon points="353.558337,427.297688 354.019107,430.495764 356.097568,429.295764"/>
            <polygon points="321.109093,426.243182 324.178571,425.234073 322.635881,423.395566"/>
            <polygon points="276.256115,440.38451 279.256115,441.58451 279.256115,439.18451"/>
            <polygon points="232.806871,422.386457 234.333659,425.234073 235.876349,423.395566"/>
            <polygon points="211.091744,380.670512 210.430919,383.833313 212.794458,383.416558"/>
            <polygon points="180.960091,368.581306 184.189593,368.682876 183.368745,366.427614"/>
            <polygon points="133.97546,366.529185 136.384114,368.682876 137.204962,366.427614"/>
            <polygon points="99.302222,334.75603 99.762992,337.954107 101.841453,336.754107"/>
            <polygon points="93.164371,288.128854 91.461657,290.8749 93.825196,291.291655"/>
            <polygon points="68.984631,266.463084 71.984631,267.663084 71.984631,265.263084"/>
            <polygon points="25.535387,248.465031 27.062175,251.312647 28.604865,249.47414"/>
            <polygon points="3.82026,206.749086 3.159435,209.911887 5.522974,209.495132"/>
            <polygon points="14,160.834604 11.46077,162.832681 13.53923,164.032681"/>
            <polygon points="-1.311393,132.205481 1.09726,134.359173 1.918109,132.103911"/>
            <polygon points="-35.984631,100.432327 -35.523862,103.630403 -33.445401,102.430403"/>
            <polygon points="-42.122482,53.805151 -43.825196,56.551196 -41.461657,56.967952"/>
            <polygon points="-16.852978,14.141327 -19.922456,15.150437 -18.379766,16.988944"/>
        </g>
        <!-- Vertices -->
        <g fill="red">
            <circle cx="0" cy="0" r="2.0"/>
            <circle cx="50" cy="0" r="2.0"/>
            <circle cx="88.302222" cy="-32.13938" r="2.0"/>
            <circle cx="96.984631" cy="-81.379768" r="2.0"/>
            <circle cx="71.984631" cy="-124.681038" r="2.0"/>
            <circle cx="25" cy="-141.782045" r="2.0"/>
            <circle cx="-21.984631" cy="-124.681038" r="2.0"/>
            <circle cx="-46.984631" cy="-81.379768" r="2.0"/>
            <circle cx="-38.302222" cy="-32.13938" r="2.0"/>
            <circle cx="0" cy="-185.083316" r="2.0"/>
            <circle cx="8.682409" cy="-234.323703" r="2.0"/>
            <circle cx="46.984631" cy="-266.463084" r="2.0"/>
            <circle cx="96.984631" cy="-266.463084" r="2.0"/>
            <circle cx="135.286853" cy="-234.323703" r="2.0"/>
            <circle cx="143.969262" cy="-185.083316" r="2.0"/>
            <circle cx="118.969262" cy="-141.782045" r="2.0"/>
            <circle cx="88.302222" cy="-315.703471" r="2.0"/>
            <circle cx="113.302222" cy="-359.004742" r="2.0"/>
            <circle cx="160.286853" cy="-376.105749" r="2.0"/>
            <circle cx="207.271484" cy="-359.004742" r="2.0"/>
            <circle cx="232.271484" cy="-315.703471" r="2.0"/>
            <circle cx="223.589075" cy="-266.463084" r="2.0"/>
            <circle cx="185.286853" cy="-234.323703" r="2.0"/>
            <circle cx="215.953893" cy="-408.245129" r="2.0"/>
            <circle cx="254.256115" cy="-440.38451" r="2.0"/>
            <circle cx="304.256115" cy="-440.38451" r="2.0"/>
            <circle cx="342.558337" cy="-408.245129" r="2.0"/>
            <circle cx="351.240746" cy="-359.004742" r="2.0"/>
            <circle cx="326.240746" cy="-315.703471" r="2.0"/>
            <circle cx="279.256115" cy="-298.602464" r="2.0"/>
            <circle cx="367.558337" cy="-451.546399" r="2.0"/>
            <circle cx="414.542968" cy="-468.647407" r="2.0"/>
            <circle cx="461.5276" cy="-451.546399" r="2.0"/>
            <circle cx="486.5276" cy="-408.245129" r="2.0"/>
            <circle cx="477.845191" cy="-359.004742" r="2.0"/>
            <circle cx="439.542968" cy="-326.865361" r="2.0"/>
            <circle cx="389.542968" cy="-326.865361" r="2.0"/>
            <circle cx="524.829822" cy="-440.38451" r="2.0"/>
            <circle cx="574.829822" cy="-440.38451" r="2.0"/>
            <circle cx="613.132044" cy="-408.245129" r="2.0"/>
            <circle cx="621.814453" cy="-359.004742" r="2.0"/>
            <circle cx="596.814453" cy="-315.703471" r="2.0"/>
            <circle cx="549.829822" cy="-298.602464" r="2.0"/>
            <circle cx="502.845191" cy="-315.703471" r="2.0"/>
            <circle cx="668.799084" cy="-376.105749" r="2.0"/>
            <circle cx="715.783715" cy="-359.004742" r="2.0"/>
            <circle cx="740.783715" cy="-315.703471" r="2.0"/>
            <circle cx="732.101306" cy="-266.463084" r="2.0"/>
            <circle cx="693.799084" cy="-234.323703" r="2.0"/>
            <circle cx="643.799084" cy="-234.323703" r="2.0"/>
            <circle cx="605.496862" cy="-266.463084" r="2.0"/>
            <circle cx="782.101306" cy="-266.463084" r="2.0"/>
            <circle cx="820.403528" cy="-234.323703" r="2.0"/>
            <circle cx="829.085937" cy="-185.083316" r="2.0"/>
            <circle cx="804.085937" cy="-141.782045" r="2.0"/>
            <circle cx="757.101306" cy="-124.681038" r="2.0"/>
            <circle cx="710.116675" cy="-141.782045" r="2.0"/>
            <circle cx="685.116675" cy="-185.083316" r="2.0"/>
            <circle cx="851.070568" cy="-124.681038" r="2.0"/>
            <circle cx="876.070568" cy="-81.379768" r="2.0"/>
            <circle cx="867.388159" cy="-32.13938" r="2.0"/>
            <circle cx="829.085937" cy="0" r="2.0"/>
            <circle cx="779.085937" cy="0" r="2.0"/>
            <circle cx="740.783715" cy="-32.13938" r="2.0"/>
            <circle cx="732.101306" cy="-81.379768" r="2.0"/>
            <circle cx="867.388159" cy="32.13938" r="2.0"/>
            <circle cx="876.070568" cy="81.379768" r="2.0"/>
            <circle cx="851.070568" cy="124.681038" r="2.0"/>
            <circle cx="804.085937" cy="141.782045" r="2.0"/>
            <circle cx="757.101306" cy="124.681038" r="2.0"/>
            <circle cx="732.101306" cy="81.379768" r="2.0"/>
            <circle cx="740.783715" cy="32.13938" r="2.0"/>
            <circle cx="829.085937" cy="185.083316" r="2.0"/>
            <circle cx="820.403528" cy="234.323703" r="2.0"/>
            <circle cx="782.101306" cy="266.463084" r="2.0"/>
            <circle cx="732.101306" cy="266.463084" r="2.0"/>
            <circle cx="693.799084" cy="234.323703" r="2.0"/>
            <circle cx="685.116675" cy="185.083316" r="2.0"/>
            <circle cx="710.116675" cy="141.782045" r="2.0"/>
            <circle cx="740.783715" cy="315.703471" r="2.0"/>
            <circle cx="715.783715" cy="359.004742" r="2.0"/>
            <circle cx="668.799084" cy="376.105749" r="2.0"/>
            <circle cx="621.814453" cy="359.004742" r="2.0"/>
            <circle cx="596.814453" cy="315.703471" r="2.0"/>
            <circle cx="605.496862" cy="266.463084" r="2.0"/>
            <circle cx="643.799084" cy="234.323703" r="2.0"/>
            <circle cx="613.132044" cy="408.245129" r="2.0"/>
            <circle cx="574.829822" cy="440.38451" r="2.0"/>
            <circle cx="524.829822" cy="440.38451" r="2.0"/>
            <circle cx="486.5276" cy="408.245129" r="2.0"/>
            <circle cx="477.845191" cy="359.004742" r="2.0"/>
            <circle cx="502.845191" cy="315.703471" r="2.0"/>
            <circle cx="549.829822" cy="298.602464" r="2.0"/>
            <circle cx="461.5276" cy="451.546399" r="2.0"/>
            <circle cx="414.542968" cy="468.647407" r="2.0"/>
            <circle cx="367.558337" cy="451.546399" r="2.0"/>
            <circle cx="342.558337" cy="408.245129" r="2.0"/>
            <circle cx="351.240746" cy="359.004742" r="2.0"/>
            <circle cx="389.542968" cy="326.865361" r="2.0"/>
            <circle cx="439.542968" cy="326.865361" r="2.0"/>
            <circle cx="304.256115" cy="440.38451" r="2.0"/>
            <circle cx="254.256115" cy="440.38451" r="2.0"/>
            <circle cx="215.953893" cy="408.245129" r="2.0"/>
            <circle cx="207.271484" cy="359.004742" r="2.0"/>
            <circle cx="232.271484" cy="315.703471" r="2.0"/>
            <circle cx="279.256115" cy="298.602464" r="2.0"/>
            <circle cx="326.240746" cy="315.703471" r="2.0"/>
            <circle cx="160.286853" cy="376.105749" r="2.0"/>
            <circle cx="113.302222" cy="359.004742" r="2.0"/>
            <circle cx="88.302222" cy="315.703471" r="2.0"/>
            <circle cx="96.984631" cy="266.463084" r="2.0"/>
            <circle cx="135.286853" cy="234.323703" r="2.0"/>
            <circle cx="185.286853" cy="234.323703" r="2.0"/>
            <circle cx="223.589075" cy="266.463084" r="2.0"/>
            <circle cx="46.984631" cy="266.463084" r="2.0"/>
            <circle cx="8.682409" cy="234.323703" r="2.0"/>
            <circle cx="-0" cy="185.083316" r="2.0"/>
            <circle cx="25" cy="141.782045" r="2.0"/>
            <circle cx="71.984631" cy="124.681038" r="2.0"/>
            <circle cx="118.969262" cy="141.782045" r="2.0"/>
            <circle cx="143.969262" cy="185.083316" r="2.0"/>
            <circle cx="96.984631" cy="81.379768" r="2.0"/>
            <circle cx="88.302222" cy="32.13938" r="2.0"/>
            <circle cx="-21.984631" cy="124.681038" r="2.0"/>
            <circle cx="-46.984631" cy="81.379768" r="2.0"/>
            <circle cx="-38.302222" cy="32.13938" r="2.0"/>
        </g>
        <!-- Vertex Labels -->
        <g font-size="8" fill="darkblue">
            <text x="2.5" y="-2.5">V1</text>
            <text x="52.5" y="-2.5">V2</text>
            <text x="90.802222" y="-34.63938">V3</text>
            <text x="99.484631" y="-83.879768">V4</text>
            <text x="74.484631" y="-127.181038">V5</text>
            <text x="27.5" y="-144.282045">V6</text>
            <text x="-19.484631" y="-127.181038">V7</text>
            <text x="-44.484631" y="-83.879768">V8</text>
            <text x="-35.802222" y="-34.63938">V9</text>
            <text x="2.5" y="-187.583316">V10</text>
            <text x="11.182409" y="-236.823703">V11</text>
            <text x="49.484631" y="-268.963084">V12</text>
            <text x="99.484631" y="-268.963084">V13</text>
            <text x="137.786853" y="-236.823703">V14</text>
            <text x="146.469262" y="-187.583316">V15</text>
            <text x="121.469262" y="-144.282045">V16</text>
            <text x="90.802222" y="-318.203471">V17</text>
            <text x="115.802222" y="-361.504742">V18</text>
            <text x="162.786853" y="-378.605749">V19</text>
            <text x="209.771484" y="-361.504742">V20</text>
            <text x="234.771484" y="-318.203471">V21</text>
            <text x="226.089075" y="-268.963084">V22</text>
            <text x="187.786853" y="-236.823703">V23</text>
            <text x="218.453893" y="-410.745129">V24</text>
            <text x="256.756115" y="-442.88451">V25</text>
            <text x="306.756115" y="-442.88451">V26</text>
            <text x="345.058337" y="-410.745129">V27</text>
            <text x="353.740746" y="-361.504742">V28</text>
            <text x="328.740746" y="-318.203471">V29</text>
            <text x="281.756115" y="-301.102464">V30</text>
            <text x="370.058337" y="-454.046399">V31</text>
            <text x="417.042968" y="-471.147407">V32</text>
            <text x="464.0276" y="-454.046399">V33</text>
            <text x="489.0276" y="-410.745129">V34</text>
            <text x="480.345191" y="-361.504742">V35</text>
            <text x="442.042968" y="-329.365361">V36</text>
            <text x="392.042968" y="-329.365361">V37</text>
            <text x="527.329822" y="-442.88451">V38</text>
            <text x="577.329822" y="-442.88451">V39</text>
            <text x="615.632044" y="-410.745129">V40</text>
            <text x="624.314453" y="-361.504742">V41</text>
            <text x="599.314453" y="-318.203471">V42</text>
            <text x="552.329822" y="-301.102464">V43</text>
            <text x="505.345191" y="-318.203471">V44</text>
            <text x="671.299084" y="-378.605749">V45</text>
            <text x="718.283715" y="-361.504742">V46</text>
            <text x="743.283715" y="-318.203471">V47</text>
            <text x="734.601306" y="-268.963084">V48</text>
            <text x="696.299084" y="-236.823703">V49</text>
            <text x="646.299084" y="-236.823703">V50</text>
            <text x="607.996862" y="-268.963084">V51</text>
            <text x="784.601306" y="-268.963084">V52</text>
            <text x="822.903528" y="-236.823703">V53</text>
            <text x="831.585937" y="-187.583316">V54</text>
            <text x="806.585937" y="-144.282045">V55</text>
            <text x="759.601306" y="-127.181038">V56</text>
            <text x="712.616675" y="-144.282045">V57</text>
            <text x="687.616675" y="-187.583316">V58</text>
            <text x="853.570568" y="-127.181038">V59</text>
            <text x="878.570568" y="-83.879768">V60</text>
            <text x="869.888159" y="-34.63938">V61</text>
            <text x="831.585937" y="-2.5">V62</text>
            <text x="781.585937" y="-2.5">V63</text>
            <text x="743.283715" y="-34.63938">V64</text>
            <text x="734.601306" y="-83.879768">V65</text>
            <text x="869.888159" y="29.63938">V66</text>
            <text x="878.570568" y="78.879768">V67</text>
            <text x="853.570568" y="122.181038">V68</text>
            <text x="806.585937" y="139.282045">V69</text>
            <text x="759.601306" y="122.181038">V70</text>
            <text x="734.601306" y="78.879768">V71</text>
            <text x="743.283715" y="29.63938">V72</text>
            <text x="831.585937" y="182.583316">V73</text>
            <text x="822.903528" y="231.823703">V74</text>
            <text x="784.601306" y="263.963084">V75</text>
            <text x="734.601306" y="263.963084">V76</text>
            <text x="696.299084" y="231.823703">V77</text>
            <text x="687.616675" y="182.583316">V78</text>
            <text x="712.616675" y="139.282045">V79</text>
            <text x="743.283715" y="313.203471">V80</text>
            <text x="718.283715" y="356.504742">V81</text>
            <text x="671.299084" y="373.605749">V82</text>
            <text x="624.314453" y="356.504742">V83</text>
            <text x="599.314453" y="313.203471">V84</text>
            <text x="607.996862" y="263.963084">V85</text>
            <text x="646.299084" y="231.823703">V86</text>
            <text x="615.632044" y="405.745129">V87</text>
            <text x="577.329822" y="437.88451">V88</text>
            <text x="527.329822" y="437.88451">V89</text>
            <text x="489.0276" y="405.745129">V90</text>
            <text x="480.345191" y="356.504742">V91</text>
            <text x="505.345191" y="313.203471">V92</text>
            <text x="552.329822" y="296.102464">V93</text>
            <text x="464.0276" y="449.046399">V94</text>
            <text x="417.042968" y="466.147407">V95</text>
            <text x="370.058337" y="449.046399">V96</text>
            <text x="345.058337" y="405.745129">V97</text>
            <text x="353.740746" y="356.504742">V98</text>
            <text x="392.042968" y="324.365361">V99</text>
            <text x="442.042968" y="324.365361">V100</text>
            <text x="306.756115" y="437.88451">V101</text>
            <text x="256.756115" y="437.88451">V102</text>
            <text x="218.453893" y="405.745129">V103</text>
            <text x="209.771484" y="356.504742">V104</text>
            <text x="234.771484" y="313.203471">V105</text>
            <text x="281.756115" y="296.102464">V106</text>
            <text x="328.740746" y="313.203471">V107</text>
            <text x="162.786853" y="373.605749">V108</text>
            <text x="115.802222" y="356.504742">V109</text>
            <text x="90.802222" y="313.203471">V110</text>
            <text x="99.484631" y="263.963084">V111</text>
            <text x="137.786853" y="231.823703">V112</text>
            <text x="187.786853" y="231.823703">V113</text>
            <text x="226.089075" y="263.963084">V114</text>
            <text x="49.484631" y="263.963084">V115</text>
            <text x="11.182409" y="231.823703">V116</text>
            <text x="2.5" y="182.583316">V117</text>
            <text x="27.5" y="139.282045">V118</text>
            <text x="74.484631" y="122.181038">V119</text>
            <text x="121.469262" y="139.282045">V120</text>
            <text x="146.469262" y="182.583316">V121</text>
            <text x="99.484631" y="78.879768">V122</text>
            <text x="90.802222" y="29.63938">V123</text>
            <text x="-19.484631" y="122.181038">V124</text>
            <text x="-44.484631" y="78.879768">V125</text>
            <text x="-35.802222" y="29.63938">V126</text>
        </g>
        <!-- Face Labels -->
        <g font-size="6" fill="green" text-anchor="middle" dominant-baseline="middle">
            <text x="25" y="-68.686935">F1</text>
            <text x="71.984631" y="-197.776148">F2</text>
            <text x="160.286853" y="-303.010639">F3</text>
            <text x="279.256115" y="-371.697574">F4</text>
            <text x="414.542968" y="-395.552297">F5</text>
            <text x="549.829822" y="-371.697574">F6</text>
            <text x="668.799084" y="-303.010639">F7</text>
            <text x="757.101306" y="-197.776148">F8</text>
            <text x="804.085937" y="-68.686935">F9</text>
            <text x="804.085937" y="68.686935">F10</text>
            <text x="757.101306" y="197.776148">F11</text>
            <text x="668.799084" y="303.010639">F12</text>
            <text x="549.829822" y="371.697574">F13</text>
            <text x="414.542968" y="395.552297">F14</text>
            <text x="279.256115" y="371.697574">F15</text>
            <text x="160.286853" y="303.010639">F16</text>
            <text x="71.984631" y="197.776148">F17</text>
            <text x="414.542968" y="0">F18</text>
            <text x="25" y="68.686935">F19</text>
        </g>
        <!-- Inner Angle Labels -->
        <g font-size="5" fill="purple" text-anchor="middle" dominant-baseline="middle">
            <text x="2.736161" y="-7.517541">140°</text>
            <text x="47.263839" y="-7.517541">140°</text>
            <text x="81.374019" y="-36.13938">140°</text>
            <text x="89.106169" y="-79.990583">140°</text>
            <text x="66.84233" y="-118.552683">140°</text>
            <text x="25" y="-133.782045">140°</text>
            <text x="-16.84233" y="-118.552683">140°</text>
            <text x="-39.106169" y="-79.990583">140°</text>
            <text x="-31.374019" y="-36.13938">140°</text>
            <text x="30.142301" y="-147.910401">140°</text>
            <text x="71.984631" y="-132.681038">140°</text>
            <text x="113.826961" y="-147.910401">140°</text>
            <text x="136.0908" y="-186.472501">140°</text>
            <text x="128.35865" y="-230.323703">140°</text>
            <text x="94.24847" y="-258.945543">140°</text>
            <text x="49.720792" y="-258.945543">140°</text>
            <text x="15.610612" y="-230.323703">140°</text>
            <text x="7.878462" y="-186.472501">140°</text>
            <text x="103.912834" y="-270.463084">140°</text>
            <text x="138.023014" y="-241.841244">140°</text>
            <text x="182.550692" y="-241.841244">140°</text>
            <text x="216.660872" y="-270.463084">140°</text>
            <text x="224.393022" y="-314.314286">140°</text>
            <text x="202.129183" y="-352.876386">140°</text>
            <text x="160.286853" y="-368.105749">140°</text>
            <text x="118.444523" y="-352.876386">140°</text>
            <text x="96.180684" y="-314.314286">140°</text>
            <text x="215.149946" y="-360.393927">140°</text>
            <text x="237.413785" y="-321.831827">140°</text>
            <text x="279.256115" y="-306.602464">140°</text>
            <text x="321.098445" y="-321.831827">140°</text>
            <text x="343.362284" y="-360.393927">140°</text>
            <text x="335.630134" y="-404.245129">140°</text>
            <text x="301.519954" y="-432.866969">140°</text>
            <text x="256.992276" y="-432.866969">140°</text>
            <text x="222.882096" y="-404.245129">140°</text>
            <text x="350.436799" y="-406.855944">140°</text>
            <text x="358.16895" y="-363.004742">140°</text>
            <text x="392.27913" y="-334.382902">140°</text>
            <text x="436.806807" y="-334.382902">140°</text>
            <text x="470.916987" y="-363.004742">140°</text>
            <text x="478.649137" y="-406.855944">140°</text>
            <text x="456.385299" y="-445.418044">140°</text>
            <text x="414.542968" y="-460.647407">140°</text>
            <text x="372.700638" y="-445.418044">140°</text>
            <text x="493.455803" y="-404.245129">140°</text>
            <text x="485.723653" y="-360.393927">140°</text>
            <text x="507.987492" y="-321.831827">140°</text>
            <text x="549.829822" y="-306.602464">140°</text>
            <text x="591.672152" y="-321.831827">140°</text>
            <text x="613.935991" y="-360.393927">140°</text>
            <text x="606.203841" y="-404.245129">140°</text>
            <text x="572.093661" y="-432.866969">140°</text>
            <text x="527.565983" y="-432.866969">140°</text>
            <text x="626.956754" y="-352.876386">140°</text>
            <text x="604.692915" y="-314.314286">140°</text>
            <text x="612.425065" y="-270.463084">140°</text>
            <text x="646.535245" y="-241.841244">140°</text>
            <text x="691.062923" y="-241.841244">140°</text>
            <text x="725.173103" y="-270.463084">140°</text>
            <text x="732.905253" y="-314.314286">140°</text>
            <text x="710.641414" y="-352.876386">140°</text>
            <text x="668.799084" y="-368.105749">140°</text>
            <text x="734.837467" y="-258.945543">140°</text>
            <text x="700.727287" y="-230.323703">140°</text>
            <text x="692.995137" y="-186.472501">140°</text>
            <text x="715.258976" y="-147.910401">140°</text>
            <text x="757.101306" y="-132.681038">140°</text>
            <text x="798.943636" y="-147.910401">140°</text>
            <text x="821.207475" y="-186.472501">140°</text>
            <text x="813.475325" y="-230.323703">140°</text>
            <text x="779.365145" y="-258.945543">140°</text>
            <text x="804.085937" y="-133.782045">140°</text>
            <text x="762.243607" y="-118.552683">140°</text>
            <text x="739.979768" y="-79.990583">140°</text>
            <text x="747.711918" y="-36.13938">140°</text>
            <text x="781.822098" y="-7.517541">140°</text>
            <text x="826.349776" y="-7.517541">140°</text>
            <text x="860.459956" y="-36.13938">140°</text>
            <text x="868.192106" y="-79.990583">140°</text>
            <text x="845.928267" y="-118.552683">140°</text>
            <text x="826.349776" y="7.517541">140°</text>
            <text x="781.822098" y="7.517541">140°</text>
            <text x="747.711918" y="36.13938">140°</text>
            <text x="739.979768" y="79.990583">140°</text>
            <text x="762.243607" y="118.552683">140°</text>
            <text x="804.085937" y="133.782045">140°</text>
            <text x="845.928267" y="118.552683">140°</text>
            <text x="868.192106" y="79.990583">140°</text>
            <text x="860.459956" y="36.13938">140°</text>
            <text x="798.943636" y="147.910401">140°</text>
            <text x="757.101306" y="132.681038">140°</text>
            <text x="715.258976" y="147.910401">140°</text>
            <text x="692.995137" y="186.472501">140°</text>
            <text x="700.727287" y="230.323703">140°</text>
            <text x="734.837467" y="258.945543">140°</text>
            <text x="779.365145" y="258.945543">140°</text>
            <text x="813.475325" y="230.323703">140°</text>
            <text x="821.207475" y="186.472501">140°</text>
            <text x="725.173103" y="270.463084">140°</text>
            <text x="691.062923" y="241.841244">140°</text>
            <text x="646.535245" y="241.841244">140°</text>
            <text x="612.425065" y="270.463084">140°</text>
            <text x="604.692915" y="314.314286">140°</text>
            <text x="626.956754" y="352.876386">140°</text>
            <text x="668.799084" y="368.105749">140°</text>
            <text x="710.641414" y="352.876386">140°</text>
            <text x="732.905253" y="314.314286">140°</text>
            <text x="613.935991" y="360.393927">140°</text>
            <text x="591.672152" y="321.831827">140°</text>
            <text x="549.829822" y="306.602464">140°</text>
            <text x="507.987492" y="321.831827">140°</text>
            <text x="485.723653" y="360.393927">140°</text>
            <text x="493.455803" y="404.245129">140°</text>
            <text x="527.565983" y="432.866969">140°</text>
            <text x="572.093661" y="432.866969">140°</text>
            <text x="606.203841" y="404.245129">140°</text>
            <text x="478.649137" y="406.855944">140°</text>
            <text x="470.916987" y="363.004742">140°</text>
            <text x="436.806807" y="334.382902">140°</text>
            <text x="392.27913" y="334.382902">140°</text>
            <text x="358.16895" y="363.004742">140°</text>
            <text x="350.436799" y="406.855944">140°</text>
            <text x="372.700638" y="445.418044">140°</text>
            <text x="414.542968" y="460.647407">140°</text>
            <text x="456.385299" y="445.418044">140°</text>
            <text x="335.630134" y="404.245129">140°</text>
            <text x="343.362284" y="360.393927">140°</text>
            <text x="321.098445" y="321.831827">140°</text>
            <text x="279.256115" y="306.602464">140°</text>
            <text x="237.413785" y="321.831827">140°</text>
            <text x="215.149946" y="360.393927">140°</text>
            <text x="222.882096" y="404.245129">140°</text>
            <text x="256.992276" y="432.866969">140°</text>
            <text x="301.519954" y="432.866969">140°</text>
            <text x="202.129183" y="352.876386">140°</text>
            <text x="224.393022" y="314.314286">140°</text>
            <text x="216.660872" y="270.463084">140°</text>
            <text x="182.550692" y="241.841244">140°</text>
            <text x="138.023014" y="241.841244">140°</text>
            <text x="103.912834" y="270.463084">140°</text>
            <text x="96.180684" y="314.314286">140°</text>
            <text x="118.444523" y="352.876386">140°</text>
            <text x="160.286853" y="368.105749">140°</text>
            <text x="94.24847" y="258.945543">140°</text>
            <text x="128.35865" y="230.323703">140°</text>
            <text x="136.0908" y="186.472501">140°</text>
            <text x="113.826961" y="147.910401">140°</text>
            <text x="71.984631" y="132.681038">140°</text>
            <text x="30.142301" y="147.910401">140°</text>
            <text x="7.878462" y="186.472501">140°</text>
            <text x="15.610612" y="230.323703">140°</text>
            <text x="49.720792" y="258.945543">140°</text>
            <text x="96.263682" y="-31.355063">220°</text>
            <text x="58" y="0">80°</text>
            <text x="96.263682" y="31.355063">220°</text>
            <text x="104.734209" y="79.393806">220°</text>
            <text x="79.502172" y="121.944877">80°</text>
            <text x="126.182335" y="138.322048">220°</text>
            <text x="150.572244" y="180.56661">220°</text>
            <text x="141.415209" y="229.181402">80°</text>
            <text x="190.881536" y="228.605353">220°</text>
            <text x="228.249044" y="259.960416">220°</text>
            <text x="236.271484" y="308.775268">80°</text>
            <text x="282.557606" y="291.315479">220°</text>
            <text x="328.395641" y="307.999159">220°</text>
            <text x="352.629932" y="351.12628">80°</text>
            <text x="390.153059" y="318.888658">220°</text>
            <text x="438.932878" y="318.888658">220°</text>
            <text x="476.456005" y="351.12628">80°</text>
            <text x="500.690295" y="307.999159">220°</text>
            <text x="546.528331" y="291.315479">220°</text>
            <text x="592.814453" y="308.775268">80°</text>
            <text x="600.836893" y="259.960416">220°</text>
            <text x="638.204401" y="228.605353">220°</text>
            <text x="687.670728" y="229.181402">80°</text>
            <text x="678.513693" y="180.56661">220°</text>
            <text x="702.903602" y="138.322048">220°</text>
            <text x="749.583765" y="121.944877">80°</text>
            <text x="724.351728" y="79.393806">220°</text>
            <text x="732.822255" y="31.355063">220°</text>
            <text x="771.085937" y="0">80°</text>
            <text x="732.822255" y="-31.355063">220°</text>
            <text x="724.351728" y="-79.393806">220°</text>
            <text x="749.583765" y="-121.944877">80°</text>
            <text x="702.903602" y="-138.322048">220°</text>
            <text x="678.513693" y="-180.56661">220°</text>
            <text x="687.670728" y="-229.181402">80°</text>
            <text x="638.204401" y="-228.605353">220°</text>
            <text x="600.836893" y="-259.960416">220°</text>
            <text x="592.814453" y="-308.775268">80°</text>
            <text x="546.528331" y="-291.315479">220°</text>
            <text x="500.690295" y="-307.999159">220°</text>
            <text x="476.456005" y="-351.12628">80°</text>
            <text x="438.932878" y="-318.888658">220°</text>
            <text x="390.153059" y="-318.888658">220°</text>
            <text x="352.629932" y="-351.12628">80°</text>
            <text x="328.395641" y="-307.999159">220°</text>
            <text x="282.557606" y="-291.315479">220°</text>
            <text x="236.271484" y="-308.775268">80°</text>
            <text x="228.249044" y="-259.960416">220°</text>
            <text x="190.881536" y="-228.605353">220°</text>
            <text x="141.415209" y="-229.181402">80°</text>
            <text x="150.572244" y="-180.56661">220°</text>
            <text x="126.182335" y="-138.322048">220°</text>
            <text x="79.502172" y="-121.944877">80°</text>
            <text x="104.734209" y="-79.393806">220°</text>
            <text x="25" y="133.782045">140°</text>
            <text x="66.84233" y="118.552683">140°</text>
            <text x="89.106169" y="79.990583">140°</text>
            <text x="81.374019" y="36.13938">140°</text>
            <text x="47.263839" y="7.517541">140°</text>
            <text x="2.736161" y="7.517541">140°</text>
            <text x="-31.374019" y="36.13938">140°</text>
            <text x="-39.106169" y="79.990583">140°</text>
            <text x="-16.84233" y="118.552683">140°</text>
        </g>
        <!-- Outer Angle Labels -->
        <g font-size="5" fill="orange" text-anchor="middle" dominant-baseline="middle">
            <text x="-2.736161" y="7.517541">80°</text>
            <text x="-45.230425" y="-28.13938">220°</text>
            <text x="-54.863093" y="-82.768954">220°</text>
            <text x="-27.126932" y="-130.809394">220°</text>
            <text x="25" y="-149.782045">80°</text>
            <text x="-1.679954" y="-192.904937">220°</text>
            <text x="7.898091" y="-242.285163">220°</text>
            <text x="47.868461" y="-274.414112">220°</text>
            <text x="99.720792" y="-273.980625">80°</text>
            <text x="90.288184" y="-323.453049">220°</text>
            <text x="115.630179" y="-366.658539">220°</text>
            <text x="163.509213" y="-383.428071">220°</text>
            <text x="211.525276" y="-365.780083">80°</text>
            <text x="219.875241" y="-415.218151">220°</text>
            <text x="258.45579" y="-447.193528">220°</text>
            <text x="309.061432" y="-446.780519">220°</text>
            <text x="348.022742" y="-414.088098">80°</text>
            <text x="372.892695" y="-457.508331">220°</text>
            <text x="420.124695" y="-474.378404">220°</text>
            <text x="467.542079" y="-456.821439">220°</text>
            <text x="492.971477" y="-412.986062">80°</text>
            <text x="531.249341" y="-445.158374">220°</text>
            <text x="581.457466" y="-444.864949">220°</text>
            <text x="620.060247" y="-412.245129">220°</text>
            <text x="629.008449" y="-362.50423">80°</text>
            <text x="676.018273" y="-379.552965">220°</text>
            <text x="723.158852" y="-362.104314">220°</text>
            <text x="748.346065" y="-318.313234">220°</text>
            <text x="739.805618" y="-268.617979">80°</text>
            <text x="789.841566" y="-268.485057">220°</text>
            <text x="828.235514" y="-235.954655">220°</text>
            <text x="837.003414" y="-186.229419">220°</text>
            <text x="812.050958" y="-142.529337">80°</text>
            <text x="859.052253" y="-125.222066">220°</text>
            <text x="884.069678" y="-81.499067">220°</text>
            <text x="875.38064" y="-31.792622">220°</text>
            <text x="837.056908" y="0.680899">80°</text>
            <text x="875.331464" y="33.090123">220°</text>
            <text x="883.94903" y="82.768954">220°</text>
            <text x="858.860006" y="126.504403">220°</text>
            <text x="811.809081" y="143.868442">80°</text>
            <text x="836.715011" y="187.491058">220°</text>
            <text x="827.879431" y="237.171664">220°</text>
            <text x="789.416594" y="269.701381">220°</text>
            <text x="739.330388" y="269.889505">80°</text>
            <text x="747.831719" y="319.488393">220°</text>
            <text x="722.585555" y="363.216032">220°</text>
            <text x="675.380993" y="380.653107">220°</text>
            <text x="628.31712" y="363.664711">80°</text>
            <text x="619.345737" y="413.28398">220°</text>
            <text x="580.700068" y="445.8196">220°</text>
            <text x="530.434623" y="446.092942">220°</text>
            <text x="492.090849" y="413.994064">80°</text>
            <text x="466.6699" y="457.674755">220°</text>
            <text x="419.238516" y="475.12443">220°</text>
            <text x="371.957954" y="458.227969">220°</text>
            <text x="346.992107" y="414.904085">80°</text>
            <text x="308.103707" y="447.398498">220°</text>
            <text x="257.541106" y="447.678949">220°</text>
            <text x="218.927449" y="415.67197">220°</text>
            <text x="210.407932" y="366.364273">80°</text>
            <text x="162.61481" y="383.759546">220°</text>
            <text x="114.919805" y="366.839499">220°</text>
            <text x="89.60217" y="323.597148">220°</text>
            <text x="98.664585" y="274.284705">80°</text>
            <text x="47.508277" y="274.445928">220°</text>
            <text x="8.25222" y="242.312129">220°</text>
            <text x="-0.784318" y="193.044776">220°</text>
            <text x="25" y="149.782045">80°</text>
            <text x="-23.873515" y="132.454848">220°</text>
            <text x="-50.444628" y="88.592841">220°</text>
            <text x="-42.556014" y="38.914722">220°</text>
        </g>
    </g>
</svg>