<svg width="290" height="299" viewBox="-45 -236.506351 290 299.807621" xmlns="http://www.w3.org/2000/svg">
    <g>
        <!-- Edges -->
        <g stroke="black" stroke-width="1.0">
            <line x1="0" y1="0" x2="50" y2="0"/>
            <line x1="50" y1="0" x2="75" y2="-43.30127"/>
            <line x1="75" y1="-43.30127" x2="50" y2="-86.60254"/>
            <line x1="50" y1="-86.60254" x2="0" y2="-86.60254"/>
            <line x1="0" y1="-86.60254" x2="-25" y2="-43.30127"/>
            <line x1="-25" y1="-43.30127" x2="0" y2="0"/>
            <line x1="0" y1="-86.60254" x2="-25" y2="-129.903811"/>
            <line x1="-25" y1="-129.903811" x2="0" y2="-173.205081"/>
            <line x1="0" y1="-173.205081" x2="50" y2="-173.205081"/>
            <line x1="50" y1="-173.205081" x2="75" y2="-129.903811"/>
            <line x1="75" y1="-129.903811" x2="50" y2="-86.60254"/>
            <line x1="50" y1="-173.205081" x2="75" y2="-216.506351"/>
            <line x1="75" y1="-216.506351" x2="125" y2="-216.506351"/>
            <line x1="125" y1="-216.506351" x2="150" y2="-173.205081"/>
            <line x1="150" y1="-173.205081" x2="125" y2="-129.903811"/>
            <line x1="125" y1="-129.903811" x2="75" y2="-129.903811"/>
            <line x1="150" y1="-173.205081" x2="200" y2="-173.205081"/>
            <line x1="200" y1="-173.205081" x2="225" y2="-129.903811"/>
            <line x1="225" y1="-129.903811" x2="200" y2="-86.60254"/>
            <line x1="200" y1="-86.60254" x2="150" y2="-86.60254"/>
            <line x1="150" y1="-86.60254" x2="125" y2="-129.903811"/>
            <line x1="200" y1="-86.60254" x2="225" y2="-43.30127"/>
            <line x1="225" y1="-43.30127" x2="200" y2="0"/>
            <line x1="200" y1="0" x2="150" y2="0"/>
            <line x1="150" y1="0" x2="125" y2="-43.30127"/>
            <line x1="125" y1="-43.30127" x2="150" y2="-86.60254"/>
            <line x1="125" y1="-43.30127" x2="75" y2="-43.30127"/>
            <line x1="150" y1="0" x2="125" y2="43.30127"/>
            <line x1="125" y1="43.30127" x2="75" y2="43.30127"/>
            <line x1="75" y1="43.30127" x2="50" y2="0"/>
        </g>
        <!-- Boundary Highlight -->
        <g stroke="red" stroke-width="3.0" fill="none">
            <polygon
                    points="0,0 -25,-43.30127 0,-86.60254 -25,-129.903811 0,-173.205081 50,-173.205081 75,-216.506351 125,-216.506351 150,-173.205081 200,-173.205081 225,-129.903811 200,-86.60254 225,-43.30127 200,0 150,0 125,43.30127 75,43.30127 50,0">
            </polygon>
        </g>
        <!-- Inner Face Half-Edge Direction Arrows -->
        <g fill="blue" stroke="blue" stroke-width="0.5">
            <polygon points="28,0 25,-1.2 25,1.2"/>
            <polygon points="64,-24.248711 61.46077,-22.250635 63.53923,-21.050635"/>
            <polygon points="61,-67.549981 61.46077,-64.351905 63.53923,-65.551905"/>
            <polygon points="22,-86.60254 25,-85.40254 25,-87.80254"/>
            <polygon points="-14,-62.353829 -11.46077,-64.351905 -13.53923,-65.551905"/>
            <polygon points="-11,-19.052559 -11.46077,-22.250635 -13.53923,-21.050635"/>
            <polygon points="28,-86.60254 25,-87.80254 25,-85.40254"/>
            <polygon points="64,-110.851252 61.46077,-108.853175 63.53923,-107.653175"/>
            <polygon points="61,-154.152522 61.46077,-150.954446 63.53923,-152.154446"/>
            <polygon points="22,-173.205081 25,-172.005081 25,-174.405081"/>
            <polygon points="-14,-148.956369 -11.46077,-150.954446 -13.53923,-152.154446"/>
            <polygon points="-11,-105.655099 -11.46077,-108.853175 -13.53923,-107.653175"/>
            <polygon points="64,-148.956369 63.53923,-152.154446 61.46077,-150.954446"/>
            <polygon points="103,-129.903811 100,-131.103811 100,-128.703811"/>
            <polygon points="139,-154.152522 136.46077,-152.154446 138.53923,-150.954446"/>
            <polygon points="136,-197.453792 136.46077,-194.255716 138.53923,-195.455716"/>
            <polygon points="97,-216.506351 100,-215.306351 100,-217.706351"/>
            <polygon points="61,-192.25764 63.53923,-194.255716 61.46077,-195.455716"/>
            <polygon points="136,-148.956369 138.53923,-150.954446 136.46077,-152.154446"/>
            <polygon points="139,-105.655099 138.53923,-108.853175 136.46077,-107.653175"/>
            <polygon points="178,-86.60254 175,-87.80254 175,-85.40254"/>
            <polygon points="214,-110.851252 211.46077,-108.853175 213.53923,-107.653175"/>
            <polygon points="211,-154.152522 211.46077,-150.954446 213.53923,-152.154446"/>
            <polygon points="172,-173.205081 175,-172.005081 175,-174.405081"/>
            <polygon points="172,-86.60254 175,-85.40254 175,-87.80254"/>
            <polygon points="136,-62.353829 138.53923,-64.351905 136.46077,-65.551905"/>
            <polygon points="139,-19.052559 138.53923,-22.250635 136.46077,-21.050635"/>
            <polygon points="178,0 175,-1.2 175,1.2"/>
            <polygon points="214,-24.248711 211.46077,-22.250635 213.53923,-21.050635"/>
            <polygon points="211,-67.549981 211.46077,-64.351905 213.53923,-65.551905"/>
            <polygon points="64,-62.353829 63.53923,-65.551905 61.46077,-64.351905"/>
            <polygon points="103,-43.30127 100,-44.50127 100,-42.10127"/>
            <polygon points="139,-67.549981 136.46077,-65.551905 138.53923,-64.351905"/>
            <polygon points="136,-110.851252 136.46077,-107.653175 138.53923,-108.853175"/>
            <polygon points="97,-129.903811 100,-128.703811 100,-131.103811"/>
            <polygon points="61,-105.655099 63.53923,-107.653175 61.46077,-108.853175"/>
            <polygon points="136,-24.248711 136.46077,-21.050635 138.53923,-22.250635"/>
            <polygon points="97,-43.30127 100,-42.10127 100,-44.50127"/>
            <polygon points="61,-19.052559 63.53923,-21.050635 61.46077,-22.250635"/>
            <polygon points="64,24.248711 63.53923,21.050635 61.46077,22.250635"/>
            <polygon points="103,43.30127 100,42.10127 100,44.50127"/>
            <polygon points="139,19.052559 136.46077,21.050635 138.53923,22.250635"/>
        </g>
        <!-- Outer Face Half-Edge Direction Arrows -->
        <g fill="black" stroke="black" stroke-width="0.5">
            <polygon points="-14,-24.248711 -13.53923,-21.050635 -11.46077,-22.250635"/>
            <polygon points="-11,-67.549981 -13.53923,-65.551905 -11.46077,-64.351905"/>
            <polygon points="-14,-110.851252 -13.53923,-107.653175 -11.46077,-108.853175"/>
            <polygon points="-11,-154.152522 -13.53923,-152.154446 -11.46077,-150.954446"/>
            <polygon points="28,-173.205081 25,-174.405081 25,-172.005081"/>
            <polygon points="64,-197.453792 61.46077,-195.455716 63.53923,-194.255716"/>
            <polygon points="103,-216.506351 100,-217.706351 100,-215.306351"/>
            <polygon points="139,-192.25764 138.53923,-195.455716 136.46077,-194.255716"/>
            <polygon points="178,-173.205081 175,-174.405081 175,-172.005081"/>
            <polygon points="214,-148.956369 213.53923,-152.154446 211.46077,-150.954446"/>
            <polygon points="211,-105.655099 213.53923,-107.653175 211.46077,-108.853175"/>
            <polygon points="214,-62.353829 213.53923,-65.551905 211.46077,-64.351905"/>
            <polygon points="211,-19.052559 213.53923,-21.050635 211.46077,-22.250635"/>
            <polygon points="172,0 175,1.2 175,-1.2"/>
            <polygon points="136,24.248711 138.53923,22.250635 136.46077,21.050635"/>
            <polygon points="97,43.30127 100,44.50127 100,42.10127"/>
            <polygon points="61,19.052559 61.46077,22.250635 63.53923,21.050635"/>
            <polygon points="22,-0 25,1.2 25,-1.2"/>
        </g>
        <!-- Vertices -->
        <g fill="red">
            <circle cx="0" cy="0" r="2.0"/>
            <circle cx="50" cy="0" r="2.0"/>
            <circle cx="75" cy="-43.30127" r="2.0"/>
            <circle cx="50" cy="-86.60254" r="2.0"/>
            <circle cx="0" cy="-86.60254" r="2.0"/>
            <circle cx="-25" cy="-43.30127" r="2.0"/>
            <circle cx="-25" cy="-129.903811" r="2.0"/>
            <circle cx="0" cy="-173.205081" r="2.0"/>
            <circle cx="50" cy="-173.205081" r="2.0"/>
            <circle cx="75" cy="-129.903811" r="2.0"/>
            <circle cx="75" cy="-216.506351" r="2.0"/>
            <circle cx="125" cy="-216.506351" r="2.0"/>
            <circle cx="150" cy="-173.205081" r="2.0"/>
            <circle cx="125" cy="-129.903811" r="2.0"/>
            <circle cx="200" cy="-173.205081" r="2.0"/>
            <circle cx="225" cy="-129.903811" r="2.0"/>
            <circle cx="200" cy="-86.60254" r="2.0"/>
            <circle cx="150" cy="-86.60254" r="2.0"/>
            <circle cx="225" cy="-43.30127" r="2.0"/>
            <circle cx="200" cy="0" r="2.0"/>
            <circle cx="150" cy="0" r="2.0"/>
            <circle cx="125" cy="-43.30127" r="2.0"/>
            <circle cx="125" cy="43.30127" r="2.0"/>
            <circle cx="75" cy="43.30127" r="2.0"/>
        </g>
        <!-- Vertex Labels -->
        <g font-size="8" fill="darkblue">
            <text x="2.5" y="-2.5">V1</text>
            <text x="52.5" y="-2.5">V2</text>
            <text x="77.5" y="-45.80127">V3</text>
            <text x="52.5" y="-89.10254">V4</text>
            <text x="2.5" y="-89.10254">V5</text>
            <text x="-22.5" y="-45.80127">V6</text>
            <text x="-22.5" y="-132.403811">V7</text>
            <text x="2.5" y="-175.705081">V8</text>
            <text x="52.5" y="-175.705081">V9</text>
            <text x="77.5" y="-132.403811">V10</text>
            <text x="77.5" y="-219.006351">V11</text>
            <text x="127.5" y="-219.006351">V12</text>
            <text x="152.5" y="-175.705081">V13</text>
            <text x="127.5" y="-132.403811">V14</text>
            <text x="202.5" y="-175.705081">V15</text>
            <text x="227.5" y="-132.403811">V16</text>
            <text x="202.5" y="-89.10254">V17</text>
            <text x="152.5" y="-89.10254">V18</text>
            <text x="227.5" y="-45.80127">V19</text>
            <text x="202.5" y="-2.5">V20</text>
            <text x="152.5" y="-2.5">V21</text>
            <text x="127.5" y="-45.80127">V22</text>
            <text x="127.5" y="40.80127">V23</text>
            <text x="77.5" y="40.80127">V24</text>
        </g>
        <!-- Face Labels -->
        <g font-size="6" fill="green" text-anchor="middle" dominant-baseline="middle">
            <text x="25" y="-43.30127">F1</text>
            <text x="25" y="-129.903811">F2</text>
            <text x="100" y="-173.205081">F3</text>
            <text x="175" y="-129.903811">F4</text>
            <text x="175" y="-43.30127">F5</text>
            <text x="100" y="-86.60254">F6</text>
            <text x="100" y="0">F7</text>
        </g>
        <!-- Inner Angle Labels -->
        <g font-size="5" fill="purple" text-anchor="middle" dominant-baseline="middle">
            <text x="4" y="-6.928203">120°</text>
            <text x="46" y="-6.928203">120°</text>
            <text x="67" y="-43.30127">120°</text>
            <text x="46" y="-79.674337">120°</text>
            <text x="4" y="-79.674337">120°</text>
            <text x="-17" y="-43.30127">120°</text>
            <text x="4" y="-93.530744">120°</text>
            <text x="46" y="-93.530744">120°</text>
            <text x="67" y="-129.903811">120°</text>
            <text x="46" y="-166.276878">120°</text>
            <text x="4" y="-166.276878">120°</text>
            <text x="-17" y="-129.903811">120°</text>
            <text x="58" y="-173.205081">120°</text>
            <text x="79" y="-136.832014">120°</text>
            <text x="121" y="-136.832014">120°</text>
            <text x="142" y="-173.205081">120°</text>
            <text x="121" y="-209.578148">120°</text>
            <text x="79" y="-209.578148">120°</text>
            <text x="154" y="-166.276878">120°</text>
            <text x="133" y="-129.903811">120°</text>
            <text x="154" y="-93.530744">120°</text>
            <text x="196" y="-93.530744">120°</text>
            <text x="217" y="-129.903811">120°</text>
            <text x="196" y="-166.276878">120°</text>
            <text x="196" y="-79.674337">120°</text>
            <text x="154" y="-79.674337">120°</text>
            <text x="133" y="-43.30127">120°</text>
            <text x="154" y="-6.928203">120°</text>
            <text x="196" y="-6.928203">120°</text>
            <text x="217" y="-43.30127">120°</text>
            <text x="58" y="-86.60254">120°</text>
            <text x="79" y="-50.229473">120°</text>
            <text x="121" y="-50.229473">120°</text>
            <text x="142" y="-86.60254">120°</text>
            <text x="121" y="-122.975607">120°</text>
            <text x="79" y="-122.975607">120°</text>
            <text x="142" y="0">120°</text>
            <text x="121" y="-36.373067">120°</text>
            <text x="79" y="-36.373067">120°</text>
            <text x="58" y="0">120°</text>
            <text x="79" y="36.373067">120°</text>
            <text x="121" y="36.373067">120°</text>
        </g>
        <!-- Outer Angle Labels -->
        <g font-size="5" fill="orange" text-anchor="middle" dominant-baseline="middle">
            <text x="-4" y="6.928203">240°</text>
            <text x="-33" y="-43.30127">240°</text>
            <text x="-4" y="-93.530744">120°</text>
            <text x="-29" y="-136.832014">240°</text>
            <text x="-1.511858" y="-181.060925">240°</text>
            <text x="51.511858" y="-181.060925">120°</text>
            <text x="77.218801" y="-224.192502">240°</text>
            <text x="129" y="-223.434554">240°</text>
            <text x="155.547002" y="-178.969694">120°</text>
            <text x="206.423641" y="-177.973397">240°</text>
            <text x="232.341303" y="-133.082688">240°</text>
            <text x="207.765803" y="-88.524078">120°</text>
            <text x="233" y="-43.30127">240°</text>
            <text x="207.765803" y="1.921538">240°</text>
            <text x="157.559289" y="2.618615">120°</text>
            <text x="131.047432" y="48.5385">240°</text>
            <text x="79" y="50.229473">240°</text>
            <text x="54" y="6.928203">120°</text>
        </g>
    </g>
</svg>