<svg width="90" height="133" viewBox="-20 -70 90 133.30127" xmlns="http://www.w3.org/2000/svg">
    <g>
        <!-- Edges -->
        <g stroke-width="1.0" stroke="black">
            <line x1="0" y1="0" x2="50" y2="0"/>
            <line x1="50" y1="0" x2="50" y2="-50"/>
            <line x1="50" y1="-50" x2="0" y2="-50"/>
            <line x1="0" y1="-50" x2="0" y2="0"/>
            <line x1="0" y1="0" x2="25" y2="-43.30127"/>
            <line x1="25" y1="-43.30127" x2="50" y2="0"/>
            <line x1="50" y1="0" x2="25" y2="43.30127"/>
            <line x1="25" y1="43.30127" x2="0" y2="0"/>
        </g>
        <!-- Boundary Highlight -->
        <g fill="none" stroke-width="3.0" stroke="red">
            <polygon points="0,0 0,-50 50,-50 50,0 25,43.30127"/>
        </g>
        <!-- Inner Face Half-Edge Direction Arrows -->
        <g stroke-width="0.5" stroke="blue" fill="blue">
            <polygon points="14,-24.248711 11.46077,-22.250635 13.53923,-21.050635"/>
            <polygon points="39,-19.052559 38.53923,-22.250635 36.46077,-21.050635"/>
            <polygon points="50,-28 48.8,-25 51.2,-25"/>
            <polygon points="22,-50 25,-48.8 25,-51.2"/>
            <polygon points="0,-22 1.2,-25 -1.2,-25"/>
            <polygon points="28,0 25,-1.2 25,1.2"/>
            <polygon points="36,-24.248711 36.46077,-21.050635 38.53923,-22.250635"/>
            <polygon points="11,-19.052559 13.53923,-21.050635 11.46077,-22.250635"/>
            <polygon points="22,-0 25,1.2 25,-1.2"/>
            <polygon points="14,24.248711 13.53923,21.050635 11.46077,22.250635"/>
            <polygon points="39,19.052559 36.46077,21.050635 38.53923,22.250635"/>
        </g>
        <!-- Outer Face Half-Edge Direction Arrows -->
        <g stroke-width="0.5" stroke="black" fill="black">
            <polygon points="0,-28 -1.2,-25 1.2,-25"/>
            <polygon points="28,-50 25,-51.2 25,-48.8"/>
            <polygon points="50,-22 51.2,-25 48.8,-25"/>
            <polygon points="36,24.248711 38.53923,22.250635 36.46077,21.050635"/>
            <polygon points="11,19.052559 11.46077,22.250635 13.53923,21.050635"/>
        </g>
        <!-- Vertices -->
        <g fill="red">
            <circle cx="0" cy="0" r="2.0"/>
            <circle cx="50" cy="0" r="2.0"/>
            <circle cx="50" cy="-50" r="2.0"/>
            <circle cx="0" cy="-50" r="2.0"/>
            <circle cx="25" cy="-43.30127" r="2.0"/>
            <circle cx="25" cy="43.30127" r="2.0"/>
        </g>
        <!-- Vertex Labels -->
        <g fill="darkblue" font-size="8">
            <text x="2.5" y="-2.5">V1</text>
            <text x="52.5" y="-2.5">V2</text>
            <text x="52.5" y="-52.5">V3</text>
            <text x="2.5" y="-52.5">V4</text>
            <text x="27.5" y="-45.80127">V5</text>
            <text x="27.5" y="40.80127">V6</text>
        </g>
        <!-- Face Labels -->
        <g dominant-baseline="middle" text-anchor="middle" fill="green" font-size="6">
            <text x="25" y="-28.660254">F1</text>
            <text x="25" y="-14.433757">F2</text>
            <text x="25" y="14.433757">F3</text>
        </g>
        <!-- Inner Angle Labels -->
        <g dominant-baseline="middle" text-anchor="middle" fill="purple" font-size="5">
            <text x="5.258771" y="-6.028709">30°</text>
            <text x="25" y="-35.30127">300°</text>
            <text x="44.741229" y="-6.028709">30°</text>
            <text x="43.915278" y="-44.806143">90°</text>
            <text x="6.084722" y="-44.806143">90°</text>
            <text x="6.928203" y="-4">60°</text>
            <text x="43.071797" y="-4">60°</text>
            <text x="25" y="-35.30127">60°</text>
            <text x="43.071797" y="4">60°</text>
            <text x="6.928203" y="4">60°</text>
            <text x="25" y="35.30127">60°</text>
        </g>
        <!-- Outer Angle Labels -->
        <g dominant-baseline="middle" text-anchor="middle" fill="orange" font-size="5">
            <text x="-5.258771" y="6.028709">210°</text>
            <text x="-6.084722" y="-55.193857">270°</text>
            <text x="56.084722" y="-55.193857">270°</text>
            <text x="55.258771" y="6.028709">210°</text>
            <text x="25" y="51.30127">300°</text>
        </g>
    </g>
</svg>
