<svg width="115" height="83" viewBox="-45 -63.3 115 83.3" xmlns="http://www.w3.org/2000/svg">
  <g>
    <!-- Edges -->
    <g stroke-width="1.0" stroke="black">
      <line x1="0" y1="0" x2="50" y2="0"/>
      <line x1="50" y1="0" x2="25" y2="-43.3"/>
      <line x1="25" y1="-43.3" x2="0" y2="0"/>
      <line x1="0" y1="0" x2="-25" y2="-43.3"/>
      <line x1="-25" y1="-43.3" x2="25" y2="-43.3"/>
    </g>
    <!-- Boundary Highlight -->
    <g fill="none" stroke-width="3.0" stroke="red">
      <polygon points="50,0 0,0 -25,-43.3 25,-43.3"/>
    </g>
    <!-- Inner Face Half-Edge Direction Arrows -->
    <g stroke-width="0.5" stroke="blue" fill="blue">
      <polygon points="28,0 25,-1.2 25,1.2"/>
      <polygon points="35.999967,-24.248057 36.460777,-21.049987 38.539223,-22.250013"/>
      <polygon points="10.999967,-19.051943 13.539223,-21.049987 11.460777,-22.250013"/>
      <polygon points="14.000033,-24.248057 11.460777,-22.250013 13.539223,-21.049987"/>
      <polygon points="-3,-43.3 -0,-42.1 0,-44.5"/>
      <polygon points="-10.999967,-19.051943 -11.460777,-22.250013 -13.539223,-21.049987"/>
    </g>
    <!-- Outer Face Half-Edge Direction Arrows -->
    <g stroke-width="0.5" stroke="black" fill="black">
      <polygon points="22,-0 25,1.2 25,-1.2"/>
      <polygon points="-14.000033,-24.248057 -13.539223,-21.049987 -11.460777,-22.250013"/>
      <polygon points="3,-43.3 0,-44.5 -0,-42.1"/>
      <polygon points="39.000033,-19.051943 38.539223,-22.250013 36.460777,-21.049987"/>
    </g>
    <!-- Half-Edge Face Traversal -->
    <g stroke-width="0.5" stroke="darkcyan" fill="darkcyan">
      <polygon points="32.500028,-12.990048 30.383981,-11.325011 32.116019,-10.324989"/>
      <polygon points="22.5,-21.65 25,-20.65 25,-22.65"/>
      <polygon points="20.000028,-8.659952 19.616019,-11.325011 17.883981,-10.324989"/>
      <polygon points="4.999972,-34.640048 5.383981,-31.974989 7.116019,-32.975011"/>
      <polygon points="-7.500028,-30.309952 -5.383981,-31.974989 -7.116019,-32.975011"/>
      <polygon points="2.5,-21.65 0,-22.65 -0,-20.65"/>
    </g>
    <!-- Leaving Edge Markers -->
    <g stroke-width="1.5" stroke="yellow" fill="yellow">
      <polygon points="14.5,0 12.5,-0.8 12.5,0.8"/>
      <polygon points="42.749978,-12.557038 43.057185,-10.424991 44.442815,-11.225009"/>
      <polygon points="17.749978,-30.742962 19.442815,-32.074991 18.057185,-32.875009"/>
      <polygon points="-17.749978,-30.742962 -18.057185,-32.875009 -19.442815,-32.074991"/>
    </g>
    <!-- Face Ids On Edges Labels -->
    <g fill="blue" alignment-baseline="middle" text-anchor="middle" font-size="4">
      <text x="25" y="-4">F1</text>
      <text x="25" y="4">F0</text>
      <text x="34.035924" y="-19.649956">F1</text>
      <text x="40.964076" y="-23.650044">F0</text>
      <text x="15.964076" y="-19.649956">F1</text>
      <text x="9.035924" y="-23.650044">F2</text>
      <text x="-15.964076" y="-19.649956">F0</text>
      <text x="-9.035924" y="-23.650044">F2</text>
      <text x="0" y="-47.3">F0</text>
      <text x="0" y="-39.3">F2</text>
    </g>
    <!-- Vertices -->
    <g fill="red">
      <circle cx="0" cy="0" r="2.0"/>
      <circle cx="50" cy="0" r="2.0"/>
      <circle cx="25" cy="-43.3" r="2.0"/>
      <circle cx="-25" cy="-43.3" r="2.0"/>
    </g>
    <!-- Vertex Labels -->
    <g fill="darkblue" font-size="8">
      <text x="2.5" y="-2.5">V1</text>
      <text x="52.5" y="-2.5">V2</text>
      <text x="27.5" y="-45.8">V3</text>
      <text x="-22.5" y="-45.8">V4</text>
    </g>
    <!-- Face Labels -->
    <g dominant-baseline="middle" text-anchor="middle" fill="green" font-size="6">
      <text x="25" y="-14.433333">F1</text>
      <text x="0" y="-28.866667">F2</text>
    </g>
    <!-- Inner Angle Labels -->
    <g dominant-baseline="middle" text-anchor="middle" fill="purple" font-size="5">
      <text x="6.928254" y="-3.999912">60°</text>
      <text x="43.071746" y="-3.999912">60°</text>
      <text x="25" y="-35.3">60°</text>
      <text x="0" y="-8">60°</text>
      <text x="18.071746" y="-39.300088">60°</text>
      <text x="-18.071746" y="-39.300088">60°</text>
    </g>
    <!-- Outer Angle Labels -->
    <g dominant-baseline="middle" text-anchor="middle" fill="orange" font-size="5">
      <text x="56.928254" y="3.999912">300°</text>
      <text x="-6.928254" y="3.999912">240°</text>
      <text x="-31.928254" y="-47.299912">300°</text>
      <text x="25" y="-51.3">240°</text>
    </g>
  </g>
</svg>