<svg width="90" height="133" viewBox="-20 -113.30127 90 133.30127" xmlns="http://www.w3.org/2000/svg">
    <g>
        <!-- Edges -->
        <g stroke-width="1.0" stroke="black">
            <line x1="0" y1="0" x2="50" y2="0"/>
            <line x1="50" y1="0" x2="50" y2="-50"/>
            <line x1="50" y1="-50" x2="25" y2="-6.69873"/>
            <line x1="25" y1="-6.69873" x2="-0" y2="-50"/>
            <line x1="-0" y1="-50" x2="0" y2="0"/>
            <line x1="-0" y1="-50" x2="50" y2="-50"/>
            <line x1="-0" y1="-50" x2="25" y2="-93.30127"/>
            <line x1="25" y1="-93.30127" x2="50" y2="-50"/>
        </g>
        <!-- Boundary Highlight -->
        <g fill="none" stroke-width="3.0" stroke="red">
            <polygon points="0,0 -0,-50 25,-93.30127 50,-50 50,0"/>
        </g>
        <!-- Inner Face Half-Edge Direction Arrows -->
        <g stroke-width="0.5" stroke="blue" fill="blue">
            <polygon points="28,0 25,-1.2 25,1.2"/>
            <polygon points="50,-28 48.8,-25 51.2,-25"/>
            <polygon points="36,-25.751289 38.53923,-27.749365 36.46077,-28.949365"/>
            <polygon points="11,-30.947441 11.46077,-27.749365 13.53923,-28.949365"/>
            <polygon points="-0,-22 1.2,-25 -1.2,-25"/>
            <polygon points="39,-30.947441 36.46077,-28.949365 38.53923,-27.749365"/>
            <polygon points="22,-50 25,-48.8 25,-51.2"/>
            <polygon points="14,-25.751289 13.53923,-28.949365 11.46077,-27.749365"/>
            <polygon points="28,-50 25,-51.2 25,-48.8"/>
            <polygon points="36,-74.248711 36.46077,-71.050635 38.53923,-72.250635"/>
            <polygon points="11,-69.052559 13.53923,-71.050635 11.46077,-72.250635"/>
        </g>
        <!-- Outer Face Half-Edge Direction Arrows -->
        <g stroke-width="0.5" stroke="black" fill="black">
            <polygon points="-0,-28 -1.2,-25 1.2,-25"/>
            <polygon points="14,-74.248711 11.46077,-72.250635 13.53923,-71.050635"/>
            <polygon points="39,-69.052559 38.53923,-72.250635 36.46077,-71.050635"/>
            <polygon points="50,-22 51.2,-25 48.8,-25"/>
            <polygon points="22,-0 25,1.2 25,-1.2"/>
        </g>
        <!-- Leaving Edge Markers -->
        <g stroke-width="1.5" stroke="yellow" fill="yellow">
            <polygon points="14.5,0 12.5,-0.8 12.5,0.8"/>
            <polygon points="50,-14.5 49.2,-12.5 50.8,-12.5"/>
            <polygon points="42.75,-37.442632 44.44282,-38.774682 43.05718,-39.574682"/>
            <polygon points="17.75,-19.256098 18.05718,-17.124047 19.44282,-17.924047"/>
            <polygon points="7.25,-62.557368 5.55718,-61.225318 6.94282,-60.425318"/>
            <polygon points="32.25,-80.743902 31.94282,-82.875953 30.55718,-82.075953"/>
        </g>
        <!-- Face Ids On Edges Labels -->
        <g fill="blue" alignment-baseline="middle" text-anchor="middle" font-size="4">
            <text x="25" y="-4">F1</text>
            <text x="46" y="-25">F1</text>
            <text x="40.964102" y="-26.349365">F1</text>
            <text x="9.035898" y="-26.349365">F1</text>
            <text x="4" y="-25">F1</text>
            <text x="-4" y="-25">F0</text>
            <text x="25" y="4">F0</text>
            <text x="54" y="-25">F0</text>
            <text x="34.035898" y="-30.349365">F2</text>
            <text x="15.964102" y="-30.349365">F2</text>
            <text x="25" y="-54">F3</text>
            <text x="25" y="-46">F2</text>
            <text x="9.035898" y="-73.650635">F0</text>
            <text x="40.964102" y="-73.650635">F0</text>
            <text x="15.964102" y="-69.650635">F3</text>
            <text x="34.035898" y="-69.650635">F3</text>
        </g>
        <!-- Vertices -->
        <g fill="red">
            <circle cx="0" cy="0" r="2.0"/>
            <circle cx="50" cy="0" r="2.0"/>
            <circle cx="50" cy="-50" r="2.0"/>
            <circle cx="25" cy="-6.69873" r="2.0"/>
            <circle cx="-0" cy="-50" r="2.0"/>
            <circle cx="25" cy="-93.30127" r="2.0"/>
        </g>
        <!-- Vertex Labels -->
        <g fill="darkblue" font-size="8">
            <text x="2.5" y="-2.5">V1</text>
            <text x="52.5" y="-2.5">V2</text>
            <text x="52.5" y="-52.5">V3</text>
            <text x="27.5" y="-9.19873">V4</text>
            <text x="2.5" y="-52.5">V5</text>
            <text x="27.5" y="-95.80127">V6</text>
        </g>
        <!-- Face Labels -->
        <g dominant-baseline="middle" text-anchor="middle" fill="green" font-size="6">
            <text x="25" y="-21.339746">F1</text>
            <text x="25" y="-35.566243">F2</text>
            <text x="25" y="-64.433757">F3</text>
        </g>
        <!-- Inner Angle Labels -->
        <g dominant-baseline="middle" text-anchor="middle" fill="purple" font-size="5">
            <text x="6.084722" y="-5.193857">90°</text>
            <text x="43.915278" y="-5.193857">90°</text>
            <text x="44.741229" y="-43.971291">30°</text>
            <text x="25" y="-14.69873">300°</text>
            <text x="5.258771" y="-43.971291">30°</text>
            <text x="25" y="-14.69873">60°</text>
            <text x="43.071797" y="-46">60°</text>
            <text x="6.928203" y="-46">60°</text>
            <text x="6.928203" y="-54">60°</text>
            <text x="43.071797" y="-54">60°</text>
            <text x="25" y="-85.30127">60°</text>
        </g>
        <!-- Outer Angle Labels -->
        <g dominant-baseline="middle" text-anchor="middle" fill="orange" font-size="5">
            <text x="-6.084722" y="5.193857">270°</text>
            <text x="-5.258771" y="-56.028709">210°</text>
            <text x="25" y="-101.30127">300°</text>
            <text x="55.258771" y="-56.028709">210°</text>
            <text x="56.084722" y="5.193857">270°</text>
        </g>
    </g>
</svg>
