<svg width="139" height="126" viewBox="-70 -63.30127 140 126.60254" xmlns="http://www.w3.org/2000/svg">
    <g>
        <!-- Edges -->
        <g stroke-width="1.0" stroke="black">
            <line x1="0" y1="0" x2="50" y2="0"/>
            <line x1="50" y1="0" x2="25" y2="-43.30127"/>
            <line x1="-25" y1="-43.30127" x2="25" y2="-43.30127"/>
            <line x1="-50" y1="-0" x2="-25" y2="-43.30127"/>
            <line x1="-25" y1="43.30127" x2="-50" y2="-0"/>
            <line x1="0" y1="0" x2="25" y2="43.30127"/>
            <line x1="25" y1="43.30127" x2="-25" y2="43.30127"/>
            <line x1="50" y1="0" x2="25" y2="43.30127"/>
        </g>
        <!-- Boundary Highlight -->
        <g fill="none" stroke-width="3.0" stroke="red">
            <polygon points="50,0 25,43.30127 -25,43.30127 -50,-0 -25,-43.30127 25,-43.30127"/>
        </g>
        <!-- Inner Face Half-Edge Direction Arrows -->
        <g stroke-width="0.5" stroke="blue" fill="blue">
            <polygon points="3,43.30127 -0,42.10127 -0,44.50127"/>
            <polygon points="11,19.052559 11.46077,22.250635 13.53923,21.050635"/>
            <polygon points="28,0 25,-1.2 25,1.2"/>
            <polygon points="36,-24.248711 36.46077,-21.050635 38.53923,-22.250635"/>
            <polygon points="-3,-43.30127 0,-42.10127 0,-44.50127"/>
            <polygon points="-39,-19.052559 -36.46077,-21.050635 -38.53923,-22.250635"/>
            <polygon points="-36,24.248711 -36.46077,21.050635 -38.53923,22.250635"/>
            <polygon points="14,24.248711 13.53923,21.050635 11.46077,22.250635"/>
            <polygon points="39,19.052559 36.46077,21.050635 38.53923,22.250635"/>
            <polygon points="22,-0 25,1.2 25,-1.2"/>
        </g>
        <!-- Outer Face Half-Edge Direction Arrows -->
        <g stroke-width="0.5" stroke="black" fill="black">
            <polygon points="36,24.248711 38.53923,22.250635 36.46077,21.050635"/>
            <polygon points="-3,43.30127 -0,44.50127 -0,42.10127"/>
            <polygon points="-39,19.052559 -38.53923,22.250635 -36.46077,21.050635"/>
            <polygon points="-36,-24.248711 -38.53923,-22.250635 -36.46077,-21.050635"/>
            <polygon points="3,-43.30127 0,-44.50127 0,-42.10127"/>
            <polygon points="39,-19.052559 38.53923,-22.250635 36.46077,-21.050635"/>
        </g>
        <!-- Half-Edge Face Traversal -->
        <g stroke-width="0.5" stroke="darkcyan" fill="darkcyan">
            <polygon points="7.5,30.310889 5.383975,31.975953 7.116025,32.975953"/>
            <polygon points="20,8.660254 17.883975,10.325318 19.616025,11.325318"/>
            <polygon points="32.5,-12.990381 30.383975,-11.325318 32.116025,-10.325318"/>
            <polygon points="16.584936,-33.725953 18.25,-31.609927 19.25,-33.341978"/>
            <polygon points="-20.915064,-31.225953 -18.25,-31.609927 -19.25,-33.341978"/>
            <polygon points="-37.5,2.5 -36.5,-0 -38.5,-0"/>
            <polygon points="-16.584936,33.725953 -18.25,31.609927 -19.25,33.341978"/>
            <polygon points="27.5,21.650635 25,20.650635 25,22.650635"/>
            <polygon points="30,8.660254 30.383975,11.325318 32.116025,10.325318"/>
            <polygon points="17.5,12.990381 19.616025,11.325318 17.883975,10.325318"/>
        </g>
        <!-- Leaving Edge Markers -->
        <g stroke-width="1.5" stroke="yellow" fill="yellow">
            <polygon points="7.25,12.557368 6.94282,10.425318 5.55718,11.225318"/>
            <polygon points="42.75,12.557368 44.44282,11.225318 43.05718,10.425318"/>
            <polygon points="10.5,-43.30127 12.5,-42.50127 12.5,-44.10127"/>
            <polygon points="-10.5,-43.30127 -12.5,-44.10127 -12.5,-42.50127"/>
            <polygon points="-42.75,-12.557368 -44.44282,-11.225318 -43.05718,-10.425318"/>
            <polygon points="-32.25,30.743902 -31.94282,32.875953 -30.55718,32.075953"/>
            <polygon points="10.5,43.30127 12.5,44.10127 12.5,42.50127"/>
        </g>
        <!-- Face Ids On Edges Labels -->
        <g fill="blue" alignment-baseline="middle" text-anchor="middle" font-size="4">
            <text x="25" y="-4">F5</text>
            <text x="34.035898" y="-19.650635">F5</text>
            <text x="25" y="4">F6</text>
            <text x="40.964102" y="-23.650635">F0</text>
            <text x="0" y="-47.30127">F0</text>
            <text x="0" y="-39.30127">F5</text>
            <text x="-40.964102" y="-23.650635">F0</text>
            <text x="-34.035898" y="-19.650635">F5</text>
            <text x="-40.964102" y="23.650635">F0</text>
            <text x="-34.035898" y="19.650635">F5</text>
            <text x="15.964102" y="19.650635">F6</text>
            <text x="0" y="47.30127">F0</text>
            <text x="9.035898" y="23.650635">F5</text>
            <text x="0" y="39.30127">F5</text>
            <text x="40.964102" y="23.650635">F0</text>
            <text x="34.035898" y="19.650635">F6</text>
        </g>
        <!-- Vertices -->
        <g fill="red">
            <circle cx="0" cy="0" r="2.0"/>
            <circle cx="50" cy="0" r="2.0"/>
            <circle cx="25" cy="-43.30127" r="2.0"/>
            <circle cx="-25" cy="-43.30127" r="2.0"/>
            <circle cx="-50" cy="-0" r="2.0"/>
            <circle cx="-25" cy="43.30127" r="2.0"/>
            <circle cx="25" cy="43.30127" r="2.0"/>
        </g>
        <!-- Vertex Labels -->
        <g fill="darkblue" font-size="8">
            <text x="2.5" y="-2.5">V1</text>
            <text x="52.5" y="-2.5">V2</text>
            <text x="27.5" y="-45.80127">V3</text>
            <text x="-22.5" y="-45.80127">V4</text>
            <text x="-47.5" y="-2.5">V5</text>
            <text x="-22.5" y="40.80127">V6</text>
            <text x="27.5" y="40.80127">V7</text>
        </g>
        <!-- Face Labels -->
        <g dominant-baseline="middle" text-anchor="middle" fill="green" font-size="6">
            <text x="-0" y="-0">F5</text>
            <text x="25" y="14.433757">F6</text>
        </g>
        <!-- Inner Angle Labels -->
        <g dominant-baseline="middle" text-anchor="middle" fill="purple" font-size="5">
            <text x="-21" y="36.373067">120°</text>
            <text x="21" y="36.373067">60°</text>
            <text x="-6.734639" y="-4.317944">300°</text>
            <text x="42" y="-0">60°</text>
            <text x="21" y="-36.373067">120°</text>
            <text x="-21" y="-36.373067">120°</text>
            <text x="-42" y="-0">120°</text>
            <text x="6.928203" y="4">60°</text>
            <text x="25" y="35.30127">60°</text>
            <text x="43.071797" y="4">60°</text>
        </g>
        <!-- Outer Angle Labels -->
        <g dominant-baseline="middle" text-anchor="middle" fill="orange" font-size="5">
            <text x="58" y="0">240°</text>
            <text x="29" y="50.229473">240°</text>
            <text x="-29" y="50.229473">240°</text>
            <text x="-58" y="-0">240°</text>
            <text x="-29" y="-50.229473">240°</text>
            <text x="29" y="-50.229473">240°</text>
        </g>
    </g>
</svg>