<svg width="162" height="255" viewBox="-55 -225.932667 162.5 255.932667" xmlns="http://www.w3.org/2000/svg">
    <g>
        <g>
            <!-- Boundary Highlight -->
            <g stroke="red" stroke-width="3.0" fill="none">
                <polygon points="0,0 50,0 50,-50 25,-93.30127 -25,-93.30127 -0,-50"/>
            </g>
            <!-- Vertices -->
            <g fill="darkred">
                <circle cx="0" cy="0" r="2.0"/>
                <circle cx="50" cy="0" r="2.0"/>
                <circle cx="50" cy="-50" r="2.0"/>
                <circle cx="25" cy="-93.30127" r="2.0"/>
                <circle cx="-25" cy="-93.30127" r="2.0"/>
                <circle cx="-0" cy="-50" r="2.0"/>
            </g>
            <!-- Vertex Labels -->
            <g font-size="8" fill="blue">
                <text x="2.5" y="-2.5">0</text>
                <text x="52.5" y="-2.5">1</text>
                <text x="52.5" y="-52.5">2</text>
                <text x="27.5" y="-95.80127">3</text>
                <text x="-22.5" y="-95.80127">4</text>
                <text x="2.5" y="-52.5">5</text>
            </g>
        </g>
    </g>
    <g transform="translate(55.00, 0.00)">
        <g>
            <!-- Boundary Highlight -->
            <g stroke="red" stroke-width="3.0" fill="none">
                <polygon points="0,0 50,0 50,-50 25,-93.30127 -25,-93.30127 -0,-50"/>
            </g>
            <!-- Vertices -->
            <g fill="darkred">
                <circle cx="0" cy="0" r="2.0"/>
                <circle cx="50" cy="0" r="2.0"/>
                <circle cx="50" cy="-50" r="2.0"/>
                <circle cx="25" cy="-93.30127" r="2.0"/>
                <circle cx="-25" cy="-93.30127" r="2.0"/>
                <circle cx="-0" cy="-50" r="2.0"/>
            </g>
            <!-- Vertex Labels -->
            <g font-size="8" fill="blue">
                <text x="2.5" y="-2.5">0</text>
                <text x="52.5" y="-2.5">1</text>
                <text x="52.5" y="-52.5">2</text>
                <text x="27.5" y="-95.80127">3</text>
                <text x="-22.5" y="-95.80127">4</text>
                <text x="2.5" y="-52.5">5</text>
            </g>
        </g>
    </g>
    <g transform="translate(-27.49999999999998487248173243565149, -102.6313972081441505467277802209139)">
        <g>
            <!-- Boundary Highlight -->
            <g stroke="red" stroke-width="3.0" fill="none">
                <polygon points="0,0 50,0 50,-50 25,-93.30127 -25,-93.30127 -0,-50"/>
            </g>
            <!-- Vertices -->
            <g fill="darkred">
                <circle cx="0" cy="0" r="2.0"/>
                <circle cx="50" cy="0" r="2.0"/>
                <circle cx="50" cy="-50" r="2.0"/>
                <circle cx="25" cy="-93.30127" r="2.0"/>
                <circle cx="-25" cy="-93.30127" r="2.0"/>
                <circle cx="-0" cy="-50" r="2.0"/>
            </g>
            <!-- Vertex Labels -->
            <g font-size="8" fill="blue">
                <text x="2.5" y="-2.5">0</text>
                <text x="52.5" y="-2.5">1</text>
                <text x="52.5" y="-52.5">2</text>
                <text x="27.5" y="-95.80127">3</text>
                <text x="-22.5" y="-95.80127">4</text>
                <text x="2.5" y="-52.5">5</text>
            </g>
        </g>
    </g>
    <g transform="translate(27.50000000000001512751826756434851, -102.6313972081441505467277802209139)">
        <g>
            <!-- Boundary Highlight -->
            <g stroke="red" stroke-width="3.0" fill="none">
                <polygon points="0,0 50,0 50,-50 25,-93.30127 -25,-93.30127 -0,-50"/>
            </g>
            <!-- Vertices -->
            <g fill="darkred">
                <circle cx="0" cy="0" r="2.0"/>
                <circle cx="50" cy="0" r="2.0"/>
                <circle cx="50" cy="-50" r="2.0"/>
                <circle cx="25" cy="-93.30127" r="2.0"/>
                <circle cx="-25" cy="-93.30127" r="2.0"/>
                <circle cx="-0" cy="-50" r="2.0"/>
            </g>
            <!-- Vertex Labels -->
            <g font-size="8" fill="blue">
                <text x="2.5" y="-2.5">0</text>
                <text x="52.5" y="-2.5">1</text>
                <text x="52.5" y="-52.5">2</text>
                <text x="27.5" y="-95.80127">3</text>
                <text x="-22.5" y="-95.80127">4</text>
                <text x="2.5" y="-52.5">5</text>
            </g>
        </g>
    </g>
</svg>