<svg
        width="301" height="401" viewBox="-100.710678 -371.421356 301.421356 401.421356" xmlns="http://www.w3.org/2000/svg">
    <g>
        <!-- Boundary Highlight -->
        <g stroke="red" stroke-width="3.0" fill="none">
            <polygon
                    points="0,0 50,0 100,0 100,-50 100,-100 135.355339,-135.355339 170.710678,-170.710678 170.710678,-220.710678 170.710678,-270.710678 135.355339,-306.066017 100,-341.421356 50,-341.421356 0,-341.421356 -35.355339,-306.066017 -70.710678,-270.710678 -70.710678,-220.710678 -70.710678,-170.710678 -35.355339,-135.355339 -0,-100 -0,-50">
            </polygon>
        </g>
        <!-- Vertices -->
        <g fill="darkred">
            <circle cx="0" cy="0" r="2.0"/>
            <circle cx="50" cy="0" r="2.0"/>
            <circle cx="100" cy="0" r="2.0"/>
            <circle cx="100" cy="-50" r="2.0"/>
            <circle cx="100" cy="-100" r="2.0"/>
            <circle cx="135.355339" cy="-135.355339" r="2.0"/>
            <circle cx="170.710678" cy="-170.710678" r="2.0"/>
            <circle cx="170.710678" cy="-220.710678" r="2.0"/>
            <circle cx="170.710678" cy="-270.710678" r="2.0"/>
            <circle cx="135.355339" cy="-306.066017" r="2.0"/>
            <circle cx="100" cy="-341.421356" r="2.0"/>
            <circle cx="50" cy="-341.421356" r="2.0"/>
            <circle cx="0" cy="-341.421356" r="2.0"/>
            <circle cx="-35.355339" cy="-306.066017" r="2.0"/>
            <circle cx="-70.710678" cy="-270.710678" r="2.0"/>
            <circle cx="-70.710678" cy="-220.710678" r="2.0"/>
            <circle cx="-70.710678" cy="-170.710678" r="2.0"/>
            <circle cx="-35.355339" cy="-135.355339" r="2.0"/>
            <circle cx="-0" cy="-100" r="2.0"/>
            <circle cx="-0" cy="-50" r="2.0"/>
        </g>
        <!-- Vertex Labels -->
        <g font-size="8" fill="blue">
            <text x="2.5" y="-2.5">0</text>
            <text x="52.5" y="-2.5">1</text>
            <text x="102.5" y="-2.5">2</text>
            <text x="102.5" y="-52.5">3</text>
            <text x="102.5" y="-102.5">4</text>
            <text x="137.855339" y="-137.855339">5</text>
            <text x="173.210678" y="-173.210678">6</text>
            <text x="173.210678" y="-223.210678">7</text>
            <text x="173.210678" y="-273.210678">8</text>
            <text x="137.855339" y="-308.566017">9</text>
            <text x="102.5" y="-343.921356">10</text>
            <text x="52.5" y="-343.921356">11</text>
            <text x="2.5" y="-343.921356">12</text>
            <text x="-32.855339" y="-308.566017">13</text>
            <text x="-68.210678" y="-273.210678">14</text>
            <text x="-68.210678" y="-223.210678">15</text>
            <text x="-68.210678" y="-173.210678">16</text>
            <text x="-32.855339" y="-137.855339">17</text>
            <text x="2.5" y="-102.5">18</text>
            <text x="2.5" y="-52.5">19</text>
        </g>
    </g>
</svg>