<svg width="410" height="319" viewBox="-80 -289.807621 410 319.807621" xmlns="http://www.w3.org/2000/svg">
    <g>
        <!-- Boundary Highlight -->
        <g stroke="red" stroke-width="3.0" fill="none">
            <polygon
                    points="0,0 50,0 100,0 125,-43.30127 150,-86.60254 200,-86.60254 250,-86.60254 275,-129.903811 300,-173.205081 275,-216.506351 250,-259.807621 200,-259.807621 150,-259.807621 125,-216.506351 100,-173.205081 50,-173.205081 0,-173.205081 -25,-129.903811 -50,-86.60254 -25,-43.30127">
            </polygon>
        </g>
        <!-- Vertices -->
        <g fill="red">
            <circle cx="0" cy="0" r="2.0"/>
            <circle cx="50" cy="0" r="2.0"/>
            <circle cx="100" cy="0" r="2.0"/>
            <circle cx="125" cy="-43.30127" r="2.0"/>
            <circle cx="150" cy="-86.60254" r="2.0"/>
            <circle cx="200" cy="-86.60254" r="2.0"/>
            <circle cx="250" cy="-86.60254" r="2.0"/>
            <circle cx="275" cy="-129.903811" r="2.0"/>
            <circle cx="300" cy="-173.205081" r="2.0"/>
            <circle cx="275" cy="-216.506351" r="2.0"/>
            <circle cx="250" cy="-259.807621" r="2.0"/>
            <circle cx="200" cy="-259.807621" r="2.0"/>
            <circle cx="150" cy="-259.807621" r="2.0"/>
            <circle cx="125" cy="-216.506351" r="2.0"/>
            <circle cx="100" cy="-173.205081" r="2.0"/>
            <circle cx="50" cy="-173.205081" r="2.0"/>
            <circle cx="0" cy="-173.205081" r="2.0"/>
            <circle cx="-25" cy="-129.903811" r="2.0"/>
            <circle cx="-50" cy="-86.60254" r="2.0"/>
            <circle cx="-25" cy="-43.30127" r="2.0"/>
        </g>
        <!-- Vertex Labels -->
        <g font-size="8" fill="darkblue">
            <text x="2.5" y="-2.5">0 - 120°</text>
            <text x="52.5" y="-2.5">1 - 180°</text>
            <text x="102.5" y="-2.5">2 - 120°</text>
            <text x="127.5" y="-45.80127">3 - 180°</text>
            <text x="152.5" y="-89.10254">4 - 240°</text>
            <text x="202.5" y="-89.10254">5 - 180°</text>
            <text x="252.5" y="-89.10254">6 - 120°</text>
            <text x="277.5" y="-132.403811">7 - 180°</text>
            <text x="302.5" y="-175.705081">8 - 120°</text>
            <text x="277.5" y="-219.006351">9 - 180°</text>
            <text x="252.5" y="-262.307621">10 - 120°</text>
            <text x="202.5" y="-262.307621">11 - 180°</text>
            <text x="152.5" y="-262.307621">12 - 120°</text>
            <text x="127.5" y="-219.006351">13 - 180°</text>
            <text x="102.5" y="-175.705081">14 - 240°</text>
            <text x="52.5" y="-175.705081">15 - 180°</text>
            <text x="2.5" y="-175.705081">16 - 120°</text>
            <text x="-22.5" y="-132.403811">17 - 180°</text>
            <text x="-47.5" y="-89.10254">18 - 120°</text>
            <text x="-22.5" y="-45.80127">19 - 180°</text>
        </g>
    </g>
</svg>
