<svg width="400" height="562" viewBox="-55 -532.294734 400 562.294734" xmlns="http://www.w3.org/2000/svg">
    <g>
        <g>
            <!-- Boundary Highlight -->
            <g stroke="red" stroke-width="3.0" fill="none">
                <polygon
                        points="0,0 50,0 75,-43.30127 125,-43.30127 150,-86.60254 125,-129.903811 150,-173.205081 125,-216.506351 75,-216.506351 50,-173.205081 0,-173.205081 -25,-129.903811 -0,-86.60254 -25,-43.30127">
                </polygon>
            </g>
            <!-- Vertices -->
            <g fill="darkred">
                <circle cx="0" cy="0" r="2.0"/>
                <circle cx="50" cy="0" r="2.0"/>
                <circle cx="75" cy="-43.30127" r="2.0"/>
                <circle cx="125" cy="-43.30127" r="2.0"/>
                <circle cx="150" cy="-86.60254" r="2.0"/>
                <circle cx="125" cy="-129.903811" r="2.0"/>
                <circle cx="150" cy="-173.205081" r="2.0"/>
                <circle cx="125" cy="-216.506351" r="2.0"/>
                <circle cx="75" cy="-216.506351" r="2.0"/>
                <circle cx="50" cy="-173.205081" r="2.0"/>
                <circle cx="0" cy="-173.205081" r="2.0"/>
                <circle cx="-25" cy="-129.903811" r="2.0"/>
                <circle cx="-0" cy="-86.60254" r="2.0"/>
                <circle cx="-25" cy="-43.30127" r="2.0"/>
            </g>
            <!-- Vertex Labels -->
            <g font-size="8" fill="blue">
                <text x="2.5" y="-2.5">0</text>
                <text x="52.5" y="-2.5">1</text>
                <text x="77.5" y="-45.80127">2</text>
                <text x="127.5" y="-45.80127">3</text>
                <text x="152.5" y="-89.10254">4</text>
                <text x="127.5" y="-132.403811">5</text>
                <text x="152.5" y="-175.705081">6</text>
                <text x="127.5" y="-219.006351">7</text>
                <text x="77.5" y="-219.006351">8</text>
                <text x="52.5" y="-175.705081">9</text>
                <text x="2.5" y="-175.705081">10</text>
                <text x="-22.5" y="-132.403811">11</text>
                <text x="2.5" y="-89.10254">12</text>
                <text x="-22.5" y="-45.80127">13</text>
            </g>
        </g>
    </g>
    <g transform="translate(165.0000000000000175481024274835348, -95.26279441628824101260788850807662)">
        <g>
            <!-- Boundary Highlight -->
            <g stroke="red" stroke-width="3.0" fill="none">
                <polygon
                        points="0,0 50,0 75,-43.30127 125,-43.30127 150,-86.60254 125,-129.903811 150,-173.205081 125,-216.506351 75,-216.506351 50,-173.205081 0,-173.205081 -25,-129.903811 -0,-86.60254 -25,-43.30127">
                </polygon>
            </g>
            <!-- Vertices -->
            <g fill="darkred">
                <circle cx="0" cy="0" r="2.0"/>
                <circle cx="50" cy="0" r="2.0"/>
                <circle cx="75" cy="-43.30127" r="2.0"/>
                <circle cx="125" cy="-43.30127" r="2.0"/>
                <circle cx="150" cy="-86.60254" r="2.0"/>
                <circle cx="125" cy="-129.903811" r="2.0"/>
                <circle cx="150" cy="-173.205081" r="2.0"/>
                <circle cx="125" cy="-216.506351" r="2.0"/>
                <circle cx="75" cy="-216.506351" r="2.0"/>
                <circle cx="50" cy="-173.205081" r="2.0"/>
                <circle cx="0" cy="-173.205081" r="2.0"/>
                <circle cx="-25" cy="-129.903811" r="2.0"/>
                <circle cx="-0" cy="-86.60254" r="2.0"/>
                <circle cx="-25" cy="-43.30127" r="2.0"/>
            </g>
            <!-- Vertex Labels -->
            <g font-size="8" fill="blue">
                <text x="2.5" y="-2.5">0</text>
                <text x="52.5" y="-2.5">1</text>
                <text x="77.5" y="-45.80127">2</text>
                <text x="127.5" y="-45.80127">3</text>
                <text x="152.5" y="-89.10254">4</text>
                <text x="127.5" y="-132.403811">5</text>
                <text x="152.5" y="-175.705081">6</text>
                <text x="127.5" y="-219.006351">7</text>
                <text x="77.5" y="-219.006351">8</text>
                <text x="52.5" y="-175.705081">9</text>
                <text x="2.5" y="-175.705081">10</text>
                <text x="-22.5" y="-132.403811">11</text>
                <text x="2.5" y="-89.10254">12</text>
                <text x="-22.5" y="-45.80127">13</text>
            </g>
        </g>
    </g>
    <g transform="translate(2.6322153641225330223500E-14, -190.5255888325765884049332099009801)">
        <g>
            <!-- Boundary Highlight -->
            <g stroke="red" stroke-width="3.0" fill="none">
                <polygon
                        points="0,0 50,0 75,-43.30127 125,-43.30127 150,-86.60254 125,-129.903811 150,-173.205081 125,-216.506351 75,-216.506351 50,-173.205081 0,-173.205081 -25,-129.903811 -0,-86.60254 -25,-43.30127">
                </polygon>
            </g>
            <!-- Vertices -->
            <g fill="darkred">
                <circle cx="0" cy="0" r="2.0"/>
                <circle cx="50" cy="0" r="2.0"/>
                <circle cx="75" cy="-43.30127" r="2.0"/>
                <circle cx="125" cy="-43.30127" r="2.0"/>
                <circle cx="150" cy="-86.60254" r="2.0"/>
                <circle cx="125" cy="-129.903811" r="2.0"/>
                <circle cx="150" cy="-173.205081" r="2.0"/>
                <circle cx="125" cy="-216.506351" r="2.0"/>
                <circle cx="75" cy="-216.506351" r="2.0"/>
                <circle cx="50" cy="-173.205081" r="2.0"/>
                <circle cx="0" cy="-173.205081" r="2.0"/>
                <circle cx="-25" cy="-129.903811" r="2.0"/>
                <circle cx="-0" cy="-86.60254" r="2.0"/>
                <circle cx="-25" cy="-43.30127" r="2.0"/>
            </g>
            <!-- Vertex Labels -->
            <g font-size="8" fill="blue">
                <text x="2.5" y="-2.5">0</text>
                <text x="52.5" y="-2.5">1</text>
                <text x="77.5" y="-45.80127">2</text>
                <text x="127.5" y="-45.80127">3</text>
                <text x="152.5" y="-89.10254">4</text>
                <text x="127.5" y="-132.403811">5</text>
                <text x="152.5" y="-175.705081">6</text>
                <text x="127.5" y="-219.006351">7</text>
                <text x="77.5" y="-219.006351">8</text>
                <text x="52.5" y="-175.705081">9</text>
                <text x="2.5" y="-175.705081">10</text>
                <text x="-22.5" y="-132.403811">11</text>
                <text x="2.5" y="-89.10254">12</text>
                <text x="-22.5" y="-45.80127">13</text>
            </g>
        </g>
    </g>
    <g transform="translate(165.0000000000000438702560687088650, -285.7883832488648294175410984090567)">
        <g>
            <!-- Boundary Highlight -->
            <g stroke="red" stroke-width="3.0" fill="none">
                <polygon
                        points="0,0 50,0 75,-43.30127 125,-43.30127 150,-86.60254 125,-129.903811 150,-173.205081 125,-216.506351 75,-216.506351 50,-173.205081 0,-173.205081 -25,-129.903811 -0,-86.60254 -25,-43.30127">
                </polygon>
            </g>
            <!-- Vertices -->
            <g fill="darkred">
                <circle cx="0" cy="0" r="2.0"/>
                <circle cx="50" cy="0" r="2.0"/>
                <circle cx="75" cy="-43.30127" r="2.0"/>
                <circle cx="125" cy="-43.30127" r="2.0"/>
                <circle cx="150" cy="-86.60254" r="2.0"/>
                <circle cx="125" cy="-129.903811" r="2.0"/>
                <circle cx="150" cy="-173.205081" r="2.0"/>
                <circle cx="125" cy="-216.506351" r="2.0"/>
                <circle cx="75" cy="-216.506351" r="2.0"/>
                <circle cx="50" cy="-173.205081" r="2.0"/>
                <circle cx="0" cy="-173.205081" r="2.0"/>
                <circle cx="-25" cy="-129.903811" r="2.0"/>
                <circle cx="-0" cy="-86.60254" r="2.0"/>
                <circle cx="-25" cy="-43.30127" r="2.0"/>
            </g>
            <!-- Vertex Labels -->
            <g font-size="8" fill="blue">
                <text x="2.5" y="-2.5">0</text>
                <text x="52.5" y="-2.5">1</text>
                <text x="77.5" y="-45.80127">2</text>
                <text x="127.5" y="-45.80127">3</text>
                <text x="152.5" y="-89.10254">4</text>
                <text x="127.5" y="-132.403811">5</text>
                <text x="152.5" y="-175.705081">6</text>
                <text x="127.5" y="-219.006351">7</text>
                <text x="77.5" y="-219.006351">8</text>
                <text x="52.5" y="-175.705081">9</text>
                <text x="2.5" y="-175.705081">10</text>
                <text x="-22.5" y="-132.403811">11</text>
                <text x="2.5" y="-89.10254">12</text>
                <text x="-22.5" y="-45.80127">13</text>
            </g>
        </g>
    </g>
</svg>