<svg width="648" height="694" viewBox="-30 -639.251541 648.485479 694.251541" xmlns="http://www.w3.org/2000/svg">
    <g>
        <g>
            <!-- Boundary Highlight -->
            <g stroke="red" stroke-width="3.0" fill="none">
                <polygon
                        points="0,0 50,0 93.30127,25 136.60254,0 136.60254,-50 161.60254,-93.30127 204.903811,-118.30127 204.903811,-168.30127 229.903811,-211.60254 186.60254,-236.60254 136.60254,-236.60254 93.30127,-211.60254 68.30127,-168.30127 68.30127,-118.30127 25,-93.30127 -0,-50">
                </polygon>
            </g>
            <!-- Vertices -->
            <g fill="darkred">
                <circle cx="0" cy="0" r="2.0"/>
                <circle cx="50" cy="0" r="2.0"/>
                <circle cx="93.30127" cy="25" r="2.0"/>
                <circle cx="136.60254" cy="0" r="2.0"/>
                <circle cx="136.60254" cy="-50" r="2.0"/>
                <circle cx="161.60254" cy="-93.30127" r="2.0"/>
                <circle cx="204.903811" cy="-118.30127" r="2.0"/>
                <circle cx="204.903811" cy="-168.30127" r="2.0"/>
                <circle cx="229.903811" cy="-211.60254" r="2.0"/>
                <circle cx="186.60254" cy="-236.60254" r="2.0"/>
                <circle cx="136.60254" cy="-236.60254" r="2.0"/>
                <circle cx="93.30127" cy="-211.60254" r="2.0"/>
                <circle cx="68.30127" cy="-168.30127" r="2.0"/>
                <circle cx="68.30127" cy="-118.30127" r="2.0"/>
                <circle cx="25" cy="-93.30127" r="2.0"/>
                <circle cx="-0" cy="-50" r="2.0"/>
            </g>
            <!-- Vertex Labels -->
            <g font-size="8" fill="blue">
                <text x="2.5" y="-2.5">0</text>
                <text x="52.5" y="-2.5">1</text>
                <text x="95.80127" y="22.5">2</text>
                <text x="139.10254" y="-2.5">3</text>
                <text x="139.10254" y="-52.5">4</text>
                <text x="164.10254" y="-95.80127">5</text>
                <text x="207.403811" y="-120.80127">6</text>
                <text x="207.403811" y="-170.80127">7</text>
                <text x="232.403811" y="-214.10254">8</text>
                <text x="189.10254" y="-239.10254">9</text>
                <text x="139.10254" y="-239.10254">10</text>
                <text x="95.80127" y="-214.10254">11</text>
                <text x="70.80127" y="-170.80127">12</text>
                <text x="70.80127" y="-120.80127">13</text>
                <text x="27.5" y="-95.80127">14</text>
                <text x="2.5" y="-52.5">15</text>
            </g>
        </g>
    </g>
    <g transform="translate(215.1490010960491239800791166517550, -124.2163336986830111408672731497700)">
        <g>
            <!-- Boundary Highlight -->
            <g stroke="red" stroke-width="3.0" fill="none">
                <polygon
                        points="0,0 50,0 93.30127,25 136.60254,0 136.60254,-50 161.60254,-93.30127 204.903811,-118.30127 204.903811,-168.30127 229.903811,-211.60254 186.60254,-236.60254 136.60254,-236.60254 93.30127,-211.60254 68.30127,-168.30127 68.30127,-118.30127 25,-93.30127 -0,-50">
                </polygon>
            </g>
            <!-- Vertices -->
            <g fill="darkred">
                <circle cx="0" cy="0" r="2.0"/>
                <circle cx="50" cy="0" r="2.0"/>
                <circle cx="93.30127" cy="25" r="2.0"/>
                <circle cx="136.60254" cy="0" r="2.0"/>
                <circle cx="136.60254" cy="-50" r="2.0"/>
                <circle cx="161.60254" cy="-93.30127" r="2.0"/>
                <circle cx="204.903811" cy="-118.30127" r="2.0"/>
                <circle cx="204.903811" cy="-168.30127" r="2.0"/>
                <circle cx="229.903811" cy="-211.60254" r="2.0"/>
                <circle cx="186.60254" cy="-236.60254" r="2.0"/>
                <circle cx="136.60254" cy="-236.60254" r="2.0"/>
                <circle cx="93.30127" cy="-211.60254" r="2.0"/>
                <circle cx="68.30127" cy="-168.30127" r="2.0"/>
                <circle cx="68.30127" cy="-118.30127" r="2.0"/>
                <circle cx="25" cy="-93.30127" r="2.0"/>
                <circle cx="-0" cy="-50" r="2.0"/>
            </g>
            <!-- Vertex Labels -->
            <g font-size="8" fill="blue">
                <text x="2.5" y="-2.5">0</text>
                <text x="52.5" y="-2.5">1</text>
                <text x="95.80127" y="22.5">2</text>
                <text x="139.10254" y="-2.5">3</text>
                <text x="139.10254" y="-52.5">4</text>
                <text x="164.10254" y="-95.80127">5</text>
                <text x="207.403811" y="-120.80127">6</text>
                <text x="207.403811" y="-170.80127">7</text>
                <text x="232.403811" y="-214.10254">8</text>
                <text x="189.10254" y="-239.10254">9</text>
                <text x="139.10254" y="-239.10254">10</text>
                <text x="95.80127" y="-214.10254">11</text>
                <text x="70.80127" y="-170.80127">12</text>
                <text x="70.80127" y="-120.80127">13</text>
                <text x="27.5" y="-95.80127">14</text>
                <text x="2.5" y="-52.5">15</text>
            </g>
        </g>
    </g>
    <g transform="translate(143.4326673973661398319520676090621, -248.4326673973660771855364352806843)">
        <g>
            <!-- Boundary Highlight -->
            <g stroke="red" stroke-width="3.0" fill="none">
                <polygon
                        points="0,0 50,0 93.30127,25 136.60254,0 136.60254,-50 161.60254,-93.30127 204.903811,-118.30127 204.903811,-168.30127 229.903811,-211.60254 186.60254,-236.60254 136.60254,-236.60254 93.30127,-211.60254 68.30127,-168.30127 68.30127,-118.30127 25,-93.30127 -0,-50">
                </polygon>
            </g>
            <!-- Vertices -->
            <g fill="darkred">
                <circle cx="0" cy="0" r="2.0"/>
                <circle cx="50" cy="0" r="2.0"/>
                <circle cx="93.30127" cy="25" r="2.0"/>
                <circle cx="136.60254" cy="0" r="2.0"/>
                <circle cx="136.60254" cy="-50" r="2.0"/>
                <circle cx="161.60254" cy="-93.30127" r="2.0"/>
                <circle cx="204.903811" cy="-118.30127" r="2.0"/>
                <circle cx="204.903811" cy="-168.30127" r="2.0"/>
                <circle cx="229.903811" cy="-211.60254" r="2.0"/>
                <circle cx="186.60254" cy="-236.60254" r="2.0"/>
                <circle cx="136.60254" cy="-236.60254" r="2.0"/>
                <circle cx="93.30127" cy="-211.60254" r="2.0"/>
                <circle cx="68.30127" cy="-168.30127" r="2.0"/>
                <circle cx="68.30127" cy="-118.30127" r="2.0"/>
                <circle cx="25" cy="-93.30127" r="2.0"/>
                <circle cx="-0" cy="-50" r="2.0"/>
            </g>
            <!-- Vertex Labels -->
            <g font-size="8" fill="blue">
                <text x="2.5" y="-2.5">0</text>
                <text x="52.5" y="-2.5">1</text>
                <text x="95.80127" y="22.5">2</text>
                <text x="139.10254" y="-2.5">3</text>
                <text x="139.10254" y="-52.5">4</text>
                <text x="164.10254" y="-95.80127">5</text>
                <text x="207.403811" y="-120.80127">6</text>
                <text x="207.403811" y="-170.80127">7</text>
                <text x="232.403811" y="-214.10254">8</text>
                <text x="189.10254" y="-239.10254">9</text>
                <text x="139.10254" y="-239.10254">10</text>
                <text x="95.80127" y="-214.10254">11</text>
                <text x="70.80127" y="-170.80127">12</text>
                <text x="70.80127" y="-120.80127">13</text>
                <text x="27.5" y="-95.80127">14</text>
                <text x="2.5" y="-52.5">15</text>
            </g>
        </g>
    </g>
    <g transform="translate(358.5816684934152638120311842608171, -372.6490010960490883264037084304543)">
        <g>
            <!-- Boundary Highlight -->
            <g stroke="red" stroke-width="3.0" fill="none">
                <polygon
                        points="0,0 50,0 93.30127,25 136.60254,0 136.60254,-50 161.60254,-93.30127 204.903811,-118.30127 204.903811,-168.30127 229.903811,-211.60254 186.60254,-236.60254 136.60254,-236.60254 93.30127,-211.60254 68.30127,-168.30127 68.30127,-118.30127 25,-93.30127 -0,-50">
                </polygon>
            </g>
            <!-- Vertices -->
            <g fill="darkred">
                <circle cx="0" cy="0" r="2.0"/>
                <circle cx="50" cy="0" r="2.0"/>
                <circle cx="93.30127" cy="25" r="2.0"/>
                <circle cx="136.60254" cy="0" r="2.0"/>
                <circle cx="136.60254" cy="-50" r="2.0"/>
                <circle cx="161.60254" cy="-93.30127" r="2.0"/>
                <circle cx="204.903811" cy="-118.30127" r="2.0"/>
                <circle cx="204.903811" cy="-168.30127" r="2.0"/>
                <circle cx="229.903811" cy="-211.60254" r="2.0"/>
                <circle cx="186.60254" cy="-236.60254" r="2.0"/>
                <circle cx="136.60254" cy="-236.60254" r="2.0"/>
                <circle cx="93.30127" cy="-211.60254" r="2.0"/>
                <circle cx="68.30127" cy="-168.30127" r="2.0"/>
                <circle cx="68.30127" cy="-118.30127" r="2.0"/>
                <circle cx="25" cy="-93.30127" r="2.0"/>
                <circle cx="-0" cy="-50" r="2.0"/>
            </g>
            <!-- Vertex Labels -->
            <g font-size="8" fill="blue">
                <text x="2.5" y="-2.5">0</text>
                <text x="52.5" y="-2.5">1</text>
                <text x="95.80127" y="22.5">2</text>
                <text x="139.10254" y="-2.5">3</text>
                <text x="139.10254" y="-52.5">4</text>
                <text x="164.10254" y="-95.80127">5</text>
                <text x="207.403811" y="-120.80127">6</text>
                <text x="207.403811" y="-170.80127">7</text>
                <text x="232.403811" y="-214.10254">8</text>
                <text x="189.10254" y="-239.10254">9</text>
                <text x="139.10254" y="-239.10254">10</text>
                <text x="95.80127" y="-214.10254">11</text>
                <text x="70.80127" y="-170.80127">12</text>
                <text x="70.80127" y="-120.80127">13</text>
                <text x="27.5" y="-95.80127">14</text>
                <text x="2.5" y="-52.5">15</text>
            </g>
        </g>
    </g>
</svg>