<svg width="427" height="653" viewBox="-55 -623.227402 427.5 653.227402" xmlns="http://www.w3.org/2000/svg">
    <g>
        <g>
            <!-- Boundary Highlight -->
            <g stroke="red" stroke-width="3.0" fill="none">
                <polygon
                        points="0,0 50,0 100,0 125,-43.30127 100,-86.60254 125,-129.903811 150,-173.205081 125,-216.506351 150,-259.807621 100,-259.807621 50,-259.807621 25,-216.506351 0,-173.205081 25,-129.903811 -0,-86.60254 -25,-43.30127">
                </polygon>
            </g>
            <!-- Vertices -->
            <g fill="darkred">
                <circle cx="0" cy="0" r="2.0"/>
                <circle cx="50" cy="0" r="2.0"/>
                <circle cx="100" cy="0" r="2.0"/>
                <circle cx="125" cy="-43.30127" r="2.0"/>
                <circle cx="100" cy="-86.60254" r="2.0"/>
                <circle cx="125" cy="-129.903811" r="2.0"/>
                <circle cx="150" cy="-173.205081" r="2.0"/>
                <circle cx="125" cy="-216.506351" r="2.0"/>
                <circle cx="150" cy="-259.807621" r="2.0"/>
                <circle cx="100" cy="-259.807621" r="2.0"/>
                <circle cx="50" cy="-259.807621" r="2.0"/>
                <circle cx="25" cy="-216.506351" r="2.0"/>
                <circle cx="0" cy="-173.205081" r="2.0"/>
                <circle cx="25" cy="-129.903811" r="2.0"/>
                <circle cx="-0" cy="-86.60254" r="2.0"/>
                <circle cx="-25" cy="-43.30127" r="2.0"/>
            </g>
            <!-- Vertex Labels -->
            <g font-size="8" fill="blue">
                <text x="2.5" y="-2.5">0</text>
                <text x="52.5" y="-2.5">1</text>
                <text x="102.5" y="-2.5">2</text>
                <text x="127.5" y="-45.80127">3</text>
                <text x="102.5" y="-89.10254">4</text>
                <text x="127.5" y="-132.403811">5</text>
                <text x="152.5" y="-175.705081">6</text>
                <text x="127.5" y="-219.006351">7</text>
                <text x="152.5" y="-262.307621">8</text>
                <text x="102.5" y="-262.307621">9</text>
                <text x="52.5" y="-262.307621">10</text>
                <text x="27.5" y="-219.006351">11</text>
                <text x="2.5" y="-175.705081">12</text>
                <text x="27.5" y="-132.403811">13</text>
                <text x="2.5" y="-89.10254">14</text>
                <text x="-22.5" y="-45.80127">15</text>
            </g>
        </g>
    </g>
    <g transform="translate(137.5000000000000087740512137417674, -47.63139720814412050630394425403832)">
        <g>
            <!-- Boundary Highlight -->
            <g stroke="red" stroke-width="3.0" fill="none">
                <polygon
                        points="0,0 50,0 100,0 125,-43.30127 100,-86.60254 125,-129.903811 150,-173.205081 125,-216.506351 150,-259.807621 100,-259.807621 50,-259.807621 25,-216.506351 0,-173.205081 25,-129.903811 -0,-86.60254 -25,-43.30127">
                </polygon>
            </g>
            <!-- Vertices -->
            <g fill="darkred">
                <circle cx="0" cy="0" r="2.0"/>
                <circle cx="50" cy="0" r="2.0"/>
                <circle cx="100" cy="0" r="2.0"/>
                <circle cx="125" cy="-43.30127" r="2.0"/>
                <circle cx="100" cy="-86.60254" r="2.0"/>
                <circle cx="125" cy="-129.903811" r="2.0"/>
                <circle cx="150" cy="-173.205081" r="2.0"/>
                <circle cx="125" cy="-216.506351" r="2.0"/>
                <circle cx="150" cy="-259.807621" r="2.0"/>
                <circle cx="100" cy="-259.807621" r="2.0"/>
                <circle cx="50" cy="-259.807621" r="2.0"/>
                <circle cx="25" cy="-216.506351" r="2.0"/>
                <circle cx="0" cy="-173.205081" r="2.0"/>
                <circle cx="25" cy="-129.903811" r="2.0"/>
                <circle cx="-0" cy="-86.60254" r="2.0"/>
                <circle cx="-25" cy="-43.30127" r="2.0"/>
            </g>
            <!-- Vertex Labels -->
            <g font-size="8" fill="blue">
                <text x="2.5" y="-2.5">0</text>
                <text x="52.5" y="-2.5">1</text>
                <text x="102.5" y="-2.5">2</text>
                <text x="127.5" y="-45.80127">3</text>
                <text x="102.5" y="-89.10254">4</text>
                <text x="127.5" y="-132.403811">5</text>
                <text x="152.5" y="-175.705081">6</text>
                <text x="127.5" y="-219.006351">7</text>
                <text x="152.5" y="-262.307621">8</text>
                <text x="102.5" y="-262.307621">9</text>
                <text x="52.5" y="-262.307621">10</text>
                <text x="27.5" y="-219.006351">11</text>
                <text x="2.5" y="-175.705081">12</text>
                <text x="27.5" y="-132.403811">13</text>
                <text x="2.5" y="-89.10254">14</text>
                <text x="-22.5" y="-45.80127">15</text>
            </g>
        </g>
    </g>
    <g transform="translate(55.00000000000007019240970993416176, -285.7883832488648142204386079969276)">
        <g>
            <!-- Boundary Highlight -->
            <g stroke="red" stroke-width="3.0" fill="none">
                <polygon
                        points="0,0 50,0 100,0 125,-43.30127 100,-86.60254 125,-129.903811 150,-173.205081 125,-216.506351 150,-259.807621 100,-259.807621 50,-259.807621 25,-216.506351 0,-173.205081 25,-129.903811 -0,-86.60254 -25,-43.30127">
                </polygon>
            </g>
            <!-- Vertices -->
            <g fill="darkred">
                <circle cx="0" cy="0" r="2.0"/>
                <circle cx="50" cy="0" r="2.0"/>
                <circle cx="100" cy="0" r="2.0"/>
                <circle cx="125" cy="-43.30127" r="2.0"/>
                <circle cx="100" cy="-86.60254" r="2.0"/>
                <circle cx="125" cy="-129.903811" r="2.0"/>
                <circle cx="150" cy="-173.205081" r="2.0"/>
                <circle cx="125" cy="-216.506351" r="2.0"/>
                <circle cx="150" cy="-259.807621" r="2.0"/>
                <circle cx="100" cy="-259.807621" r="2.0"/>
                <circle cx="50" cy="-259.807621" r="2.0"/>
                <circle cx="25" cy="-216.506351" r="2.0"/>
                <circle cx="0" cy="-173.205081" r="2.0"/>
                <circle cx="25" cy="-129.903811" r="2.0"/>
                <circle cx="-0" cy="-86.60254" r="2.0"/>
                <circle cx="-25" cy="-43.30127" r="2.0"/>
            </g>
            <!-- Vertex Labels -->
            <g font-size="8" fill="blue">
                <text x="2.5" y="-2.5">0</text>
                <text x="52.5" y="-2.5">1</text>
                <text x="102.5" y="-2.5">2</text>
                <text x="127.5" y="-45.80127">3</text>
                <text x="102.5" y="-89.10254">4</text>
                <text x="127.5" y="-132.403811">5</text>
                <text x="152.5" y="-175.705081">6</text>
                <text x="127.5" y="-219.006351">7</text>
                <text x="152.5" y="-262.307621">8</text>
                <text x="102.5" y="-262.307621">9</text>
                <text x="52.5" y="-262.307621">10</text>
                <text x="27.5" y="-219.006351">11</text>
                <text x="2.5" y="-175.705081">12</text>
                <text x="27.5" y="-132.403811">13</text>
                <text x="2.5" y="-89.10254">14</text>
                <text x="-22.5" y="-45.80127">15</text>
            </g>
        </g>
    </g>
    <g transform="translate(192.5000000000000789664609236759292, -333.4197804570089347267425522509659)">
        <g>
            <!-- Boundary Highlight -->
            <g stroke="red" stroke-width="3.0" fill="none">
                <polygon
                        points="0,0 50,0 100,0 125,-43.30127 100,-86.60254 125,-129.903811 150,-173.205081 125,-216.506351 150,-259.807621 100,-259.807621 50,-259.807621 25,-216.506351 0,-173.205081 25,-129.903811 -0,-86.60254 -25,-43.30127">
                </polygon>
            </g>
            <!-- Vertices -->
            <g fill="darkred">
                <circle cx="0" cy="0" r="2.0"/>
                <circle cx="50" cy="0" r="2.0"/>
                <circle cx="100" cy="0" r="2.0"/>
                <circle cx="125" cy="-43.30127" r="2.0"/>
                <circle cx="100" cy="-86.60254" r="2.0"/>
                <circle cx="125" cy="-129.903811" r="2.0"/>
                <circle cx="150" cy="-173.205081" r="2.0"/>
                <circle cx="125" cy="-216.506351" r="2.0"/>
                <circle cx="150" cy="-259.807621" r="2.0"/>
                <circle cx="100" cy="-259.807621" r="2.0"/>
                <circle cx="50" cy="-259.807621" r="2.0"/>
                <circle cx="25" cy="-216.506351" r="2.0"/>
                <circle cx="0" cy="-173.205081" r="2.0"/>
                <circle cx="25" cy="-129.903811" r="2.0"/>
                <circle cx="-0" cy="-86.60254" r="2.0"/>
                <circle cx="-25" cy="-43.30127" r="2.0"/>
            </g>
            <!-- Vertex Labels -->
            <g font-size="8" fill="blue">
                <text x="2.5" y="-2.5">0</text>
                <text x="52.5" y="-2.5">1</text>
                <text x="102.5" y="-2.5">2</text>
                <text x="127.5" y="-45.80127">3</text>
                <text x="102.5" y="-89.10254">4</text>
                <text x="127.5" y="-132.403811">5</text>
                <text x="152.5" y="-175.705081">6</text>
                <text x="127.5" y="-219.006351">7</text>
                <text x="152.5" y="-262.307621">8</text>
                <text x="102.5" y="-262.307621">9</text>
                <text x="52.5" y="-262.307621">10</text>
                <text x="27.5" y="-219.006351">11</text>
                <text x="2.5" y="-175.705081">12</text>
                <text x="27.5" y="-132.403811">13</text>
                <text x="2.5" y="-89.10254">14</text>
                <text x="-22.5" y="-45.80127">15</text>
            </g>
        </g>
    </g>
</svg>