<svg width="240" height="239" viewBox="-20 -220 240 240" xmlns="http://www.w3.org/2000/svg">
    <g>
        <!-- Edges -->
        <g stroke="black" stroke-width="1.0">
            <line x1="0" y1="0" x2="50" y2="0"/>
            <line x1="50" y1="0" x2="100" y2="0"/>
            <line x1="100" y1="0" x2="150" y2="0"/>
            <line x1="150" y1="0" x2="200" y2="0"/>
            <line x1="50" y1="-50" x2="100" y2="-50"/>
            <line x1="100" y1="-50" x2="150" y2="-50"/>
            <line x1="150" y1="-50" x2="200" y2="-50"/>
            <line x1="0" y1="-100" x2="50" y2="-100"/>
            <line x1="50" y1="-100" x2="100" y2="-100"/>
            <line x1="100" y1="-100" x2="150" y2="-100"/>
            <line x1="150" y1="-100" x2="200" y2="-100"/>
            <line x1="0" y1="-150" x2="50" y2="-150"/>
            <line x1="50" y1="-150" x2="100" y2="-150"/>
            <line x1="100" y1="-150" x2="150" y2="-150"/>
            <line x1="0" y1="-200" x2="50" y2="-200"/>
            <line x1="50" y1="-200" x2="100" y2="-200"/>
            <line x1="100" y1="-200" x2="150" y2="-200"/>
            <line x1="150" y1="-200" x2="200" y2="-200"/>
            <line x1="0" y1="0" x2="0" y2="-50"/>
            <line x1="50" y1="0" x2="50" y2="-50"/>
            <line x1="100" y1="0" x2="100" y2="-50"/>
            <line x1="200" y1="0" x2="200" y2="-50"/>
            <line x1="0" y1="-50" x2="0" y2="-100"/>
            <line x1="50" y1="-50" x2="50" y2="-100"/>
            <line x1="100" y1="-50" x2="100" y2="-100"/>
            <line x1="150" y1="-50" x2="150" y2="-100"/>
            <line x1="200" y1="-50" x2="200" y2="-100"/>
            <line x1="0" y1="-100" x2="0" y2="-150"/>
            <line x1="50" y1="-100" x2="50" y2="-150"/>
            <line x1="100" y1="-100" x2="100" y2="-150"/>
            <line x1="150" y1="-100" x2="150" y2="-150"/>
            <line x1="200" y1="-100" x2="200" y2="-150"/>
            <line x1="0" y1="-150" x2="0" y2="-200"/>
            <line x1="100" y1="-150" x2="100" y2="-200"/>
            <line x1="150" y1="-150" x2="150" y2="-200"/>
            <line x1="200" y1="-150" x2="200" y2="-200"/>
        </g>
        <!-- Boundary Highlight -->
        <g stroke="red" stroke-width="3.0" fill="none">
            <polygon
                    points="0,0 0,-50 0,-100 0,-150 0,-200 50,-200 100,-200 150,-200 200,-200 200,-150 200,-100 200,-50 200,0 150,0 100,0 50,0">
            </polygon>
        </g>
        <!-- Inner Face Half-Edge Direction Arrows -->
        <g fill="blue" stroke="blue" stroke-width="0.5">
            <polygon points="78,0 75,-1.2 75,1.2"/>
            <polygon points="100,-28 98.8,-25 101.2,-25"/>
            <polygon points="72,-50 75,-48.8 75,-51.2"/>
            <polygon points="50,-22 51.2,-25 48.8,-25"/>
            <polygon points="122,-50 125,-48.8 125,-51.2"/>
            <polygon points="100,-22 101.2,-25 98.8,-25"/>
            <polygon points="128,0 125,-1.2 125,1.2"/>
            <polygon points="178,0 175,-1.2 175,1.2"/>
            <polygon points="200,-28 198.8,-25 201.2,-25"/>
            <polygon points="172,-50 175,-48.8 175,-51.2"/>
            <polygon points="50,-78 48.8,-75 51.2,-75"/>
            <polygon points="22,-100 25,-98.8 25,-101.2"/>
            <polygon points="0,-72 1.2,-75 -1.2,-75"/>
            <polygon points="0,-22 1.2,-25 -1.2,-25"/>
            <polygon points="28,0 25,-1.2 25,1.2"/>
            <polygon points="50,-28 48.8,-25 51.2,-25"/>
            <polygon points="78,-50 75,-51.2 75,-48.8"/>
            <polygon points="100,-78 98.8,-75 101.2,-75"/>
            <polygon points="72,-100 75,-98.8 75,-101.2"/>
            <polygon points="50,-72 51.2,-75 48.8,-75"/>
            <polygon points="128,-50 125,-51.2 125,-48.8"/>
            <polygon points="150,-78 148.8,-75 151.2,-75"/>
            <polygon points="122,-100 125,-98.8 125,-101.2"/>
            <polygon points="100,-72 101.2,-75 98.8,-75"/>
            <polygon points="178,-50 175,-51.2 175,-48.8"/>
            <polygon points="200,-78 198.8,-75 201.2,-75"/>
            <polygon points="172,-100 175,-98.8 175,-101.2"/>
            <polygon points="150,-72 151.2,-75 148.8,-75"/>
            <polygon points="28,-100 25,-101.2 25,-98.8"/>
            <polygon points="50,-128 48.8,-125 51.2,-125"/>
            <polygon points="22,-150 25,-148.8 25,-151.2"/>
            <polygon points="0,-122 1.2,-125 -1.2,-125"/>
            <polygon points="78,-100 75,-101.2 75,-98.8"/>
            <polygon points="100,-128 98.8,-125 101.2,-125"/>
            <polygon points="72,-150 75,-148.8 75,-151.2"/>
            <polygon points="50,-122 51.2,-125 48.8,-125"/>
            <polygon points="128,-100 125,-101.2 125,-98.8"/>
            <polygon points="150,-128 148.8,-125 151.2,-125"/>
            <polygon points="122,-150 125,-148.8 125,-151.2"/>
            <polygon points="100,-122 101.2,-125 98.8,-125"/>
            <polygon points="22,-200 25,-198.8 25,-201.2"/>
            <polygon points="0,-172 1.2,-175 -1.2,-175"/>
            <polygon points="28,-150 25,-151.2 25,-148.8"/>
            <polygon points="78,-150 75,-151.2 75,-148.8"/>
            <polygon points="100,-178 98.8,-175 101.2,-175"/>
            <polygon points="72,-200 75,-198.8 75,-201.2"/>
            <polygon points="128,-150 125,-151.2 125,-148.8"/>
            <polygon points="150,-178 148.8,-175 151.2,-175"/>
            <polygon points="122,-200 125,-198.8 125,-201.2"/>
            <polygon points="100,-172 101.2,-175 98.8,-175"/>
            <polygon points="200,-178 198.8,-175 201.2,-175"/>
            <polygon points="172,-200 175,-198.8 175,-201.2"/>
            <polygon points="150,-172 151.2,-175 148.8,-175"/>
            <polygon points="150,-122 151.2,-125 148.8,-125"/>
            <polygon points="178,-100 175,-101.2 175,-98.8"/>
            <polygon points="200,-128 198.8,-125 201.2,-125"/>
        </g>
        <!-- Outer Face Half-Edge Direction Arrows -->
        <g fill="black" stroke="black" stroke-width="0.5">
            <polygon points="0,-28 -1.2,-25 1.2,-25"/>
            <polygon points="0,-78 -1.2,-75 1.2,-75"/>
            <polygon points="0,-128 -1.2,-125 1.2,-125"/>
            <polygon points="0,-178 -1.2,-175 1.2,-175"/>
            <polygon points="28,-200 25,-201.2 25,-198.8"/>
            <polygon points="78,-200 75,-201.2 75,-198.8"/>
            <polygon points="128,-200 125,-201.2 125,-198.8"/>
            <polygon points="178,-200 175,-201.2 175,-198.8"/>
            <polygon points="200,-172 201.2,-175 198.8,-175"/>
            <polygon points="200,-122 201.2,-125 198.8,-125"/>
            <polygon points="200,-72 201.2,-75 198.8,-75"/>
            <polygon points="200,-22 201.2,-25 198.8,-25"/>
            <polygon points="172,-0 175,1.2 175,-1.2"/>
            <polygon points="122,-0 125,1.2 125,-1.2"/>
            <polygon points="72,-0 75,1.2 75,-1.2"/>
            <polygon points="22,-0 25,1.2 25,-1.2"/>
        </g>
        <!-- Vertices -->
        <g fill="red">
            <circle cx="0" cy="0" r="2.0"/>
            <circle cx="50" cy="0" r="2.0"/>
            <circle cx="100" cy="0" r="2.0"/>
            <circle cx="150" cy="0" r="2.0"/>
            <circle cx="200" cy="0" r="2.0"/>
            <circle cx="0" cy="-50" r="2.0"/>
            <circle cx="50" cy="-50" r="2.0"/>
            <circle cx="100" cy="-50" r="2.0"/>
            <circle cx="150" cy="-50" r="2.0"/>
            <circle cx="200" cy="-50" r="2.0"/>
            <circle cx="0" cy="-100" r="2.0"/>
            <circle cx="50" cy="-100" r="2.0"/>
            <circle cx="100" cy="-100" r="2.0"/>
            <circle cx="150" cy="-100" r="2.0"/>
            <circle cx="200" cy="-100" r="2.0"/>
            <circle cx="0" cy="-150" r="2.0"/>
            <circle cx="50" cy="-150" r="2.0"/>
            <circle cx="100" cy="-150" r="2.0"/>
            <circle cx="150" cy="-150" r="2.0"/>
            <circle cx="200" cy="-150" r="2.0"/>
            <circle cx="0" cy="-200" r="2.0"/>
            <circle cx="50" cy="-200" r="2.0"/>
            <circle cx="100" cy="-200" r="2.0"/>
            <circle cx="150" cy="-200" r="2.0"/>
            <circle cx="200" cy="-200" r="2.0"/>
        </g>
        <!-- Vertex Labels -->
        <g font-size="8" fill="darkblue">
            <text x="2.5" y="-2.5">V1</text>
            <text x="52.5" y="-2.5">V2</text>
            <text x="102.5" y="-2.5">V3</text>
            <text x="152.5" y="-2.5">V4</text>
            <text x="202.5" y="-2.5">V5</text>
            <text x="2.5" y="-52.5">V6</text>
            <text x="52.5" y="-52.5">V7</text>
            <text x="102.5" y="-52.5">V8</text>
            <text x="152.5" y="-52.5">V9</text>
            <text x="202.5" y="-52.5">V10</text>
            <text x="2.5" y="-102.5">V11</text>
            <text x="52.5" y="-102.5">V12</text>
            <text x="102.5" y="-102.5">V13</text>
            <text x="152.5" y="-102.5">V14</text>
            <text x="202.5" y="-102.5">V15</text>
            <text x="2.5" y="-152.5">V16</text>
            <text x="52.5" y="-152.5">V17</text>
            <text x="102.5" y="-152.5">V18</text>
            <text x="152.5" y="-152.5">V19</text>
            <text x="202.5" y="-152.5">V20</text>
            <text x="2.5" y="-202.5">V21</text>
            <text x="52.5" y="-202.5">V22</text>
            <text x="102.5" y="-202.5">V23</text>
            <text x="152.5" y="-202.5">V24</text>
            <text x="202.5" y="-202.5">V25</text>
        </g>
        <!-- Face Labels -->
        <g font-size="6" fill="green" text-anchor="middle" dominant-baseline="middle">
            <text x="75" y="-25">F2</text>
            <text x="150" y="-25">F3</text>
            <text x="25" y="-50">F5</text>
            <text x="75" y="-75">F6</text>
            <text x="125" y="-75">F7</text>
            <text x="175" y="-75">F8</text>
            <text x="25" y="-125">F9</text>
            <text x="75" y="-125">F10</text>
            <text x="125" y="-125">F11</text>
            <text x="50" y="-175">F13</text>
            <text x="125" y="-175">F15</text>
            <text x="175" y="-150">F16</text>
        </g>
        <!-- Inner Angle Labels -->
        <g font-size="5" fill="purple" text-anchor="middle" dominant-baseline="middle">
            <text x="55.656854" y="-5.656854">90°</text>
            <text x="94.343146" y="-5.656854">90°</text>
            <text x="94.343146" y="-44.343146">90°</text>
            <text x="55.656854" y="-44.343146">90°</text>
            <text x="150" y="-42">180°</text>
            <text x="107.155418" y="-46.422291">90°</text>
            <text x="107.155418" y="-3.577709">90°</text>
            <text x="150" y="-8">180°</text>
            <text x="192.844582" y="-3.577709">90°</text>
            <text x="192.844582" y="-46.422291">90°</text>
            <text x="42" y="-50">180°</text>
            <text x="46.422291" y="-92.844582">90°</text>
            <text x="3.577709" y="-92.844582">90°</text>
            <text x="8" y="-50">180°</text>
            <text x="3.577709" y="-7.155418">90°</text>
            <text x="46.422291" y="-7.155418">90°</text>
            <text x="55.656854" y="-55.656854">90°</text>
            <text x="94.343146" y="-55.656854">90°</text>
            <text x="94.343146" y="-94.343146">90°</text>
            <text x="55.656854" y="-94.343146">90°</text>
            <text x="105.656854" y="-55.656854">90°</text>
            <text x="144.343146" y="-55.656854">90°</text>
            <text x="144.343146" y="-94.343146">90°</text>
            <text x="105.656854" y="-94.343146">90°</text>
            <text x="155.656854" y="-55.656854">90°</text>
            <text x="194.343146" y="-55.656854">90°</text>
            <text x="194.343146" y="-94.343146">90°</text>
            <text x="155.656854" y="-94.343146">90°</text>
            <text x="5.656854" y="-105.656854">90°</text>
            <text x="44.343146" y="-105.656854">90°</text>
            <text x="44.343146" y="-144.343146">90°</text>
            <text x="5.656854" y="-144.343146">90°</text>
            <text x="55.656854" y="-105.656854">90°</text>
            <text x="94.343146" y="-105.656854">90°</text>
            <text x="94.343146" y="-144.343146">90°</text>
            <text x="55.656854" y="-144.343146">90°</text>
            <text x="105.656854" y="-105.656854">90°</text>
            <text x="144.343146" y="-105.656854">90°</text>
            <text x="144.343146" y="-144.343146">90°</text>
            <text x="105.656854" y="-144.343146">90°</text>
            <text x="50" y="-192">180°</text>
            <text x="7.155418" y="-196.422291">90°</text>
            <text x="7.155418" y="-153.577709">90°</text>
            <text x="50" y="-158">180°</text>
            <text x="92.844582" y="-153.577709">90°</text>
            <text x="92.844582" y="-196.422291">90°</text>
            <text x="105.656854" y="-155.656854">90°</text>
            <text x="144.343146" y="-155.656854">90°</text>
            <text x="144.343146" y="-194.343146">90°</text>
            <text x="105.656854" y="-194.343146">90°</text>
            <text x="192" y="-150">180°</text>
            <text x="196.422291" y="-192.844582">90°</text>
            <text x="153.577709" y="-192.844582">90°</text>
            <text x="158" y="-150">180°</text>
            <text x="153.577709" y="-107.155418">90°</text>
            <text x="196.422291" y="-107.155418">90°</text>
        </g>
        <!-- Outer Angle Labels -->
        <g font-size="5" fill="orange" text-anchor="middle" dominant-baseline="middle">
            <text x="-7.589466" y="2.529822">270°</text>
            <text x="-7.589466" y="-52.529822">180°</text>
            <text x="-5.656854" y="-105.656854">180°</text>
            <text x="-4.115966" y="-156.859943">180°</text>
            <text x="-3.151354" y="-207.35316">270°</text>
            <text x="48.868629" y="-207.919596">180°</text>
            <text x="101.131371" y="-207.919596">180°</text>
            <text x="153.151354" y="-207.35316">180°</text>
            <text x="204.649906" y="-206.509868">270°</text>
            <text x="205.656854" y="-155.656854">180°</text>
            <text x="206.859943" y="-104.115966">180°</text>
            <text x="207.844645" y="-51.568929">180°</text>
            <text x="207.844645" y="1.568929">270°</text>
            <text x="157.589466" y="2.529822">180°</text>
            <text x="105.656854" y="5.656854">180°</text>
            <text x="44.343146" y="5.656854">180°</text>
        </g>
    </g>
</svg>