<svg width="290" height="169" viewBox="-45 -149.903811 290 169.903811" xmlns="http://www.w3.org/2000/svg">
    <g>
        <!-- Edges -->
        <g stroke-width="1.0" stroke="black">
            <line x1="0" y1="0" x2="50" y2="0"/>
            <line x1="50" y1="0" x2="100" y2="0"/>
            <line x1="100" y1="0" x2="150" y2="0"/>
            <line x1="150" y1="0" x2="200" y2="0"/>
            <line x1="200" y1="0" x2="225" y2="-43.30127"/>
            <line x1="225" y1="-43.30127" x2="200" y2="-86.60254"/>
            <line x1="200" y1="-86.60254" x2="175" y2="-129.903811"/>
            <line x1="175" y1="-129.903811" x2="125" y2="-129.903811"/>
            <line x1="125" y1="-129.903811" x2="150" y2="-86.60254"/>
            <line x1="150" y1="-86.60254" x2="175" y2="-43.30127"/>
            <line x1="175" y1="-43.30127" x2="125" y2="-43.30127"/>
            <line x1="125" y1="-43.30127" x2="75" y2="-43.30127"/>
            <line x1="75" y1="-43.30127" x2="25" y2="-43.30127"/>
            <line x1="25" y1="-43.30127" x2="50" y2="-86.60254"/>
            <line x1="50" y1="-86.60254" x2="75" y2="-129.903811"/>
            <line x1="75" y1="-129.903811" x2="25" y2="-129.903811"/>
            <line x1="25" y1="-129.903811" x2="-0" y2="-86.60254"/>
            <line x1="-0" y1="-86.60254" x2="-25" y2="-43.30127"/>
            <line x1="-25" y1="-43.30127" x2="0" y2="0"/>
            <line x1="75" y1="-129.903811" x2="100" y2="-86.60254"/>
            <line x1="100" y1="-86.60254" x2="50" y2="-86.60254"/>
        </g>
        <!-- Boundary Highlight -->
        <g fill="none" stroke-width="3.0" stroke="red">
            <polygon
                    points="0,0 -25,-43.30127 -0,-86.60254 25,-129.903811 75,-129.903811 100,-86.60254 50,-86.60254 25,-43.30127 75,-43.30127 125,-43.30127 175,-43.30127 150,-86.60254 125,-129.903811 175,-129.903811 200,-86.60254 225,-43.30127 200,0 150,0 100,0 50,0">
            </polygon>
        </g>
        <!-- Inner Face Half-Edge Direction Arrows -->
        <g stroke-width="0.5" stroke="blue" fill="blue">
            <polygon points="28,0 25,-1.2 25,1.2"/>
            <polygon points="78,0 75,-1.2 75,1.2"/>
            <polygon points="128,0 125,-1.2 125,1.2"/>
            <polygon points="178,0 175,-1.2 175,1.2"/>
            <polygon points="214,-24.248711 211.46077,-22.250635 213.53923,-21.050635"/>
            <polygon points="211,-67.549981 211.46077,-64.351905 213.53923,-65.551905"/>
            <polygon points="186,-110.851252 186.46077,-107.653175 188.53923,-108.853175"/>
            <polygon points="147,-129.903811 150,-128.703811 150,-131.103811"/>
            <polygon points="139,-105.655099 138.53923,-108.853175 136.46077,-107.653175"/>
            <polygon points="164,-62.353829 163.53923,-65.551905 161.46077,-64.351905"/>
            <polygon points="147,-43.30127 150,-42.10127 150,-44.50127"/>
            <polygon points="97,-43.30127 100,-42.10127 100,-44.50127"/>
            <polygon points="47,-43.30127 50,-42.10127 50,-44.50127"/>
            <polygon points="39,-67.549981 36.46077,-65.551905 38.53923,-64.351905"/>
            <polygon points="64,-110.851252 61.46077,-108.853175 63.53923,-107.653175"/>
            <polygon points="47,-129.903811 50,-128.703811 50,-131.103811"/>
            <polygon points="11,-105.655099 13.53923,-107.653175 11.46077,-108.853175"/>
            <polygon points="-14,-62.353829 -11.46077,-64.351905 -13.53923,-65.551905"/>
            <polygon points="-11,-19.052559 -11.46077,-22.250635 -13.53923,-21.050635"/>
            <polygon points="61,-105.655099 63.53923,-107.653175 61.46077,-108.853175"/>
            <polygon points="78,-86.60254 75,-87.80254 75,-85.40254"/>
            <polygon points="86,-110.851252 86.46077,-107.653175 88.53923,-108.853175"/>
        </g>
        <!-- Outer Face Half-Edge Direction Arrows -->
        <g stroke-width="0.5" stroke="black" fill="black">
            <polygon points="-14,-24.248711 -13.53923,-21.050635 -11.46077,-22.250635"/>
            <polygon points="-11,-67.549981 -13.53923,-65.551905 -11.46077,-64.351905"/>
            <polygon points="14,-110.851252 11.46077,-108.853175 13.53923,-107.653175"/>
            <polygon points="53,-129.903811 50,-131.103811 50,-128.703811"/>
            <polygon points="89,-105.655099 88.53923,-108.853175 86.46077,-107.653175"/>
            <polygon points="72,-86.60254 75,-85.40254 75,-87.80254"/>
            <polygon points="36,-62.353829 38.53923,-64.351905 36.46077,-65.551905"/>
            <polygon points="53,-43.30127 50,-44.50127 50,-42.10127"/>
            <polygon points="103,-43.30127 100,-44.50127 100,-42.10127"/>
            <polygon points="153,-43.30127 150,-44.50127 150,-42.10127"/>
            <polygon points="161,-67.549981 161.46077,-64.351905 163.53923,-65.551905"/>
            <polygon points="136,-110.851252 136.46077,-107.653175 138.53923,-108.853175"/>
            <polygon points="153,-129.903811 150,-131.103811 150,-128.703811"/>
            <polygon points="189,-105.655099 188.53923,-108.853175 186.46077,-107.653175"/>
            <polygon points="214,-62.353829 213.53923,-65.551905 211.46077,-64.351905"/>
            <polygon points="211,-19.052559 213.53923,-21.050635 211.46077,-22.250635"/>
            <polygon points="172,-0 175,1.2 175,-1.2"/>
            <polygon points="122,-0 125,1.2 125,-1.2"/>
            <polygon points="72,-0 75,1.2 75,-1.2"/>
            <polygon points="22,-0 25,1.2 25,-1.2"/>
        </g>
        <!-- Vertices -->
        <g fill="red">
            <circle cx="0" cy="0" r="2.0"/>
            <circle cx="50" cy="0" r="2.0"/>
            <circle cx="100" cy="0" r="2.0"/>
            <circle cx="150" cy="0" r="2.0"/>
            <circle cx="200" cy="0" r="2.0"/>
            <circle cx="225" cy="-43.30127" r="2.0"/>
            <circle cx="200" cy="-86.60254" r="2.0"/>
            <circle cx="175" cy="-129.903811" r="2.0"/>
            <circle cx="125" cy="-129.903811" r="2.0"/>
            <circle cx="150" cy="-86.60254" r="2.0"/>
            <circle cx="175" cy="-43.30127" r="2.0"/>
            <circle cx="125" cy="-43.30127" r="2.0"/>
            <circle cx="75" cy="-43.30127" r="2.0"/>
            <circle cx="25" cy="-43.30127" r="2.0"/>
            <circle cx="50" cy="-86.60254" r="2.0"/>
            <circle cx="75" cy="-129.903811" r="2.0"/>
            <circle cx="25" cy="-129.903811" r="2.0"/>
            <circle cx="-0" cy="-86.60254" r="2.0"/>
            <circle cx="-25" cy="-43.30127" r="2.0"/>
            <circle cx="100" cy="-86.60254" r="2.0"/>
        </g>
        <!-- Vertex Labels -->
        <g fill="darkblue" font-size="8">
            <text x="2.5" y="-2.5">V1</text>
            <text x="52.5" y="-2.5">V2</text>
            <text x="102.5" y="-2.5">V3</text>
            <text x="152.5" y="-2.5">V4</text>
            <text x="202.5" y="-2.5">V5</text>
            <text x="227.5" y="-45.80127">V6</text>
            <text x="202.5" y="-89.10254">V7</text>
            <text x="177.5" y="-132.403811">V8</text>
            <text x="127.5" y="-132.403811">V9</text>
            <text x="152.5" y="-89.10254">V10</text>
            <text x="177.5" y="-45.80127">V11</text>
            <text x="127.5" y="-45.80127">V12</text>
            <text x="77.5" y="-45.80127">V13</text>
            <text x="27.5" y="-45.80127">V14</text>
            <text x="52.5" y="-89.10254">V15</text>
            <text x="77.5" y="-132.403811">V16</text>
            <text x="27.5" y="-132.403811">V17</text>
            <text x="2.5" y="-89.10254">V18</text>
            <text x="-22.5" y="-45.80127">V19</text>
            <text x="102.5" y="-89.10254">V20</text>
        </g>
        <!-- Face Labels -->
        <g dominant-baseline="middle" text-anchor="middle" fill="green" font-size="6">
            <text x="100" y="-59.25437">F1</text>
            <text x="75" y="-101.036297">F2</text>
        </g>
        <!-- Inner Angle Labels -->
        <g dominant-baseline="middle" text-anchor="middle" fill="purple" font-size="5">
            <text x="6.88248" y="-4.07817">120°</text>
            <text x="55.159216" y="-6.114122">180°</text>
            <text x="100" y="-8">180°</text>
            <text x="144.840784" y="-6.114122">180°</text>
            <text x="193.11752" y="-4.07817">120°</text>
            <text x="217.064367" y="-44.314054">120°</text>
            <text x="192.283369" y="-84.492183">180°</text>
            <text x="169.176772" y="-124.418374">120°</text>
            <text x="122.331279" y="-122.362065">60°</text>
            <text x="142.981292" y="-82.763564">180°</text>
            <text x="167.17506" y="-44.965697">300°</text>
            <text x="118.256091" y="-47.604721">180°</text>
            <text x="81.743909" y="-47.604721">180°</text>
            <text x="32.82494" y="-44.965697">300°</text>
            <text x="57.018708" y="-82.763564">180°</text>
            <text x="77.668721" y="-122.362065">60°</text>
            <text x="30.823228" y="-124.418374">120°</text>
            <text x="7.716631" y="-84.492183">180°</text>
            <text x="-17.064367" y="-44.314054">120°</text>
            <text x="75" y="-121.903811">60°</text>
            <text x="56.928203" y="-90.60254">60°</text>
            <text x="93.071797" y="-90.60254">60°</text>
        </g>
        <!-- Outer Angle Labels -->
        <g dominant-baseline="middle" text-anchor="middle" fill="orange" font-size="5">
            <text x="-6.88248" y="4.07817">240°</text>
            <text x="-32.935633" y="-42.288487">240°</text>
            <text x="-7.716631" y="-88.712898">180°</text>
            <text x="19.176772" y="-135.389248">240°</text>
            <text x="72.331279" y="-137.445556">240°</text>
            <text x="100" y="-94.60254">300°</text>
            <text x="42.981292" y="-90.441517">120°</text>
            <text x="17.17506" y="-41.636843">60°</text>
            <text x="68.256091" y="-38.99782">180°</text>
            <text x="131.743909" y="-38.99782">180°</text>
            <text x="182.82494" y="-41.636843">60°</text>
            <text x="157.018708" y="-90.441517">180°</text>
            <text x="127.668721" y="-137.445556">300°</text>
            <text x="180.823228" y="-135.389248">240°</text>
            <text x="207.716631" y="-88.712898">180°</text>
            <text x="232.935633" y="-42.288487">240°</text>
            <text x="206.88248" y="4.07817">240°</text>
            <text x="155.159216" y="6.114122">180°</text>
            <text x="100" y="8">180°</text>
            <text x="44.840784" y="6.114122">180°</text>
        </g>
    </g>
</svg>
