<svg
        width="344" height="331" viewBox="-224.903811 -311.506351 344.903811 331.506351" xmlns="http://www.w3.org/2000/svg">
    <g>
        <!-- Edges -->
        <g stroke-width="1.0" stroke="black">
            <line x1="25" y1="-43.30127" x2="50" y2="0"/>
            <line x1="100" y1="-86.60254" x2="50" y2="-86.60254"/>
            <line x1="-111.60254" y1="-93.30127" x2="-136.60254" y2="-136.60254"/>
            <line x1="-136.60254" y1="-136.60254" x2="-86.60254" y2="-136.60254"/>
            <line x1="50" y1="0" x2="0" y2="0"/>
            <line x1="-154.903811" y1="-204.903811" x2="-179.903811" y2="-248.205081"/>
            <line x1="-68.30127" y1="-68.30127" x2="-18.30127" y2="-68.30127"/>
            <line x1="-129.903811" y1="-248.205081" x2="-179.903811" y2="-248.205081"/>
            <line x1="-111.60254" y1="-179.903811" x2="-154.903811" y2="-204.903811"/>
            <line x1="75" y1="-129.903811" x2="31.69873" y2="-154.903811"/>
            <line x1="-43.30127" y1="-25" x2="0" y2="0"/>
            <line x1="6.69873" y1="-198.205081" x2="-36.60254" y2="-223.205081"/>
            <line x1="31.69873" y1="-154.903811" x2="-18.30127" y2="-154.903811"/>
            <line x1="6.69873" y1="-198.205081" x2="31.69873" y2="-154.903811"/>
            <line x1="-86.60254" y1="-136.60254" x2="-43.30127" y2="-111.60254"/>
            <line x1="-36.60254" y1="-223.205081" x2="-61.60254" y2="-266.506351"/>
            <line x1="100" y1="-86.60254" x2="75" y2="-129.903811"/>
            <line x1="-86.60254" y1="-223.205081" x2="-129.903811" y2="-248.205081"/>
            <line x1="25" y1="-43.30127" x2="-18.30127" y2="-68.30127"/>
            <line x1="6.69873" y1="-111.60254" x2="50" y2="-86.60254"/>
            <line x1="-154.903811" y1="-291.506351" x2="-104.903811" y2="-291.506351"/>
            <line x1="-204.903811" y1="-204.903811" x2="-154.903811" y2="-204.903811"/>
            <line x1="-68.30127" y1="-68.30127" x2="-43.30127" y2="-25"/>
            <line x1="-154.903811" y1="-291.506351" x2="-129.903811" y2="-248.205081"/>
            <line x1="-104.903811" y1="-291.506351" x2="-61.60254" y2="-266.506351"/>
            <line x1="-86.60254" y1="-223.205081" x2="-36.60254" y2="-223.205081"/>
            <line x1="-86.60254" y1="-136.60254" x2="-111.60254" y2="-179.903811"/>
            <line x1="-61.60254" y1="-179.903811" x2="-86.60254" y2="-223.205081"/>
            <line x1="25" y1="-43.30127" x2="75" y2="-43.30127"/>
            <line x1="-111.60254" y1="-179.903811" x2="-61.60254" y2="-179.903811"/>
            <line x1="-68.30127" y1="-68.30127" x2="-111.60254" y2="-93.30127"/>
            <line x1="-18.30127" y1="-154.903811" x2="6.69873" y2="-111.60254"/>
            <line x1="-179.903811" y1="-161.60254" x2="-204.903811" y2="-204.903811"/>
            <line x1="-18.30127" y1="-154.903811" x2="-61.60254" y2="-179.903811"/>
            <line x1="75" y1="-43.30127" x2="50" y2="-86.60254"/>
            <line x1="-136.60254" y1="-136.60254" x2="-179.903811" y2="-161.60254"/>
            <line x1="-43.30127" y1="-111.60254" x2="-18.30127" y2="-68.30127"/>
            <line x1="6.69873" y1="-111.60254" x2="-43.30127" y2="-111.60254"/>
        </g>
        <!-- Boundary Highlight -->
        <g fill="none" stroke-width="3.0" stroke="red">
            <polygon
                    points="25,-43.30127 50,0 0,0 -43.30127,-25 -68.30127,-68.30127 -111.60254,-93.30127 -136.60254,-136.60254 -179.903811,-161.60254 -204.903811,-204.903811 -154.903811,-204.903811 -179.903811,-248.205081 -129.903811,-248.205081 -154.903811,-291.506351 -104.903811,-291.506351 -61.60254,-266.506351 -36.60254,-223.205081 6.69873,-198.205081 31.69873,-154.903811 75,-129.903811 100,-86.60254 50,-86.60254 75,-43.30127">
            </polygon>
        </g>
        <!-- Inner Face Half-Edge Direction Arrows -->
        <g stroke-width="0.5" stroke="blue" fill="blue">
            <polygon points="28,0 25,-1.2 25,1.2"/>
            <polygon points="36,-24.248711 36.46077,-21.050635 38.53923,-22.250635"/>
            <polygon points="0.751289,-57.30127 2.749365,-54.76204 3.949365,-56.840501"/>
            <polygon points="-46.30127,-68.30127 -43.30127,-67.10127 -43.30127,-69.50127"/>
            <polygon points="-54.30127,-44.052559 -54.76204,-47.250635 -56.840501,-46.050635"/>
            <polygon points="-19.052559,-11 -21.050635,-13.53923 -22.250635,-11.46077"/>
            <polygon points="53,-43.30127 50,-44.50127 50,-42.10127"/>
            <polygon points="61,-67.549981 61.46077,-64.351905 63.53923,-65.551905"/>
            <polygon points="25.751289,-100.60254 27.749365,-98.06331 28.949365,-100.141771"/>
            <polygon points="-21.30127,-111.60254 -18.30127,-110.40254 -18.30127,-112.80254"/>
            <polygon points="-29.30127,-87.353829 -29.76204,-90.551905 -31.840501,-89.351905"/>
            <polygon points="5.947441,-54.30127 3.949365,-56.840501 2.749365,-54.76204"/>
            <polygon points="78,-86.60254 75,-87.80254 75,-85.40254"/>
            <polygon points="86,-110.851252 86.46077,-107.653175 88.53923,-108.853175"/>
            <polygon points="50.751289,-143.903811 52.749365,-141.36458 53.949365,-143.443041"/>
            <polygon points="3.69873,-154.903811 6.69873,-153.703811 6.69873,-156.103811"/>
            <polygon points="-4.30127,-130.655099 -4.76204,-133.853175 -6.840501,-132.653175"/>
            <polygon points="30.947441,-97.60254 28.949365,-100.141771 27.749365,-98.06331"/>
            <polygon points="-40.30127,-68.30127 -43.30127,-69.50127 -43.30127,-67.10127"/>
            <polygon points="-32.30127,-92.549981 -31.840501,-89.351905 -29.76204,-90.551905"/>
            <polygon points="-67.549981,-125.60254 -65.551905,-123.06331 -64.351905,-125.141771"/>
            <polygon points="-114.60254,-136.60254 -111.60254,-135.40254 -111.60254,-137.80254"/>
            <polygon points="-122.60254,-112.353829 -123.06331,-115.551905 -125.141771,-114.351905"/>
            <polygon points="-87.353829,-79.30127 -89.351905,-81.840501 -90.551905,-79.76204"/>
            <polygon points="-15.30127,-111.60254 -18.30127,-112.80254 -18.30127,-110.40254"/>
            <polygon points="-7.30127,-135.851252 -6.840501,-132.653175 -4.76204,-133.853175"/>
            <polygon points="-42.549981,-168.903811 -40.551905,-166.36458 -39.351905,-168.443041"/>
            <polygon points="-89.60254,-179.903811 -86.60254,-178.703811 -86.60254,-181.103811"/>
            <polygon points="-97.60254,-155.655099 -98.06331,-158.853175 -100.141771,-157.653175"/>
            <polygon points="-62.353829,-122.60254 -64.351905,-125.141771 -65.551905,-123.06331"/>
            <polygon points="9.69873,-154.903811 6.69873,-156.103811 6.69873,-153.703811"/>
            <polygon points="17.69873,-179.152522 18.159499,-175.954446 20.23796,-177.154446"/>
            <polygon points="-17.549981,-212.205081 -15.551905,-209.66585 -14.351905,-211.744311"/>
            <polygon points="-64.60254,-223.205081 -61.60254,-222.005081 -61.60254,-224.405081"/>
            <polygon points="-72.60254,-198.956369 -73.06331,-202.154446 -75.141771,-200.954446"/>
            <polygon points="-37.353829,-165.903811 -39.351905,-168.443041 -40.551905,-166.36458"/>
            <polygon points="-108.60254,-136.60254 -111.60254,-137.80254 -111.60254,-135.40254"/>
            <polygon points="-100.60254,-160.851252 -100.141771,-157.653175 -98.06331,-158.853175"/>
            <polygon points="-135.851252,-193.903811 -133.853175,-191.36458 -132.653175,-193.443041"/>
            <polygon points="-182.903811,-204.903811 -179.903811,-203.703811 -179.903811,-206.103811"/>
            <polygon points="-190.903811,-180.655099 -191.36458,-183.853175 -193.443041,-182.653175"/>
            <polygon points="-155.655099,-147.60254 -157.653175,-150.141771 -158.853175,-148.06331"/>
            <polygon points="-83.60254,-179.903811 -86.60254,-181.103811 -86.60254,-178.703811"/>
            <polygon points="-75.60254,-204.152522 -75.141771,-200.954446 -73.06331,-202.154446"/>
            <polygon points="-110.851252,-237.205081 -108.853175,-234.66585 -107.653175,-236.744311"/>
            <polygon points="-157.903811,-248.205081 -154.903811,-247.005081 -154.903811,-249.405081"/>
            <polygon points="-165.903811,-223.956369 -166.36458,-227.154446 -168.443041,-225.954446"/>
            <polygon points="-130.655099,-190.903811 -132.653175,-193.443041 -133.853175,-191.36458"/>
            <polygon points="-58.60254,-223.205081 -61.60254,-224.405081 -61.60254,-222.005081"/>
            <polygon points="-50.60254,-247.453792 -50.141771,-244.255716 -48.06331,-245.455716"/>
            <polygon points="-85.851252,-280.506351 -83.853175,-277.96712 -82.653175,-280.045581"/>
            <polygon points="-132.903811,-291.506351 -129.903811,-290.306351 -129.903811,-292.706351"/>
            <polygon points="-140.903811,-267.25764 -141.36458,-270.455716 -143.443041,-269.255716"/>
            <polygon points="-105.655099,-234.205081 -107.653175,-236.744311 -108.853175,-234.66585"/>
        </g>
        <!-- Outer Face Half-Edge Direction Arrows -->
        <g stroke-width="0.5" stroke="black" fill="black">
            <polygon points="39,-19.052559 38.53923,-22.250635 36.46077,-21.050635"/>
            <polygon points="22,-0 25,1.2 25,-1.2"/>
            <polygon points="-24.248711,-14 -22.250635,-11.46077 -21.050635,-13.53923"/>
            <polygon points="-57.30127,-49.248711 -56.840501,-46.050635 -54.76204,-47.250635"/>
            <polygon points="-92.549981,-82.30127 -90.551905,-79.76204 -89.351905,-81.840501"/>
            <polygon points="-125.60254,-117.549981 -125.141771,-114.351905 -123.06331,-115.551905"/>
            <polygon points="-160.851252,-150.60254 -158.853175,-148.06331 -157.653175,-150.141771"/>
            <polygon points="-193.903811,-185.851252 -193.443041,-182.653175 -191.36458,-183.853175"/>
            <polygon points="-176.903811,-204.903811 -179.903811,-206.103811 -179.903811,-203.703811"/>
            <polygon points="-168.903811,-229.152522 -168.443041,-225.954446 -166.36458,-227.154446"/>
            <polygon points="-151.903811,-248.205081 -154.903811,-249.405081 -154.903811,-247.005081"/>
            <polygon points="-143.903811,-272.453792 -143.443041,-269.255716 -141.36458,-270.455716"/>
            <polygon points="-126.903811,-291.506351 -129.903811,-292.706351 -129.903811,-290.306351"/>
            <polygon points="-80.655099,-277.506351 -82.653175,-280.045581 -83.853175,-277.96712"/>
            <polygon points="-47.60254,-242.25764 -48.06331,-245.455716 -50.141771,-244.255716"/>
            <polygon points="-12.353829,-209.205081 -14.351905,-211.744311 -15.551905,-209.66585"/>
            <polygon points="20.69873,-173.956369 20.23796,-177.154446 18.159499,-175.954446"/>
            <polygon points="55.947441,-140.903811 53.949365,-143.443041 52.749365,-141.36458"/>
            <polygon points="89,-105.655099 88.53923,-108.853175 86.46077,-107.653175"/>
            <polygon points="72,-86.60254 75,-85.40254 75,-87.80254"/>
            <polygon points="64,-62.353829 63.53923,-65.551905 61.46077,-64.351905"/>
            <polygon points="47,-43.30127 50,-42.10127 50,-44.50127"/>
        </g>
        <!-- Vertices -->
        <g fill="red">
            <circle cx="-111.60254" cy="-179.903811" r="2.0"/>
            <circle cx="-179.903811" cy="-161.60254" r="2.0"/>
            <circle cx="-18.30127" cy="-68.30127" r="2.0"/>
            <circle cx="-36.60254" cy="-223.205081" r="2.0"/>
            <circle cx="-68.30127" cy="-68.30127" r="2.0"/>
            <circle cx="-61.60254" cy="-266.506351" r="2.0"/>
            <circle cx="-18.30127" cy="-154.903811" r="2.0"/>
            <circle cx="-86.60254" cy="-223.205081" r="2.0"/>
            <circle cx="-204.903811" cy="-204.903811" r="2.0"/>
            <circle cx="-43.30127" cy="-111.60254" r="2.0"/>
            <circle cx="50" cy="-86.60254" r="2.0"/>
            <circle cx="-129.903811" cy="-248.205081" r="2.0"/>
            <circle cx="0" cy="0" r="2.0"/>
            <circle cx="6.69873" cy="-111.60254" r="2.0"/>
            <circle cx="100" cy="-86.60254" r="2.0"/>
            <circle cx="-179.903811" cy="-248.205081" r="2.0"/>
            <circle cx="-154.903811" cy="-204.903811" r="2.0"/>
            <circle cx="-104.903811" cy="-291.506351" r="2.0"/>
            <circle cx="-136.60254" cy="-136.60254" r="2.0"/>
            <circle cx="-86.60254" cy="-136.60254" r="2.0"/>
            <circle cx="75" cy="-129.903811" r="2.0"/>
            <circle cx="31.69873" cy="-154.903811" r="2.0"/>
            <circle cx="-43.30127" cy="-25" r="2.0"/>
            <circle cx="75" cy="-43.30127" r="2.0"/>
            <circle cx="25" cy="-43.30127" r="2.0"/>
            <circle cx="-61.60254" cy="-179.903811" r="2.0"/>
            <circle cx="6.69873" cy="-198.205081" r="2.0"/>
            <circle cx="50" cy="0" r="2.0"/>
            <circle cx="-154.903811" cy="-291.506351" r="2.0"/>
            <circle cx="-111.60254" cy="-93.30127" r="2.0"/>
        </g>
        <!-- Vertex Labels -->
        <g fill="darkblue" font-size="8">
            <text x="-109.10254" y="-182.403811">V19</text>
            <text x="-177.403811" y="-164.10254">V25</text>
            <text x="-15.80127" y="-70.80127">V4</text>
            <text x="-34.10254" y="-225.705081">V21</text>
            <text x="-65.80127" y="-70.80127">V5</text>
            <text x="-59.10254" y="-269.006351">V28</text>
            <text x="-15.80127" y="-157.403811">V14</text>
            <text x="-84.10254" y="-225.705081">V22</text>
            <text x="-202.403811" y="-207.403811">V24</text>
            <text x="-40.80127" y="-114.10254">V10</text>
            <text x="52.5" y="-89.10254">V8</text>
            <text x="-127.403811" y="-250.705081">V26</text>
            <text x="2.5" y="-2.5">V1</text>
            <text x="9.19873" y="-114.10254">V9</text>
            <text x="102.5" y="-89.10254">V11</text>
            <text x="-177.403811" y="-250.705081">V27</text>
            <text x="-152.403811" y="-207.403811">V23</text>
            <text x="-102.403811" y="-294.006351">V29</text>
            <text x="-134.10254" y="-139.10254">V16</text>
            <text x="-84.10254" y="-139.10254">V15</text>
            <text x="77.5" y="-132.403811">V12</text>
            <text x="34.19873" y="-157.403811">V13</text>
            <text x="-40.80127" y="-27.5">V6</text>
            <text x="77.5" y="-45.80127">V7</text>
            <text x="27.5" y="-45.80127">V3</text>
            <text x="-59.10254" y="-182.403811">V18</text>
            <text x="9.19873" y="-200.705081">V20</text>
            <text x="52.5" y="-2.5">V2</text>
            <text x="-152.403811" y="-294.006351">V30</text>
            <text x="-109.10254" y="-95.80127">V17</text>
        </g>
        <!-- Face Labels -->
        <g dominant-baseline="middle" text-anchor="middle" fill="green" font-size="6">
            <text x="-9.150635" y="-34.150635">F1</text>
            <text x="15.849365" y="-77.451905">F2</text>
            <text x="40.849365" y="-120.753175">F3</text>
            <text x="-77.451905" y="-102.451905">F4</text>
            <text x="-52.451905" y="-145.753175">F5</text>
            <text x="-27.451905" y="-189.054446">F6</text>
            <text x="-145.753175" y="-170.753175">F7</text>
            <text x="-120.753175" y="-214.054446">F8</text>
            <text x="-95.753175" y="-257.355716">F9</text>
        </g>
        <!-- Inner Angle Labels -->
        <g dominant-baseline="middle" text-anchor="middle" fill="purple" font-size="5">
            <text x="-2.070552" y="-7.727407">60°</text>
            <text x="43.071797" y="-4">150°</text>
            <text x="17.272593" y="-41.230718">150°</text>
            <text x="-16.230718" y="-60.573864">60°</text>
            <text x="-61.373067" y="-64.30127">150°</text>
            <text x="-35.573864" y="-27.070552">150°</text>
            <text x="22.929448" y="-51.028677">60°</text>
            <text x="68.071797" y="-47.30127">150°</text>
            <text x="42.272593" y="-84.531988">150°</text>
            <text x="8.769282" y="-103.875134">60°</text>
            <text x="-36.373067" y="-107.60254">150°</text>
            <text x="-10.573864" y="-70.371823">150°</text>
            <text x="47.929448" y="-94.329947">60°</text>
            <text x="93.071797" y="-90.60254">150°</text>
            <text x="67.272593" y="-127.833258">150°</text>
            <text x="33.769282" y="-147.176404">60°</text>
            <text x="-11.373067" y="-150.903811">150°</text>
            <text x="14.426136" y="-113.673093">150°</text>
            <text x="-70.371823" y="-76.028677">60°</text>
            <text x="-25.229473" y="-72.30127">150°</text>
            <text x="-51.028677" y="-109.531988">150°</text>
            <text x="-84.531988" y="-128.875134">60°</text>
            <text x="-129.674337" y="-132.60254">150°</text>
            <text x="-103.875134" y="-95.371823">150°</text>
            <text x="-45.371823" y="-119.329947">60°</text>
            <text x="-0.229473" y="-115.60254">150°</text>
            <text x="-26.028677" y="-152.833258">150°</text>
            <text x="-59.531988" y="-172.176404">60°</text>
            <text x="-104.674337" y="-175.903811">150°</text>
            <text x="-78.875134" y="-138.673093">150°</text>
            <text x="-20.371823" y="-162.631217">60°</text>
            <text x="24.770527" y="-158.903811">150°</text>
            <text x="-1.028677" y="-196.134528">150°</text>
            <text x="-34.531988" y="-215.477674">60°</text>
            <text x="-79.674337" y="-219.205081">150°</text>
            <text x="-53.875134" y="-181.974363">150°</text>
            <text x="-138.673093" y="-144.329947">60°</text>
            <text x="-93.530744" y="-140.60254">150°</text>
            <text x="-119.329947" y="-177.833258">150°</text>
            <text x="-152.833258" y="-197.176404">60°</text>
            <text x="-197.975607" y="-200.903811">150°</text>
            <text x="-172.176404" y="-163.673093">150°</text>
            <text x="-113.673093" y="-187.631217">60°</text>
            <text x="-68.530744" y="-183.903811">150°</text>
            <text x="-94.329947" y="-221.134528">150°</text>
            <text x="-127.833258" y="-240.477674">60°</text>
            <text x="-172.975607" y="-244.205081">150°</text>
            <text x="-147.176404" y="-206.974363">150°</text>
            <text x="-88.673093" y="-230.932487">60°</text>
            <text x="-43.530744" y="-227.205081">150°</text>
            <text x="-69.329947" y="-264.435799">150°</text>
            <text x="-102.833258" y="-283.778944">60°</text>
            <text x="-147.975607" y="-287.506351">150°</text>
            <text x="-122.176404" y="-250.275633">150°</text>
        </g>
        <!-- Outer Angle Labels -->
        <g dominant-baseline="middle" text-anchor="middle" fill="orange" font-size="5">
            <text x="32.727407" y="-45.371823">150°</text>
            <text x="56.928203" y="4">210°</text>
            <text x="2.070552" y="7.727407">300°</text>
            <text x="-51.028677" y="-22.929448">210°</text>
            <text x="-75.229473" y="-72.30127">150°</text>
            <text x="-118.530744" y="-97.30127">210°</text>
            <text x="-142.837771" y="-141.614715">150°</text>
            <text x="-186.314841" y="-166.387798">210°</text>
            <text x="-210.932519" y="-210.162582">210°</text>
            <text x="-160.097668" y="-210.988533">150°</text>
            <text x="-184.89263" y="-254.459014">210°</text>
            <text x="-133.834492" y="-255.172846">150°</text>
            <text x="-158.846238" y="-298.467476">210°</text>
            <text x="-107.693499" y="-299.004193">300°</text>
            <text x="-63.364132" y="-274.309991">210°</text>
            <text x="-37.752135" y="-231.122052">150°</text>
            <text x="7.468031" y="-206.168006">210°</text>
            <text x="34.26232" y="-162.481937">150°</text>
            <text x="80.281055" y="-135.913008">210°</text>
            <text x="107.210648" y="-90.067589">210°</text>
            <text x="55.985623" y="-91.9103">150°</text>
            <text x="82.953117" y="-44.166101">210°</text>
        </g>
    </g>
</svg>
