<svg width="215" height="256" viewBox="-70 -193.2051 215 256.50635" xmlns="http://www.w3.org/2000/svg">
    <g>
        <!-- Edges -->
        <g stroke-width="1.0" stroke="black">
            <line x1="25" y1="-43.30125" x2="-25" y2="-43.30125"/>
            <line x1="25" y1="-129.9038" x2="-25" y2="-129.9038"/>
            <line x1="50" y1="-173.2051" x2="25" y2="-129.9038"/>
            <line x1="50" y1="0" x2="25" y2="-43.30125"/>
            <line x1="-25" y1="-43.30125" x2="-50" y2="0"/>
            <line x1="125" y1="-129.9038" x2="100" y2="-173.2051"/>
            <line x1="100" y1="0" x2="125" y2="-43.30125"/>
            <line x1="50" y1="0" x2="100" y2="0"/>
            <line x1="-25" y1="43.30125" x2="25" y2="43.30125"/>
            <line x1="50" y1="-86.60255" x2="25" y2="-129.9038"/>
            <line x1="-50" y1="0" x2="-25" y2="43.30125"/>
            <line x1="100" y1="-86.60255" x2="50" y2="-86.60255"/>
            <line x1="-25" y1="-129.9038" x2="-50" y2="-86.60255"/>
            <line x1="100" y1="-86.60255" x2="125" y2="-129.9038"/>
            <line x1="25" y1="43.30125" x2="50" y2="0"/>
            <line x1="100" y1="-173.2051" x2="50" y2="-173.2051"/>
            <line x1="-50" y1="-86.60255" x2="-25" y2="-43.30125"/>
            <line x1="125" y1="-43.30125" x2="100" y2="-86.60255"/>
            <line x1="50" y1="-86.60255" x2="25" y2="-43.30125"/>
        </g>
        <!-- Boundary Highlight -->
        <g fill="none" stroke-width="3.0" stroke="red">
            <polygon
                    points="-25,-129.9038 25,-129.9038 50,-173.2051 100,-173.2051 125,-129.9038 100,-86.60255 125,-43.30125 100,0 50,0 25,43.30125 -25,43.30125 -50,0 -25,-43.30125 -50,-86.60255">
            </polygon>
        </g>
        <!-- Inner Face Half-Edge Direction Arrows -->
        <g stroke-width="0.5" stroke="blue" fill="blue">
            <polygon points="35.999999,-24.248701 36.46077,-21.050625 38.53923,-22.250625"/>
            <polygon points="-3,-43.30125 -0,-42.10125 0,-44.50125"/>
            <polygon points="-39.000001,-19.052549 -36.46077,-21.050625 -38.53923,-22.250625"/>
            <polygon points="-35.999999,24.248701 -36.46077,21.050625 -38.53923,22.250625"/>
            <polygon points="3,43.30125 0,42.10125 -0,44.50125"/>
            <polygon points="39.000001,19.052549 36.46077,21.050625 38.53923,22.250625"/>
            <polygon points="111.000001,-67.549977 111.460769,-64.3519 113.539231,-65.5519"/>
            <polygon points="72,-86.60255 75,-85.40255 75,-87.80255"/>
            <polygon points="36.000001,-62.353823 38.539231,-64.3519 36.460769,-65.5519"/>
            <polygon points="39.000001,-19.052549 38.53923,-22.250625 36.46077,-21.050625"/>
            <polygon points="78,0 75,-1.2 75,1.2"/>
            <polygon points="114.000001,-24.248701 111.46077,-22.250625 113.53923,-21.050625"/>
            <polygon points="35.999999,-110.851251 36.46077,-107.653175 38.53923,-108.853175"/>
            <polygon points="-3,-129.9038 -0,-128.7038 0,-131.1038"/>
            <polygon points="-39.000001,-105.655099 -36.46077,-107.653175 -38.53923,-108.853175"/>
            <polygon points="-36.000001,-62.353823 -36.460769,-65.5519 -38.539231,-64.3519"/>
            <polygon points="3,-43.30125 0,-44.50125 -0,-42.10125"/>
            <polygon points="38.999999,-67.549977 36.460769,-65.5519 38.539231,-64.3519"/>
            <polygon points="111.000001,-154.152527 111.460769,-150.95445 113.539231,-152.15445"/>
            <polygon points="72,-173.2051 75,-172.0051 75,-174.4051"/>
            <polygon points="36.000001,-148.956373 38.539231,-150.95445 36.460769,-152.15445"/>
            <polygon points="39.000001,-105.655099 38.53923,-108.853175 36.46077,-107.653175"/>
            <polygon points="78,-86.60255 75,-87.80255 75,-85.40255"/>
            <polygon points="114.000001,-110.851251 111.46077,-108.853175 113.53923,-107.653175"/>
        </g>
        <!-- Outer Face Half-Edge Direction Arrows -->
        <g stroke-width="0.5" stroke="black" fill="black">
            <polygon points="3,-129.9038 0,-131.1038 -0,-128.7038"/>
            <polygon points="38.999999,-154.152527 36.460769,-152.15445 38.539231,-150.95445"/>
            <polygon points="78,-173.2051 75,-174.4051 75,-172.0051"/>
            <polygon points="113.999999,-148.956373 113.539231,-152.15445 111.460769,-150.95445"/>
            <polygon points="110.999999,-105.655099 113.53923,-107.653175 111.46077,-108.853175"/>
            <polygon points="113.999999,-62.353823 113.539231,-65.5519 111.460769,-64.3519"/>
            <polygon points="110.999999,-19.052549 113.53923,-21.050625 111.46077,-22.250625"/>
            <polygon points="72,-0 75,1.2 75,-1.2"/>
            <polygon points="35.999999,24.248701 38.53923,22.250625 36.46077,21.050625"/>
            <polygon points="-3,43.30125 -0,44.50125 0,42.10125"/>
            <polygon points="-39.000001,19.052549 -38.53923,22.250625 -36.46077,21.050625"/>
            <polygon points="-35.999999,-24.248701 -38.53923,-22.250625 -36.46077,-21.050625"/>
            <polygon points="-38.999999,-67.549977 -38.539231,-64.3519 -36.460769,-65.5519"/>
            <polygon points="-35.999999,-110.851251 -38.53923,-108.853175 -36.46077,-107.653175"/>
        </g>
        <!-- Vertices -->
        <g fill="red">
            <circle cx="-50" cy="0" r="2.0"/>
            <circle cx="-25" cy="43.30125" r="2.0"/>
            <circle cx="50" cy="0" r="2.0"/>
            <circle cx="100" cy="0" r="2.0"/>
            <circle cx="125" cy="-43.30125" r="2.0"/>
            <circle cx="25" cy="43.30125" r="2.0"/>
            <circle cx="100" cy="-173.2051" r="2.0"/>
            <circle cx="50" cy="-86.60255" r="2.0"/>
            <circle cx="-50" cy="-86.60255" r="2.0"/>
            <circle cx="-25" cy="-43.30125" r="2.0"/>
            <circle cx="50" cy="-173.2051" r="2.0"/>
            <circle cx="125" cy="-129.9038" r="2.0"/>
            <circle cx="100" cy="-86.60255" r="2.0"/>
            <circle cx="25" cy="-129.9038" r="2.0"/>
            <circle cx="25" cy="-43.30125" r="2.0"/>
            <circle cx="-25" cy="-129.9038" r="2.0"/>
        </g>
        <!-- Vertex Labels -->
        <g fill="darkblue" font-size="8">
            <text x="-47.5" y="-2.5">V4</text>
            <text x="-22.5" y="40.80125">V5</text>
            <text x="52.5" y="-2.5">V1</text>
            <text x="102.5" y="-2.5">V10</text>
            <text x="127.5" y="-45.80125">V7</text>
            <text x="27.5" y="40.80125">V6</text>
            <text x="102.5" y="-175.7051">V15</text>
            <text x="52.5" y="-89.10255">V9</text>
            <text x="-47.5" y="-89.10255">V13</text>
            <text x="-22.5" y="-45.80125">V3</text>
            <text x="52.5" y="-175.7051">V16</text>
            <text x="127.5" y="-132.4038">V14</text>
            <text x="102.5" y="-89.10255">V8</text>
            <text x="27.5" y="-132.4038">V11</text>
            <text x="27.5" y="-45.80125">V2</text>
            <text x="-22.5" y="-132.4038">V12</text>
        </g>
        <!-- Face Labels -->
        <g dominant-baseline="middle" text-anchor="middle" fill="green" font-size="6">
            <text x="0" y="0">F1</text>
            <text x="75" y="-43.301267">F2</text>
            <text x="0" y="-86.602533">F3</text>
            <text x="75" y="-129.903817">F4</text>
        </g>
        <!-- Inner Angle Labels -->
        <g dominant-baseline="middle" text-anchor="middle" fill="purple" font-size="5">
            <text x="42" y="-0">120°</text>
            <text x="20.999999" y="-36.373048">120°</text>
            <text x="-20.999999" y="-36.373048">120°</text>
            <text x="-42" y="0">120°</text>
            <text x="-20.999999" y="36.373048">120°</text>
            <text x="20.999999" y="36.373048">120°</text>
            <text x="117" y="-43.301253">120°</text>
            <text x="96.000001" y="-79.674346">120°</text>
            <text x="53.999999" y="-79.674346">120°</text>
            <text x="33" y="-43.301253">120°</text>
            <text x="54" y="-6.928203">120°</text>
            <text x="96" y="-6.928203">120°</text>
            <text x="42" y="-86.602547">120°</text>
            <text x="21" y="-122.975597">120°</text>
            <text x="-21" y="-122.975597">120°</text>
            <text x="-42" y="-86.602547">120°</text>
            <text x="-21.000001" y="-50.229454">120°</text>
            <text x="21.000001" y="-50.229454">120°</text>
            <text x="117" y="-129.903803">120°</text>
            <text x="96.000001" y="-166.276896">120°</text>
            <text x="53.999999" y="-166.276896">120°</text>
            <text x="33" y="-129.903803">120°</text>
            <text x="54" y="-93.530753">120°</text>
            <text x="96" y="-93.530753">120°</text>
        </g>
        <!-- Outer Angle Labels -->
        <g dominant-baseline="middle" text-anchor="middle" fill="orange" font-size="5">
            <text x="-26.511858" y="-137.759644">240°</text>
            <text x="26.511858" y="-137.759644">120°</text>
            <text x="52.218801" y="-180.891251">240°</text>
            <text x="104" y="-180.133303">240°</text>
            <text x="130.547002" y="-135.668413">240°</text>
            <text x="106.047431" y="-91.83978">120°</text>
            <text x="132.55929" y="-45.919864">240°</text>
            <text x="108" y="0">240°</text>
            <text x="58" y="0">120°</text>
            <text x="29.000001" y="50.229452">240°</text>
            <text x="-29.000001" y="50.229452">240°</text>
            <text x="-58" y="0">240°</text>
            <text x="-29.000001" y="-50.229452">120°</text>
            <text x="-54" y="-93.530753">240°</text>
        </g>
    </g>
</svg>