<svg width="140" height="190" viewBox="-20 -170 140 190" xmlns="http://www.w3.org/2000/svg">
<g>
    <!-- Edges -->
    <g stroke-width="1.0" stroke="black">
        <line x1="0" y1="-150" x2="50" y2="-150"/>
        <line x1="50" y1="-150" x2="50" y2="-100"/>
        <line x1="50" y1="-100" x2="0" y2="-100"/>
        <line x1="0" y1="-100" x2="0" y2="-150"/>
        <line x1="50" y1="-100" x2="100" y2="-100"/>
        <line x1="100" y1="-100" x2="100" y2="-150"/>
        <line x1="100" y1="-150" x2="50" y2="-150"/>
        <line x1="0" y1="-100" x2="0" y2="-50"/>
        <line x1="0" y1="-50" x2="50" y2="-50"/>
        <line x1="50" y1="-50" x2="50" y2="-100"/>
        <line x1="0" y1="-50" x2="0" y2="0"/>
        <line x1="0" y1="0" x2="50" y2="-0"/>
        <line x1="50" y1="-0" x2="50" y2="-50"/>
    </g>
    <!-- Boundary Highlight -->
    <g fill="none" stroke-width="3.0" stroke="red">
        <polygon points="0,-150 0,-100 0,-50 0,0 50,-0 50,-50 50,-100 100,-100 100,-150 50,-150"/>
    </g>
    <!-- Inner Face Half-Edge Direction Arrows -->
    <g stroke-width="0.5" stroke="blue" fill="blue">
        <polygon points="28,-150 25,-151.2 25,-148.8"/>
        <polygon points="50,-122 51.2,-125 48.8,-125"/>
        <polygon points="22,-100 25,-98.8 25,-101.2"/>
        <polygon points="0,-128 -1.2,-125 1.2,-125"/>
        <polygon points="50,-128 48.8,-125 51.2,-125"/>
        <polygon points="78,-150 75,-151.2 75,-148.8"/>
        <polygon points="100,-122 101.2,-125 98.8,-125"/>
        <polygon points="72,-100 75,-98.8 75,-101.2"/>
        <polygon points="28,-100 25,-101.2 25,-98.8"/>
        <polygon points="50,-72 51.2,-75 48.8,-75"/>
        <polygon points="22,-50 25,-48.8 25,-51.2"/>
        <polygon points="0,-78 -1.2,-75 1.2,-75"/>
        <polygon points="28,-50 25,-51.2 25,-48.8"/>
        <polygon points="50,-22 51.2,-25 48.8,-25"/>
        <polygon points="22,-0 25,1.2 25,-1.2"/>
        <polygon points="0,-28 -1.2,-25 1.2,-25"/>
    </g>
    <!-- Outer Face Half-Edge Direction Arrows -->
    <g stroke-width="0.5" stroke="black" fill="black">
        <polygon points="0,-122 1.2,-125 -1.2,-125"/>
        <polygon points="0,-72 1.2,-75 -1.2,-75"/>
        <polygon points="0,-22 1.2,-25 -1.2,-25"/>
        <polygon points="28,-0 25,-1.2 25,1.2"/>
        <polygon points="50,-28 48.8,-25 51.2,-25"/>
        <polygon points="50,-78 48.8,-75 51.2,-75"/>
        <polygon points="78,-100 75,-101.2 75,-98.8"/>
        <polygon points="100,-128 98.8,-125 101.2,-125"/>
        <polygon points="72,-150 75,-148.8 75,-151.2"/>
        <polygon points="22,-150 25,-148.8 25,-151.2"/>
    </g>
    <!-- Vertices -->
    <g fill="red">
        <circle cx="0" cy="-150" r="2.0"/>
        <circle cx="50" cy="-150" r="2.0"/>
        <circle cx="50" cy="-100" r="2.0"/>
        <circle cx="0" cy="-100" r="2.0"/>
        <circle cx="100" cy="-100" r="2.0"/>
        <circle cx="100" cy="-150" r="2.0"/>
        <circle cx="0" cy="-50" r="2.0"/>
        <circle cx="50" cy="-50" r="2.0"/>
        <circle cx="0" cy="0" r="2.0"/>
        <circle cx="50" cy="-0" r="2.0"/>
    </g>
    <!-- Vertex Labels -->
    <g fill="darkblue" font-size="8">
        <text x="2.5" y="-152.5">V1</text>
        <text x="52.5" y="-152.5">V2</text>
        <text x="52.5" y="-102.5">V3</text>
        <text x="2.5" y="-102.5">V4</text>
        <text x="102.5" y="-102.5">V5</text>
        <text x="102.5" y="-152.5">V6</text>
        <text x="2.5" y="-52.5">V7</text>
        <text x="52.5" y="-52.5">V8</text>
        <text x="2.5" y="-2.5">V9</text>
        <text x="52.5" y="-2.5">V10</text>
    </g>
    <!-- Face Labels -->
    <g dominant-baseline="middle" text-anchor="middle" fill="green" font-size="6">
        <text x="25" y="-125">F1</text>
        <text x="75" y="-125">F2</text>
        <text x="25" y="-75">F3</text>
        <text x="25" y="-25">F4</text>
    </g>
    <!-- Inner Angle Labels -->
    <g dominant-baseline="middle" text-anchor="middle" fill="purple" font-size="5">
        <text x="5.656854" y="-144.343146">90°</text>
        <text x="44.343146" y="-144.343146">90°</text>
        <text x="44.343146" y="-105.656854">90°</text>
        <text x="5.656854" y="-105.656854">90°</text>
        <text x="55.656854" y="-105.656854">90°</text>
        <text x="55.656854" y="-144.343146">90°</text>
        <text x="94.343146" y="-144.343146">90°</text>
        <text x="94.343146" y="-105.656854">90°</text>
        <text x="5.656854" y="-94.343146">90°</text>
        <text x="44.343146" y="-94.343146">90°</text>
        <text x="44.343146" y="-55.656854">90°</text>
        <text x="5.656854" y="-55.656854">90°</text>
        <text x="5.656854" y="-44.343146">90°</text>
        <text x="44.343146" y="-44.343146">90°</text>
        <text x="44.343146" y="-5.656854">90°</text>
        <text x="5.656854" y="-5.656854">90°</text>
    </g>
    <!-- Outer Angle Labels -->
    <g dominant-baseline="middle" text-anchor="middle" fill="orange" font-size="5">
        <text x="-5.656854" y="-155.656854">270°</text>
        <text x="-5.656854" y="-94.343146">180°</text>
        <text x="-2.529822" y="-42.410534">180°</text>
        <text x="-1.568929" y="7.844645">270°</text>
        <text x="51.568929" y="7.844645">270°</text>
        <text x="52.529822" y="-42.410534">180°</text>
        <text x="55.656854" y="-94.343146">90°</text>
        <text x="107.589466" y="-97.470178">270°</text>
        <text x="107.589466" y="-152.529822">270°</text>
        <text x="55.656854" y="-155.656854">180°</text>
    </g>
</g>
</svg>
