<svg width="215" height="256" viewBox="-120 -106.60254 215 256.506351" xmlns="http://www.w3.org/2000/svg">
    <g>
        <!-- Edges -->
        <g stroke-width="1.0" stroke="black">
            <line x1="0" y1="0" x2="50" y2="0"/>
            <line x1="50" y1="0" x2="75" y2="-43.30127"/>
            <line x1="75" y1="-43.30127" x2="50" y2="-86.60254"/>
            <line x1="50" y1="-86.60254" x2="0" y2="-86.60254"/>
            <line x1="0" y1="-86.60254" x2="-25" y2="-43.30127"/>
            <line x1="-25" y1="-43.30127" x2="0" y2="0"/>
            <line x1="0" y1="0" x2="-25" y2="43.30127"/>
            <line x1="-25" y1="43.30127" x2="-75" y2="43.30127"/>
            <line x1="-75" y1="43.30127" x2="-100" y2="-0"/>
            <line x1="-100" y1="-0" x2="-75" y2="-43.30127"/>
            <line x1="-75" y1="-43.30127" x2="-25" y2="-43.30127"/>
            <line x1="-25" y1="43.30127" x2="-0" y2="86.60254"/>
            <line x1="-0" y1="86.60254" x2="-25" y2="129.903811"/>
            <line x1="-25" y1="129.903811" x2="-75" y2="129.903811"/>
            <line x1="-75" y1="129.903811" x2="-100" y2="86.60254"/>
            <line x1="-100" y1="86.60254" x2="-75" y2="43.30127"/>
        </g>
        <!-- Boundary Highlight -->
        <g fill="none" stroke-width="3.0" stroke="red">
            <polygon
                    points="0,0 -25,43.30127 -0,86.60254 -25,129.903811 -75,129.903811 -100,86.60254 -75,43.30127 -100,-0 -75,-43.30127 -25,-43.30127 0,-86.60254 50,-86.60254 75,-43.30127 50,0">
            </polygon>
        </g>
        <!-- Inner Face Half-Edge Direction Arrows -->
        <g stroke-width="0.5" stroke="blue" fill="blue">
            <polygon points="28,0 25,-1.2 25,1.2"/>
            <polygon points="64,-24.248711 61.46077,-22.250635 63.53923,-21.050635"/>
            <polygon points="61,-67.549981 61.46077,-64.351905 63.53923,-65.551905"/>
            <polygon points="22,-86.60254 25,-85.40254 25,-87.80254"/>
            <polygon points="-14,-62.353829 -11.46077,-64.351905 -13.53923,-65.551905"/>
            <polygon points="-11,-19.052559 -11.46077,-22.250635 -13.53923,-21.050635"/>
            <polygon points="-14,-24.248711 -13.53923,-21.050635 -11.46077,-22.250635"/>
            <polygon points="-53,-43.30127 -50,-42.10127 -50,-44.50127"/>
            <polygon points="-89,-19.052559 -86.46077,-21.050635 -88.53923,-22.250635"/>
            <polygon points="-86,24.248711 -86.46077,21.050635 -88.53923,22.250635"/>
            <polygon points="-47,43.30127 -50,42.10127 -50,44.50127"/>
            <polygon points="-11,19.052559 -13.53923,21.050635 -11.46077,22.250635"/>
            <polygon points="-53,43.30127 -50,44.50127 -50,42.10127"/>
            <polygon points="-89,67.549981 -86.46077,65.551905 -88.53923,64.351905"/>
            <polygon points="-86,110.851252 -86.46077,107.653175 -88.53923,108.853175"/>
            <polygon points="-47,129.903811 -50,128.703811 -50,131.103811"/>
            <polygon points="-11,105.655099 -13.53923,107.653175 -11.46077,108.853175"/>
            <polygon points="-14,62.353829 -13.53923,65.551905 -11.46077,64.351905"/>
        </g>
        <!-- Outer Face Half-Edge Direction Arrows -->
        <g stroke-width="0.5" stroke="black" fill="black">
            <polygon points="-14,24.248711 -11.46077,22.250635 -13.53923,21.050635"/>
            <polygon points="-11,67.549981 -11.46077,64.351905 -13.53923,65.551905"/>
            <polygon points="-14,110.851252 -11.46077,108.853175 -13.53923,107.653175"/>
            <polygon points="-53,129.903811 -50,131.103811 -50,128.703811"/>
            <polygon points="-89,105.655099 -88.53923,108.853175 -86.46077,107.653175"/>
            <polygon points="-86,62.353829 -88.53923,64.351905 -86.46077,65.551905"/>
            <polygon points="-89,19.052559 -88.53923,22.250635 -86.46077,21.050635"/>
            <polygon points="-86,-24.248711 -88.53923,-22.250635 -86.46077,-21.050635"/>
            <polygon points="-47,-43.30127 -50,-44.50127 -50,-42.10127"/>
            <polygon points="-11,-67.549981 -13.53923,-65.551905 -11.46077,-64.351905"/>
            <polygon points="28,-86.60254 25,-87.80254 25,-85.40254"/>
            <polygon points="64,-62.353829 63.53923,-65.551905 61.46077,-64.351905"/>
            <polygon points="61,-19.052559 63.53923,-21.050635 61.46077,-22.250635"/>
            <polygon points="22,-0 25,1.2 25,-1.2"/>
        </g>
        <!-- Vertices -->
        <g fill="red">
            <circle cx="0" cy="0" r="2.0"/>
            <circle cx="50" cy="0" r="2.0"/>
            <circle cx="75" cy="-43.30127" r="2.0"/>
            <circle cx="50" cy="-86.60254" r="2.0"/>
            <circle cx="0" cy="-86.60254" r="2.0"/>
            <circle cx="-25" cy="-43.30127" r="2.0"/>
            <circle cx="-25" cy="43.30127" r="2.0"/>
            <circle cx="-75" cy="43.30127" r="2.0"/>
            <circle cx="-100" cy="-0" r="2.0"/>
            <circle cx="-75" cy="-43.30127" r="2.0"/>
            <circle cx="-0" cy="86.60254" r="2.0"/>
            <circle cx="-25" cy="129.903811" r="2.0"/>
            <circle cx="-75" cy="129.903811" r="2.0"/>
            <circle cx="-100" cy="86.60254" r="2.0"/>
        </g>
        <!-- Vertex Labels -->
        <g fill="darkblue" font-size="8">
            <text x="2.5" y="-2.5">V1</text>
            <text x="52.5" y="-2.5">V2</text>
            <text x="77.5" y="-45.80127">V3</text>
            <text x="52.5" y="-89.10254">V4</text>
            <text x="2.5" y="-89.10254">V5</text>
            <text x="-22.5" y="-45.80127">V6</text>
            <text x="-22.5" y="40.80127">V7</text>
            <text x="-72.5" y="40.80127">V8</text>
            <text x="-97.5" y="-2.5">V9</text>
            <text x="-72.5" y="-45.80127">V10</text>
            <text x="2.5" y="84.10254">V11</text>
            <text x="-22.5" y="127.403811">V12</text>
            <text x="-72.5" y="127.403811">V13</text>
            <text x="-97.5" y="84.10254">V14</text>
        </g>
        <!-- Face Labels -->
        <g dominant-baseline="middle" text-anchor="middle" fill="green" font-size="6">
            <text x="25" y="-43.30127">F1</text>
            <text x="-50" y="-0">F2</text>
            <text x="-50" y="86.60254">F3</text>
        </g>
        <!-- Inner Angle Labels -->
        <g dominant-baseline="middle" text-anchor="middle" fill="purple" font-size="5">
            <text x="4" y="-6.928203">120°</text>
            <text x="46" y="-6.928203">120°</text>
            <text x="67" y="-43.30127">120°</text>
            <text x="46" y="-79.674337">120°</text>
            <text x="4" y="-79.674337">120°</text>
            <text x="-17" y="-43.30127">120°</text>
            <text x="-8" y="-0">120°</text>
            <text x="-29" y="-36.373067">120°</text>
            <text x="-71" y="-36.373067">120°</text>
            <text x="-92" y="-0">120°</text>
            <text x="-71" y="36.373067">120°</text>
            <text x="-29" y="36.373067">120°</text>
            <text x="-29" y="50.229473">120°</text>
            <text x="-71" y="50.229473">120°</text>
            <text x="-92" y="86.60254">120°</text>
            <text x="-71" y="122.975607">120°</text>
            <text x="-29" y="122.975607">120°</text>
            <text x="-8" y="86.60254">120°</text>
        </g>
        <!-- Outer Angle Labels -->
        <g dominant-baseline="middle" text-anchor="middle" fill="orange" font-size="5">
            <text x="-4" y="6.928203">120°</text>
            <text x="-29" y="50.229473">120°</text>
            <text x="-1.511858" y="94.458384">240°</text>
            <text x="-27.218801" y="137.589962">240°</text>
            <text x="-79" y="136.832014">240°</text>
            <text x="-105.547002" y="92.367154">240°</text>
            <text x="-81.047432" y="48.5385">120°</text>
            <text x="-107.559289" y="2.618615">240°</text>
            <text x="-83" y="-43.30127">240°</text>
            <text x="-33" y="-43.30127">120°</text>
            <text x="-4" y="-93.530744">240°</text>
            <text x="54" y="-93.530744">240°</text>
            <text x="83" y="-43.30127">240°</text>
            <text x="54" y="6.928203">240°</text>
        </g>
    </g>
</svg>
